{"glyphs":{"0":{"ha":865,"x_min":83,"x_max":782,"o":"m 83 433 q 109 728 83 636 q 206 855 135 821 q 433 889 278 889 q 660 856 589 889 q 756 729 731 822 q 782 433 782 636 q 758 135 782 226 q 663 11 733 43 q 433 -21 592 -21 q 204 11 275 -21 q 108 135 133 43 q 83 433 83 228 m 232 171 q 242 125 232 140 q 280 103 253 110 q 361 97 307 97 l 633 97 l 633 697 q 622 743 633 728 q 581 765 610 758 q 496 771 551 771 l 232 771 l 232 171 z "},"1":{"ha":604,"x_min":35,"x_max":563,"o":"m 49 115 l 254 115 l 254 750 l 35 725 l 35 847 l 393 889 l 393 115 l 563 115 l 563 0 l 49 0 l 49 115 z "},"2":{"ha":764,"x_min":76,"x_max":681,"o":"m 76 118 q 104 291 76 233 q 221 400 132 349 q 532 543 310 451 l 532 761 q 401 771 492 771 q 115 744 261 771 l 97 853 q 383 889 218 889 q 609 835 538 889 q 681 668 681 782 q 650 521 681 574 q 526 417 619 468 q 208 272 432 365 l 208 115 l 665 115 l 665 0 l 76 0 l 76 118 z "},"3":{"ha":696,"x_min":42,"x_max":626,"o":"m 308 -21 q 42 15 150 -21 l 58 124 q 188 104 115 111 q 326 97 260 97 q 478 107 439 97 l 478 372 l 236 403 l 236 476 l 478 515 l 478 761 q 356 771 440 771 q 217 764 289 771 q 88 744 144 757 l 72 853 q 350 889 185 889 q 626 654 626 889 q 598 526 626 582 q 518 443 569 471 l 518 436 q 600 355 574 406 q 626 226 626 304 q 596 80 626 133 q 497 3 565 26 q 308 -21 428 -21 z "},"4":{"ha":797,"x_min":42,"x_max":728,"o":"m 42 193 l 42 263 l 358 868 l 638 868 l 638 308 l 728 308 l 728 193 l 638 193 l 638 0 l 499 0 l 499 193 l 42 193 m 499 308 l 499 764 l 444 764 l 206 308 l 499 308 z "},"5":{"ha":736,"x_min":83,"x_max":667,"o":"m 369 -21 q 83 15 200 -21 l 101 124 q 374 97 240 97 q 518 107 474 97 l 518 339 l 403 350 q 217 381 276 364 q 134 431 157 399 q 111 526 111 464 l 125 868 l 628 868 l 617 753 l 264 753 l 264 486 l 346 478 q 542 439 474 465 q 638 363 610 413 q 667 228 667 314 q 595 39 667 99 q 369 -21 524 -21 z "},"6":{"ha":783,"x_min":76,"x_max":707,"o":"m 707 257 q 676 92 707 153 q 578 6 646 32 q 392 -21 510 -21 q 190 14 256 -21 q 101 143 125 49 q 76 433 76 238 q 106 715 76 619 q 208 850 135 811 q 424 889 282 889 q 554 878 476 889 q 671 853 632 867 l 653 744 q 534 763 604 756 q 406 771 464 771 q 294 768 346 771 q 225 761 243 765 l 225 507 l 428 507 q 640 447 574 507 q 707 257 707 388 m 313 397 q 242 386 260 397 q 225 339 225 375 l 225 89 l 471 89 q 541 101 524 89 q 558 147 558 113 l 558 397 l 313 397 z "},"7":{"ha":649,"x_min":35,"x_max":593,"o":"m 161 0 l 442 753 l 46 753 l 35 868 l 593 868 l 593 782 l 301 0 l 161 0 z "},"8":{"ha":806,"x_min":76,"x_max":729,"o":"m 404 889 q 587 865 519 889 q 685 790 654 842 q 715 651 715 739 q 699 519 715 582 q 654 419 682 457 l 654 410 q 709 340 689 388 q 729 238 729 293 q 702 76 729 131 q 607 1 675 22 q 404 -21 539 -21 q 201 1 269 -21 q 104 76 132 22 q 76 238 76 131 q 99 367 76 307 q 157 457 121 426 l 157 467 q 108 543 125 494 q 90 651 90 592 q 122 790 90 739 q 221 865 153 842 q 404 889 289 889 m 525 464 q 549 458 544 458 q 572 465 563 458 q 581 483 581 472 l 581 779 l 322 779 q 244 767 264 779 q 225 721 225 756 l 225 567 l 525 464 m 274 418 q 242 426 253 426 q 225 403 225 426 l 225 89 l 482 89 q 560 101 540 89 q 579 147 579 113 l 581 314 l 274 418 z "},"9":{"ha":783,"x_min":76,"x_max":707,"o":"m 76 613 q 107 776 76 717 q 206 863 138 836 q 392 889 274 889 q 593 854 528 889 q 683 726 658 819 q 707 436 707 632 q 677 153 707 250 q 574 18 647 57 q 358 -21 500 -21 q 221 -9 303 -21 q 99 17 139 3 l 115 125 q 242 106 168 114 q 376 99 315 99 q 488 101 436 99 q 558 108 540 104 l 558 363 l 356 363 q 143 422 210 363 q 76 613 76 482 m 225 532 q 240 485 225 496 q 299 474 254 474 l 558 474 l 558 722 q 544 769 558 757 q 485 781 529 781 l 225 781 l 225 532 z "}," ":{"ha":347,"x_min":0,"x_max":0,"o":""},"A":{"ha":765,"x_min":21,"x_max":744,"o":"m 549 194 l 217 194 l 160 0 l 21 0 l 278 868 l 488 868 l 744 0 l 606 0 l 549 194 m 517 304 l 389 740 l 376 740 l 249 304 l 517 304 z "},"Á":{"ha":765,"x_min":21,"x_max":744,"o":"m 21 0 m 549 194 l 217 194 l 160 0 l 21 0 l 278 868 l 488 868 l 744 0 l 606 0 l 549 194 m 517 304 l 389 740 l 376 740 l 249 304 l 517 304 m 265 1004 l 476 1157 q 488 1163 483 1163 q 499 1156 493 1163 l 558 1082 q 568 1065 568 1071 q 558 1050 568 1058 l 521 1019 q 490 1006 510 1011 l 296 957 l 265 1004 z "},"Ă":{"ha":765,"x_min":21,"x_max":744,"o":"m 21 0 m 549 194 l 217 194 l 160 0 l 21 0 l 278 868 l 488 868 l 744 0 l 606 0 l 549 194 m 517 304 l 389 740 l 376 740 l 249 304 l 517 304 m 383 961 q 219 1111 251 961 l 310 1126 q 339 1079 318 1096 q 383 1063 360 1063 q 428 1079 407 1063 q 457 1126 449 1096 l 547 1111 q 486 999 529 1036 q 383 961 443 961 z "},"Â":{"ha":765,"x_min":21,"x_max":744,"o":"m 21 0 m 549 194 l 217 194 l 160 0 l 21 0 l 278 868 l 488 868 l 744 0 l 606 0 l 549 194 m 517 304 l 389 740 l 376 740 l 249 304 l 517 304 m 219 993 l 357 1154 q 371 1163 364 1163 l 396 1163 q 410 1154 403 1163 l 547 993 l 499 946 l 383 1035 l 268 946 l 219 993 z "},"Ä":{"ha":765,"x_min":21,"x_max":744,"o":"m 21 0 m 549 194 l 217 194 l 160 0 l 21 0 l 278 868 l 488 868 l 744 0 l 606 0 l 549 194 m 517 304 l 389 740 l 376 740 l 249 304 l 517 304 m 257 972 q 199 989 213 972 q 185 1051 185 1006 q 199 1115 185 1097 q 257 1132 213 1132 q 314 1115 300 1132 q 328 1051 328 1097 q 314 989 328 1006 q 257 972 300 972 m 511 972 q 453 989 467 972 q 439 1051 439 1006 q 453 1115 439 1097 q 511 1132 467 1132 q 568 1115 554 1132 q 582 1051 582 1097 q 568 989 582 1006 q 511 972 554 972 z "},"À":{"ha":765,"x_min":21,"x_max":744,"o":"m 21 0 m 549 194 l 217 194 l 160 0 l 21 0 l 278 868 l 488 868 l 744 0 l 606 0 l 549 194 m 517 304 l 389 740 l 376 740 l 249 304 l 517 304 m 310 992 q 279 1006 290 997 l 242 1036 q 232 1051 232 1044 q 242 1068 232 1057 l 301 1142 q 313 1149 307 1149 q 324 1143 317 1149 l 535 990 l 504 943 l 310 992 z "},"Ā":{"ha":765,"x_min":21,"x_max":744,"o":"m 21 0 m 549 194 l 217 194 l 160 0 l 21 0 l 278 868 l 488 868 l 744 0 l 606 0 l 549 194 m 517 304 l 389 740 l 376 740 l 249 304 l 517 304 m 276 988 q 225 1001 236 988 q 214 1051 214 1014 l 214 1100 l 490 1100 q 541 1088 531 1100 q 551 1038 551 1075 l 551 988 l 276 988 z "},"Ą":{"ha":765,"x_min":21,"x_max":778,"o":"m 778 -215 q 672 -239 724 -239 q 580 -206 614 -239 q 546 -115 546 -172 q 567 -51 546 -81 q 625 0 588 -21 l 606 0 l 549 194 l 217 194 l 160 0 l 21 0 l 278 868 l 488 868 l 744 0 l 717 -6 q 667 -28 679 -15 q 656 -72 656 -40 l 656 -101 q 696 -149 656 -149 l 767 -149 l 778 -215 m 517 304 l 389 740 l 376 740 l 249 304 l 517 304 z "},"Å":{"ha":765,"x_min":21,"x_max":744,"o":"m 21 0 m 549 194 l 217 194 l 160 0 l 21 0 l 278 868 l 488 868 l 744 0 l 606 0 l 549 194 m 517 304 l 389 740 l 376 740 l 249 304 l 517 304 m 383 922 q 278 956 311 922 q 246 1060 246 990 q 278 1163 246 1129 q 383 1196 311 1196 q 488 1163 456 1196 q 519 1060 519 1129 q 488 956 519 990 q 383 922 456 922 m 382 994 q 426 1001 413 994 q 440 1031 440 1007 l 440 1124 l 386 1124 q 338 1117 353 1124 q 324 1089 324 1111 l 324 994 l 382 994 z "},"Ǻ":{"ha":765,"x_min":21,"x_max":744,"o":"m 21 0 m 549 194 l 217 194 l 160 0 l 21 0 l 278 868 l 488 868 l 744 0 l 606 0 l 549 194 m 517 304 l 389 740 l 376 740 l 249 304 l 517 304 m 383 922 q 278 956 311 922 q 246 1060 246 990 q 278 1163 246 1129 q 383 1196 311 1196 q 488 1163 456 1196 q 519 1060 519 1129 q 488 956 519 990 q 383 922 456 922 m 382 994 q 426 1001 413 994 q 440 1031 440 1007 l 440 1124 l 386 1124 q 338 1117 353 1124 q 324 1089 324 1111 l 324 994 l 382 994 m 265 1304 l 476 1457 q 488 1463 483 1463 q 499 1456 493 1463 l 558 1382 q 568 1365 568 1371 q 558 1350 568 1358 l 521 1319 q 490 1306 510 1311 l 296 1257 l 265 1304 z "},"Ã":{"ha":765,"x_min":21,"x_max":744,"o":"m 21 0 m 549 194 l 217 194 l 160 0 l 21 0 l 278 868 l 488 868 l 744 0 l 606 0 l 549 194 m 517 304 l 389 740 l 376 740 l 249 304 l 517 304 m 413 957 q 376 967 393 957 q 315 1017 358 978 l 224 971 l 185 1035 q 298 1113 264 1093 q 354 1132 332 1132 q 389 1122 372 1132 q 451 1072 406 1113 l 543 1118 l 582 1054 q 473 978 510 999 q 413 957 436 957 z "},"Æ":{"ha":1053,"x_min":21,"x_max":983,"o":"m 246 868 l 914 868 l 893 743 l 540 743 l 607 488 l 856 488 l 856 369 l 638 369 l 700 125 l 983 125 l 983 0 l 586 0 l 539 190 l 214 190 l 168 0 l 21 0 l 246 868 m 508 315 l 406 740 l 349 740 l 244 315 l 508 315 z "},"Ǽ":{"ha":1053,"x_min":21,"x_max":983,"o":"m 21 0 m 246 868 l 914 868 l 893 743 l 540 743 l 607 488 l 856 488 l 856 369 l 638 369 l 700 125 l 983 125 l 983 0 l 586 0 l 539 190 l 214 190 l 168 0 l 21 0 l 246 868 m 508 315 l 406 740 l 349 740 l 244 315 l 508 315 m 408 1004 l 619 1157 q 631 1163 626 1163 q 642 1156 636 1163 l 701 1082 q 711 1065 711 1071 q 701 1050 711 1058 l 664 1019 q 633 1006 653 1011 l 439 957 l 408 1004 z "},"B":{"ha":808,"x_min":125,"x_max":739,"o":"m 611 439 q 706 367 672 418 q 739 244 739 317 q 678 63 739 126 q 503 0 618 0 l 125 0 l 125 868 l 458 868 q 638 816 581 868 q 696 653 696 764 q 676 526 696 575 q 611 447 656 478 l 611 439 m 557 625 q 533 736 557 706 q 447 767 510 767 l 264 767 l 264 486 l 446 486 q 533 517 508 486 q 557 625 557 547 m 483 101 q 573 137 546 101 q 600 253 600 172 q 574 358 600 326 q 485 389 547 389 l 264 389 l 264 101 l 483 101 z "},"C":{"ha":679,"x_min":90,"x_max":644,"o":"m 644 15 q 539 -12 594 -4 q 408 -21 483 -21 q 210 19 276 -21 q 117 153 143 58 q 90 433 90 249 q 117 715 90 619 q 215 850 144 811 q 422 889 285 889 q 530 881 469 889 q 626 860 590 872 l 608 746 q 496 764 560 757 q 392 771 432 771 q 273 750 307 771 q 239 665 239 729 l 239 115 q 404 94 310 94 q 631 129 513 94 l 644 15 z "},"Ć":{"ha":679,"x_min":90,"x_max":644,"o":"m 90 0 m 644 15 q 539 -12 594 -4 q 408 -21 483 -21 q 210 19 276 -21 q 117 153 143 58 q 90 433 90 249 q 117 715 90 619 q 215 850 144 811 q 422 889 285 889 q 530 881 469 889 q 626 860 590 872 l 608 746 q 496 764 560 757 q 392 771 432 771 q 273 750 307 771 q 239 665 239 729 l 239 115 q 404 94 310 94 q 631 129 513 94 l 644 15 m 278 1004 l 489 1157 q 500 1163 496 1163 q 511 1156 506 1163 l 571 1082 q 581 1065 581 1071 q 571 1050 581 1058 l 533 1019 q 503 1006 522 1011 l 308 957 l 278 1004 z "},"Č":{"ha":679,"x_min":90,"x_max":644,"o":"m 90 0 m 644 15 q 539 -12 594 -4 q 408 -21 483 -21 q 210 19 276 -21 q 117 153 143 58 q 90 433 90 249 q 117 715 90 619 q 215 850 144 811 q 422 889 285 889 q 530 881 469 889 q 626 860 590 872 l 608 746 q 496 764 560 757 q 392 771 432 771 q 273 750 307 771 q 239 665 239 729 l 239 115 q 404 94 310 94 q 631 129 513 94 l 644 15 m 396 1074 l 511 1163 l 560 1115 l 422 954 q 408 946 415 946 l 383 946 q 369 954 376 946 l 232 1115 l 281 1163 l 396 1074 z "},"Ç":{"ha":679,"x_min":90,"x_max":644,"o":"m 644 15 q 543 -11 596 -3 q 419 -21 490 -19 q 450 -126 450 -67 q 414 -208 450 -178 q 317 -239 378 -239 q 222 -217 271 -239 l 232 -149 l 281 -149 q 327 -139 314 -149 q 340 -104 340 -129 l 340 -18 q 185 36 239 -8 q 111 173 132 81 q 90 433 90 265 q 117 715 90 619 q 215 850 144 811 q 422 889 285 889 q 530 881 469 889 q 626 860 590 872 l 608 746 q 496 764 560 757 q 392 771 432 771 q 273 750 307 771 q 239 665 239 729 l 239 115 q 404 94 310 94 q 631 129 513 94 l 644 15 z "},"Ĉ":{"ha":679,"x_min":90,"x_max":644,"o":"m 90 0 m 644 15 q 539 -12 594 -4 q 408 -21 483 -21 q 210 19 276 -21 q 117 153 143 58 q 90 433 90 249 q 117 715 90 619 q 215 850 144 811 q 422 889 285 889 q 530 881 469 889 q 626 860 590 872 l 608 746 q 496 764 560 757 q 392 771 432 771 q 273 750 307 771 q 239 665 239 729 l 239 115 q 404 94 310 94 q 631 129 513 94 l 644 15 m 232 993 l 369 1154 q 383 1163 376 1163 l 408 1163 q 422 1154 415 1163 l 560 993 l 511 946 l 396 1035 l 281 946 l 232 993 z "},"Ċ":{"ha":679,"x_min":90,"x_max":644,"o":"m 90 0 m 644 15 q 539 -12 594 -4 q 408 -21 483 -21 q 210 19 276 -21 q 117 153 143 58 q 90 433 90 249 q 117 715 90 619 q 215 850 144 811 q 422 889 285 889 q 530 881 469 889 q 626 860 590 872 l 608 746 q 496 764 560 757 q 392 771 432 771 q 273 750 307 771 q 239 665 239 729 l 239 115 q 404 94 310 94 q 631 129 513 94 l 644 15 m 397 989 q 328 1006 346 989 q 311 1072 311 1024 q 329 1140 311 1122 q 397 1158 347 1158 q 463 1140 446 1158 q 481 1072 481 1122 q 464 1006 481 1024 q 397 989 447 989 z "},"D":{"ha":867,"x_min":125,"x_max":776,"o":"m 436 868 q 653 834 582 868 q 750 710 724 800 q 776 433 776 621 q 750 158 776 247 q 653 34 724 68 q 436 0 582 0 l 125 0 l 125 868 l 436 868 m 264 115 l 518 115 q 603 138 579 115 q 626 217 626 160 l 626 651 q 603 731 626 708 q 518 753 579 753 l 264 753 l 264 115 z "},"Ð":{"ha":867,"x_min":39,"x_max":776,"o":"m 436 868 q 653 834 582 868 q 750 710 724 800 q 776 433 776 621 q 750 158 776 247 q 653 34 724 68 q 436 0 582 0 l 125 0 l 125 386 l 39 386 l 39 425 q 50 472 39 460 q 96 483 61 483 l 125 483 l 125 868 l 436 868 m 626 651 q 603 731 626 708 q 518 753 579 753 l 264 753 l 264 483 l 406 483 l 406 443 q 395 397 406 408 q 349 386 385 386 l 264 386 l 264 115 l 518 115 q 603 138 579 115 q 626 217 626 160 l 626 651 z "},"Ď":{"ha":867,"x_min":125,"x_max":776,"o":"m 125 0 m 436 868 q 653 834 582 868 q 750 710 724 800 q 776 433 776 621 q 750 158 776 247 q 653 34 724 68 q 436 0 582 0 l 125 0 l 125 868 l 436 868 m 264 115 l 518 115 q 603 138 579 115 q 626 217 626 160 l 626 651 q 603 731 626 708 q 518 753 579 753 l 264 753 l 264 115 m 433 1074 l 549 1163 l 597 1115 l 460 954 q 446 946 453 946 l 421 946 q 407 954 414 946 l 269 1115 l 318 1163 l 433 1074 z "},"Đ":{"ha":867,"x_min":39,"x_max":776,"o":"m 39 0 m 436 868 q 653 834 582 868 q 750 710 724 800 q 776 433 776 621 q 750 158 776 247 q 653 34 724 68 q 436 0 582 0 l 125 0 l 125 386 l 39 386 l 39 425 q 50 472 39 460 q 96 483 61 483 l 125 483 l 125 868 l 436 868 m 626 651 q 603 731 626 708 q 518 753 579 753 l 264 753 l 264 483 l 406 483 l 406 443 q 395 397 406 408 q 349 386 385 386 l 264 386 l 264 115 l 518 115 q 603 138 579 115 q 626 217 626 160 l 626 651 z "},"E":{"ha":715,"x_min":125,"x_max":646,"o":"m 264 115 l 646 115 l 646 0 l 125 0 l 125 868 l 642 868 l 625 753 l 264 753 l 264 489 l 593 489 l 593 379 l 264 379 l 264 115 z "},"É":{"ha":715,"x_min":125,"x_max":646,"o":"m 125 0 m 264 115 l 646 115 l 646 0 l 125 0 l 125 868 l 642 868 l 625 753 l 264 753 l 264 489 l 593 489 l 593 379 l 264 379 l 264 115 m 272 1004 l 483 1157 q 494 1163 490 1163 q 506 1156 500 1163 l 565 1082 q 575 1065 575 1071 q 565 1050 575 1058 l 528 1019 q 497 1006 517 1011 l 303 957 l 272 1004 z "},"Ĕ":{"ha":715,"x_min":125,"x_max":646,"o":"m 125 0 m 264 115 l 646 115 l 646 0 l 125 0 l 125 868 l 642 868 l 625 753 l 264 753 l 264 489 l 593 489 l 593 379 l 264 379 l 264 115 m 390 961 q 226 1111 258 961 l 317 1126 q 346 1079 325 1096 q 390 1063 367 1063 q 435 1079 414 1063 q 464 1126 456 1096 l 554 1111 q 493 999 536 1036 q 390 961 450 961 z "},"Ě":{"ha":715,"x_min":125,"x_max":646,"o":"m 125 0 m 264 115 l 646 115 l 646 0 l 125 0 l 125 868 l 642 868 l 625 753 l 264 753 l 264 489 l 593 489 l 593 379 l 264 379 l 264 115 m 390 1074 l 506 1163 l 554 1115 l 417 954 q 403 946 410 946 l 378 946 q 364 954 371 946 l 226 1115 l 275 1163 l 390 1074 z "},"Ê":{"ha":715,"x_min":125,"x_max":646,"o":"m 125 0 m 264 115 l 646 115 l 646 0 l 125 0 l 125 868 l 642 868 l 625 753 l 264 753 l 264 489 l 593 489 l 593 379 l 264 379 l 264 115 m 226 993 l 364 1154 q 378 1163 371 1163 l 403 1163 q 417 1154 410 1163 l 554 993 l 506 946 l 390 1035 l 275 946 l 226 993 z "},"Ë":{"ha":715,"x_min":125,"x_max":646,"o":"m 125 0 m 264 115 l 646 115 l 646 0 l 125 0 l 125 868 l 642 868 l 625 753 l 264 753 l 264 489 l 593 489 l 593 379 l 264 379 l 264 115 m 264 972 q 206 989 219 972 q 192 1051 192 1006 q 206 1115 192 1097 q 264 1132 219 1132 q 321 1115 307 1132 q 335 1051 335 1097 q 321 989 335 1006 q 264 972 307 972 m 518 972 q 460 989 474 972 q 446 1051 446 1006 q 460 1115 446 1097 q 518 1132 474 1132 q 575 1115 561 1132 q 589 1051 589 1097 q 575 989 589 1006 q 518 972 561 972 z "},"Ė":{"ha":715,"x_min":125,"x_max":646,"o":"m 125 0 m 264 115 l 646 115 l 646 0 l 125 0 l 125 868 l 642 868 l 625 753 l 264 753 l 264 489 l 593 489 l 593 379 l 264 379 l 264 115 m 392 989 q 323 1006 340 989 q 306 1072 306 1024 q 324 1140 306 1122 q 392 1158 342 1158 q 458 1140 440 1158 q 475 1072 475 1122 q 458 1006 475 1024 q 392 989 442 989 z "},"È":{"ha":715,"x_min":125,"x_max":646,"o":"m 125 0 m 264 115 l 646 115 l 646 0 l 125 0 l 125 868 l 642 868 l 625 753 l 264 753 l 264 489 l 593 489 l 593 379 l 264 379 l 264 115 m 317 992 q 286 1006 297 997 l 249 1036 q 239 1051 239 1044 q 249 1068 239 1057 l 308 1142 q 319 1149 314 1149 q 331 1143 324 1149 l 542 990 l 511 943 l 317 992 z "},"Ē":{"ha":715,"x_min":125,"x_max":646,"o":"m 125 0 m 264 115 l 646 115 l 646 0 l 125 0 l 125 868 l 642 868 l 625 753 l 264 753 l 264 489 l 593 489 l 593 379 l 264 379 l 264 115 m 283 988 q 232 1001 243 988 q 221 1051 221 1014 l 221 1100 l 497 1100 q 548 1088 538 1100 q 558 1038 558 1075 l 558 988 l 283 988 z "},"Ę":{"ha":715,"x_min":125,"x_max":679,"o":"m 679 -215 q 574 -239 625 -239 q 481 -206 515 -239 q 447 -115 447 -172 q 468 -51 447 -81 q 526 0 489 -21 l 125 0 l 125 868 l 642 868 l 625 753 l 264 753 l 264 489 l 593 489 l 593 379 l 264 379 l 264 115 l 646 115 l 646 0 l 618 -6 q 569 -28 581 -15 q 557 -72 557 -40 l 557 -101 q 597 -149 557 -149 l 668 -149 l 679 -215 z "},"F":{"ha":625,"x_min":125,"x_max":597,"o":"m 264 0 l 125 0 l 125 868 l 597 868 l 582 753 l 264 753 l 264 471 l 542 471 l 542 361 l 264 361 l 264 0 z "},"G":{"ha":792,"x_min":90,"x_max":701,"o":"m 701 478 l 701 28 q 560 -10 633 1 q 386 -21 488 -21 q 199 14 260 -21 q 114 143 138 49 q 90 433 90 238 q 118 715 90 619 q 217 850 146 811 q 431 889 289 889 q 555 881 485 889 q 668 860 625 872 l 650 746 q 519 764 594 757 q 396 771 443 771 q 272 751 307 771 q 238 665 238 731 l 238 90 l 578 90 l 578 368 l 446 368 l 446 478 l 701 478 z "},"Ğ":{"ha":792,"x_min":90,"x_max":701,"o":"m 90 0 m 701 478 l 701 28 q 560 -10 633 1 q 386 -21 488 -21 q 199 14 260 -21 q 114 143 138 49 q 90 433 90 238 q 118 715 90 619 q 217 850 146 811 q 431 889 289 889 q 555 881 485 889 q 668 860 625 872 l 650 746 q 519 764 594 757 q 396 771 443 771 q 272 751 307 771 q 238 665 238 731 l 238 90 l 578 90 l 578 368 l 446 368 l 446 478 l 701 478 m 435 961 q 271 1111 303 961 l 361 1126 q 390 1079 369 1096 q 435 1063 411 1063 q 479 1079 458 1063 q 508 1126 500 1096 l 599 1111 q 538 999 581 1036 q 435 961 494 961 z "},"Ĝ":{"ha":792,"x_min":90,"x_max":701,"o":"m 90 0 m 701 478 l 701 28 q 560 -10 633 1 q 386 -21 488 -21 q 199 14 260 -21 q 114 143 138 49 q 90 433 90 238 q 118 715 90 619 q 217 850 146 811 q 431 889 289 889 q 555 881 485 889 q 668 860 625 872 l 650 746 q 519 764 594 757 q 396 771 443 771 q 272 751 307 771 q 238 665 238 731 l 238 90 l 578 90 l 578 368 l 446 368 l 446 478 l 701 478 m 271 993 l 408 1154 q 422 1163 415 1163 l 447 1163 q 461 1154 454 1163 l 599 993 l 550 946 l 435 1035 l 319 946 l 271 993 z "},"Ģ":{"ha":792,"x_min":90,"x_max":701,"o":"m 90 0 m 701 478 l 701 28 q 560 -10 633 1 q 386 -21 488 -21 q 199 14 260 -21 q 114 143 138 49 q 90 433 90 238 q 118 715 90 619 q 217 850 146 811 q 431 889 289 889 q 555 881 485 889 q 668 860 625 872 l 650 746 q 519 764 594 757 q 396 771 443 771 q 272 751 307 771 q 238 665 238 731 l 238 90 l 578 90 l 578 368 l 446 368 l 446 478 l 701 478 m 354 -379 l 383 -243 q 329 -219 346 -239 q 313 -151 313 -199 q 334 -77 313 -99 q 407 -56 356 -56 q 480 -77 458 -56 q 501 -151 501 -99 q 492 -227 501 -197 q 457 -308 482 -257 l 414 -397 l 354 -379 z "},"Ġ":{"ha":792,"x_min":90,"x_max":701,"o":"m 90 0 m 701 478 l 701 28 q 560 -10 633 1 q 386 -21 488 -21 q 199 14 260 -21 q 114 143 138 49 q 90 433 90 238 q 118 715 90 619 q 217 850 146 811 q 431 889 289 889 q 555 881 485 889 q 668 860 625 872 l 650 746 q 519 764 594 757 q 396 771 443 771 q 272 751 307 771 q 238 665 238 731 l 238 90 l 578 90 l 578 368 l 446 368 l 446 478 l 701 478 m 436 989 q 367 1006 385 989 q 350 1072 350 1024 q 368 1140 350 1122 q 436 1158 386 1158 q 502 1140 485 1158 q 519 1072 519 1122 q 503 1006 519 1024 q 436 989 486 989 z "},"H":{"ha":889,"x_min":125,"x_max":764,"o":"m 764 868 l 764 0 l 625 0 l 625 375 l 264 375 l 264 0 l 125 0 l 125 868 l 264 868 l 264 485 l 625 485 l 625 868 l 764 868 z "},"Ħ":{"ha":889,"x_min":39,"x_max":850,"o":"m 850 719 l 850 679 q 840 633 850 644 q 793 622 829 622 l 764 622 l 764 0 l 625 0 l 625 375 l 264 375 l 264 0 l 125 0 l 125 622 l 39 622 l 39 661 q 50 708 39 696 q 96 719 61 719 l 125 719 l 125 868 l 264 868 l 264 719 l 625 719 l 625 868 l 764 868 l 764 719 l 850 719 m 625 622 l 264 622 l 264 485 l 625 485 l 625 622 z "},"Ĥ":{"ha":889,"x_min":125,"x_max":764,"o":"m 125 0 m 764 868 l 764 0 l 625 0 l 625 375 l 264 375 l 264 0 l 125 0 l 125 868 l 264 868 l 264 485 l 625 485 l 625 868 l 764 868 m 281 993 l 418 1154 q 432 1163 425 1163 l 457 1163 q 471 1154 464 1163 l 608 993 l 560 946 l 444 1035 l 329 946 l 281 993 z "},"I":{"ha":389,"x_min":125,"x_max":264,"o":"m 264 868 l 264 0 l 125 0 l 125 868 l 264 868 z "},"Ĳ":{"ha":876,"x_min":125,"x_max":751,"o":"m 125 0 m 264 868 l 264 0 l 125 0 l 125 868 l 264 868 m 546 111 q 596 119 579 111 q 613 153 613 126 l 613 753 l 474 753 l 474 868 l 751 868 l 751 188 q 699 40 751 81 q 536 0 647 0 l 433 0 l 417 111 l 546 111 z "},"Í":{"ha":389,"x_min":76,"x_max":379,"o":"m 76 0 m 264 868 l 264 0 l 125 0 l 125 868 l 264 868 m 76 1004 l 288 1157 q 299 1163 294 1163 q 310 1156 304 1163 l 369 1082 q 379 1065 379 1071 q 369 1050 379 1058 l 332 1019 q 301 1006 321 1011 l 107 957 l 76 1004 z "},"Ĭ":{"ha":389,"x_min":31,"x_max":358,"o":"m 31 0 m 264 868 l 264 0 l 125 0 l 125 868 l 264 868 m 194 961 q 31 1111 63 961 l 121 1126 q 150 1079 129 1096 q 194 1063 171 1063 q 239 1079 218 1063 q 268 1126 260 1096 l 358 1111 q 297 999 340 1036 q 194 961 254 961 z "},"Î":{"ha":389,"x_min":31,"x_max":358,"o":"m 31 0 m 264 868 l 264 0 l 125 0 l 125 868 l 264 868 m 31 993 l 168 1154 q 182 1163 175 1163 l 207 1163 q 221 1154 214 1163 l 358 993 l 310 946 l 194 1035 l 79 946 l 31 993 z "},"Ï":{"ha":389,"x_min":-4,"x_max":393,"o":"m 0 0 m 264 868 l 264 0 l 125 0 l 125 868 l 264 868 m 68 972 q 10 989 24 972 q -4 1051 -4 1006 q 10 1115 -4 1097 q 68 1132 24 1132 q 125 1115 111 1132 q 139 1051 139 1097 q 125 989 139 1006 q 68 972 111 972 m 322 972 q 264 989 278 972 q 250 1051 250 1006 q 264 1115 250 1097 q 322 1132 278 1132 q 379 1115 365 1132 q 393 1051 393 1097 q 379 989 393 1006 q 322 972 365 972 z "},"İ":{"ha":389,"x_min":110,"x_max":279,"o":"m 110 0 m 264 868 l 264 0 l 125 0 l 125 868 l 264 868 m 196 989 q 127 1006 144 989 q 110 1072 110 1024 q 128 1140 110 1122 q 196 1158 146 1158 q 262 1140 244 1158 q 279 1072 279 1122 q 263 1006 279 1024 q 196 989 246 989 z "},"Ì":{"ha":389,"x_min":43,"x_max":346,"o":"m 43 0 m 264 868 l 264 0 l 125 0 l 125 868 l 264 868 m 121 992 q 90 1006 101 997 l 53 1036 q 43 1051 43 1044 q 53 1068 43 1057 l 113 1142 q 124 1149 118 1149 q 135 1143 128 1149 l 346 990 l 315 943 l 121 992 z "},"Ī":{"ha":389,"x_min":25,"x_max":363,"o":"m 25 0 m 264 868 l 264 0 l 125 0 l 125 868 l 264 868 m 88 988 q 36 1001 47 988 q 25 1051 25 1014 l 25 1100 l 301 1100 q 352 1088 342 1100 q 363 1038 363 1075 l 363 988 l 88 988 z "},"Į":{"ha":389,"x_min":65,"x_max":297,"o":"m 297 -215 q 192 -239 243 -239 q 99 -206 133 -239 q 65 -115 65 -172 q 86 -51 65 -81 q 144 0 107 -21 l 125 0 l 125 868 l 264 868 l 264 0 l 236 -6 q 187 -28 199 -15 q 175 -72 175 -40 l 175 -101 q 215 -149 175 -149 l 286 -149 l 297 -215 z "},"Ĩ":{"ha":389,"x_min":-4,"x_max":393,"o":"m 0 0 m 264 868 l 264 0 l 125 0 l 125 868 l 264 868 m 224 957 q 187 967 204 957 q 126 1017 169 978 l 35 971 l -4 1035 q 109 1113 75 1093 q 165 1132 143 1132 q 200 1122 183 1132 q 263 1072 217 1113 l 354 1118 l 393 1054 q 284 978 321 999 q 224 957 247 957 z "},"J":{"ha":488,"x_min":28,"x_max":363,"o":"m 157 111 q 207 119 190 111 q 224 153 224 126 l 224 753 l 85 753 l 85 868 l 363 868 l 363 188 q 310 40 363 81 q 147 0 258 0 l 44 0 l 28 111 l 157 111 z "},"Ĵ":{"ha":488,"x_min":28,"x_max":408,"o":"m 28 0 m 157 111 q 207 119 190 111 q 224 153 224 126 l 224 753 l 85 753 l 85 868 l 363 868 l 363 188 q 310 40 363 81 q 147 0 258 0 l 44 0 l 28 111 l 157 111 m 81 993 l 218 1154 q 232 1163 225 1163 l 257 1163 q 271 1154 264 1163 l 408 993 l 360 946 l 244 1035 l 129 946 l 81 993 z "},"K":{"ha":768,"x_min":125,"x_max":754,"o":"m 754 0 l 600 0 l 499 215 q 458 310 472 269 q 443 392 443 351 l 264 392 l 264 0 l 125 0 l 125 868 l 264 868 l 264 500 l 443 500 q 458 584 443 542 q 499 676 472 626 l 593 868 l 747 868 l 539 446 l 754 0 z "},"Ķ":{"ha":768,"x_min":125,"x_max":754,"o":"m 125 0 m 754 0 l 600 0 l 499 215 q 458 310 472 269 q 443 392 443 351 l 264 392 l 264 0 l 125 0 l 125 868 l 264 868 l 264 500 l 443 500 q 458 584 443 542 q 499 676 472 626 l 593 868 l 747 868 l 539 446 l 754 0 m 360 -379 l 389 -243 q 335 -219 351 -239 q 318 -151 318 -199 q 340 -77 318 -99 q 413 -56 361 -56 q 485 -77 464 -56 q 507 -151 507 -99 q 497 -227 507 -197 q 463 -308 488 -257 l 419 -397 l 360 -379 z "},"L":{"ha":597,"x_min":125,"x_max":583,"o":"m 125 868 l 264 868 l 264 115 l 583 115 l 583 0 l 125 0 l 125 868 z "},"Ĺ":{"ha":597,"x_min":76,"x_max":583,"o":"m 76 0 m 125 868 l 264 868 l 264 115 l 583 115 l 583 0 l 125 0 l 125 868 m 76 1004 l 288 1157 q 299 1163 294 1163 q 310 1156 304 1163 l 369 1082 q 379 1065 379 1071 q 369 1050 379 1058 l 332 1019 q 301 1006 321 1011 l 107 957 l 76 1004 z "},"Ľ":{"ha":597,"x_min":125,"x_max":583,"o":"m 125 0 m 125 868 l 264 868 l 264 115 l 583 115 l 583 0 l 125 0 l 125 868 m 294 -379 l 324 -243 q 269 -219 286 -239 q 253 -151 253 -199 q 274 -77 253 -99 q 347 -56 296 -56 q 420 -77 399 -56 q 442 -151 442 -99 q 432 -227 442 -197 q 397 -308 422 -257 l 354 -397 l 294 -379 z "},"Ļ":{"ha":597,"x_min":125,"x_max":583,"o":"m 125 0 m 125 868 l 264 868 l 264 115 l 583 115 l 583 0 l 125 0 l 125 868 m 294 -379 l 324 -243 q 269 -219 286 -239 q 253 -151 253 -199 q 274 -77 253 -99 q 347 -56 296 -56 q 420 -77 399 -56 q 442 -151 442 -99 q 432 -227 442 -197 q 397 -308 422 -257 l 354 -397 l 294 -379 z "},"Ŀ":{"ha":597,"x_min":125,"x_max":583,"o":"m 125 868 l 264 868 l 264 115 l 583 115 l 583 0 l 125 0 l 125 868 m 393 463 q 408 522 393 504 q 465 539 422 539 q 522 522 507 539 q 538 463 538 504 q 523 403 538 421 q 465 386 508 386 q 408 403 422 386 q 393 463 393 419 z "},"Ł":{"ha":597,"x_min":19,"x_max":583,"o":"m 583 115 l 583 0 l 125 0 l 125 386 l 40 358 l 28 396 q 19 436 19 421 q 43 465 19 457 l 125 493 l 125 868 l 264 868 l 264 539 l 349 567 l 361 529 q 369 489 369 504 q 346 460 369 468 l 264 432 l 264 115 l 583 115 z "},"M":{"ha":1104,"x_min":104,"x_max":1000,"o":"m 163 868 l 354 868 l 547 218 l 557 218 l 750 868 l 942 868 l 1000 0 l 863 0 l 818 685 l 810 685 l 608 0 l 496 0 l 294 685 l 286 685 l 242 0 l 104 0 l 163 868 z "},"N":{"ha":918,"x_min":132,"x_max":786,"o":"m 132 868 l 267 868 l 603 326 q 631 276 624 290 q 639 240 638 261 l 647 240 l 647 868 l 786 868 l 786 0 l 651 0 l 315 542 q 288 592 294 578 q 279 628 281 607 l 271 628 l 271 0 l 132 0 l 132 868 z "},"Ń":{"ha":918,"x_min":132,"x_max":786,"o":"m 132 0 m 132 868 l 267 868 l 603 326 q 631 276 624 290 q 639 240 638 261 l 647 240 l 647 868 l 786 868 l 786 0 l 651 0 l 315 542 q 288 592 294 578 q 279 628 281 607 l 271 628 l 271 0 l 132 0 l 132 868 m 356 1004 l 567 1157 q 578 1163 574 1163 q 589 1156 583 1163 l 649 1082 q 658 1065 658 1071 q 649 1050 658 1058 l 611 1019 q 581 1006 600 1011 l 386 957 l 356 1004 z "},"Ň":{"ha":918,"x_min":132,"x_max":786,"o":"m 132 0 m 132 868 l 267 868 l 603 326 q 631 276 624 290 q 639 240 638 261 l 647 240 l 647 868 l 786 868 l 786 0 l 651 0 l 315 542 q 288 592 294 578 q 279 628 281 607 l 271 628 l 271 0 l 132 0 l 132 868 m 474 1074 l 589 1163 l 638 1115 l 500 954 q 486 946 493 946 l 461 946 q 447 954 454 946 l 310 1115 l 358 1163 l 474 1074 z "},"Ņ":{"ha":918,"x_min":132,"x_max":786,"o":"m 132 0 m 132 868 l 267 868 l 603 326 q 631 276 624 290 q 639 240 638 261 l 647 240 l 647 868 l 786 868 l 786 0 l 651 0 l 315 542 q 288 592 294 578 q 279 628 281 607 l 271 628 l 271 0 l 132 0 l 132 868 m 407 -379 l 436 -243 q 382 -219 399 -239 q 365 -151 365 -199 q 387 -77 365 -99 q 460 -56 408 -56 q 533 -77 511 -56 q 554 -151 554 -99 q 544 -227 554 -197 q 510 -308 535 -257 l 467 -397 l 407 -379 z "},"Ŋ":{"ha":918,"x_min":132,"x_max":786,"o":"m 786 868 l 786 -83 q 744 -204 786 -165 q 614 -243 703 -243 q 507 -228 553 -243 l 515 -147 q 601 -141 574 -147 q 638 -117 628 -135 q 647 -62 647 -100 l 647 7 l 315 542 q 288 592 294 578 q 279 628 281 607 l 271 628 l 271 0 l 132 0 l 132 868 l 267 868 l 603 326 q 631 276 624 290 q 639 240 638 261 l 647 240 l 647 868 l 786 868 z "},"Ñ":{"ha":918,"x_min":132,"x_max":786,"o":"m 132 0 m 132 868 l 267 868 l 603 326 q 631 276 624 290 q 639 240 638 261 l 647 240 l 647 868 l 786 868 l 786 0 l 651 0 l 315 542 q 288 592 294 578 q 279 628 281 607 l 271 628 l 271 0 l 132 0 l 132 868 m 503 957 q 466 967 483 957 q 406 1017 449 978 l 314 971 l 275 1035 q 388 1113 354 1093 q 444 1132 422 1132 q 479 1122 463 1132 q 542 1072 496 1113 l 633 1118 l 672 1054 q 563 978 600 999 q 503 957 526 957 z "},"O":{"ha":883,"x_min":90,"x_max":793,"o":"m 90 433 q 118 724 90 629 q 218 853 146 818 q 442 889 290 889 q 665 853 592 889 q 765 722 738 817 q 793 433 793 628 q 765 144 793 239 q 665 15 738 50 q 442 -21 592 -21 q 218 15 290 -21 q 118 144 146 50 q 90 433 90 239 m 525 97 q 618 119 592 97 q 644 199 644 142 l 644 771 l 357 771 q 265 749 290 771 q 239 669 239 726 l 239 97 l 525 97 z "},"Ó":{"ha":883,"x_min":90,"x_max":793,"o":"m 90 0 m 90 433 q 118 724 90 629 q 218 853 146 818 q 442 889 290 889 q 665 853 592 889 q 765 722 738 817 q 793 433 793 628 q 765 144 793 239 q 665 15 738 50 q 442 -21 592 -21 q 218 15 290 -21 q 118 144 146 50 q 90 433 90 239 m 525 97 q 618 119 592 97 q 644 199 644 142 l 644 771 l 357 771 q 265 749 290 771 q 239 669 239 726 l 239 97 l 525 97 m 324 1004 l 535 1157 q 546 1163 542 1163 q 557 1156 551 1163 l 617 1082 q 626 1065 626 1071 q 617 1050 626 1058 l 579 1019 q 549 1006 568 1011 l 354 957 l 324 1004 z "},"Ŏ":{"ha":883,"x_min":90,"x_max":793,"o":"m 90 0 m 90 433 q 118 724 90 629 q 218 853 146 818 q 442 889 290 889 q 665 853 592 889 q 765 722 738 817 q 793 433 793 628 q 765 144 793 239 q 665 15 738 50 q 442 -21 592 -21 q 218 15 290 -21 q 118 144 146 50 q 90 433 90 239 m 525 97 q 618 119 592 97 q 644 199 644 142 l 644 771 l 357 771 q 265 749 290 771 q 239 669 239 726 l 239 97 l 525 97 m 442 961 q 278 1111 310 961 l 368 1126 q 397 1079 376 1096 q 442 1063 418 1063 q 486 1079 465 1063 q 515 1126 507 1096 l 606 1111 q 544 999 588 1036 q 442 961 501 961 z "},"Ô":{"ha":883,"x_min":90,"x_max":793,"o":"m 90 0 m 90 433 q 118 724 90 629 q 218 853 146 818 q 442 889 290 889 q 665 853 592 889 q 765 722 738 817 q 793 433 793 628 q 765 144 793 239 q 665 15 738 50 q 442 -21 592 -21 q 218 15 290 -21 q 118 144 146 50 q 90 433 90 239 m 525 97 q 618 119 592 97 q 644 199 644 142 l 644 771 l 357 771 q 265 749 290 771 q 239 669 239 726 l 239 97 l 525 97 m 278 993 l 415 1154 q 429 1163 422 1163 l 454 1163 q 468 1154 461 1163 l 606 993 l 557 946 l 442 1035 l 326 946 l 278 993 z "},"Ö":{"ha":883,"x_min":90,"x_max":793,"o":"m 90 0 m 90 433 q 118 724 90 629 q 218 853 146 818 q 442 889 290 889 q 665 853 592 889 q 765 722 738 817 q 793 433 793 628 q 765 144 793 239 q 665 15 738 50 q 442 -21 592 -21 q 218 15 290 -21 q 118 144 146 50 q 90 433 90 239 m 525 97 q 618 119 592 97 q 644 199 644 142 l 644 771 l 357 771 q 265 749 290 771 q 239 669 239 726 l 239 97 l 525 97 m 315 972 q 257 989 271 972 q 243 1051 243 1006 q 257 1115 243 1097 q 315 1132 271 1132 q 372 1115 358 1132 q 386 1051 386 1097 q 372 989 386 1006 q 315 972 358 972 m 569 972 q 511 989 525 972 q 497 1051 497 1006 q 511 1115 497 1097 q 569 1132 525 1132 q 626 1115 613 1132 q 640 1051 640 1097 q 626 989 640 1006 q 569 972 613 972 z "},"Ò":{"ha":883,"x_min":90,"x_max":793,"o":"m 90 0 m 90 433 q 118 724 90 629 q 218 853 146 818 q 442 889 290 889 q 665 853 592 889 q 765 722 738 817 q 793 433 793 628 q 765 144 793 239 q 665 15 738 50 q 442 -21 592 -21 q 218 15 290 -21 q 118 144 146 50 q 90 433 90 239 m 525 97 q 618 119 592 97 q 644 199 644 142 l 644 771 l 357 771 q 265 749 290 771 q 239 669 239 726 l 239 97 l 525 97 m 368 992 q 338 1006 349 997 l 300 1036 q 290 1051 290 1044 q 300 1068 290 1057 l 360 1142 q 371 1149 365 1149 q 382 1143 375 1149 l 593 990 l 563 943 l 368 992 z "},"Ő":{"ha":883,"x_min":90,"x_max":793,"o":"m 90 0 m 90 433 q 118 724 90 629 q 218 853 146 818 q 442 889 290 889 q 665 853 592 889 q 765 722 738 817 q 793 433 793 628 q 765 144 793 239 q 665 15 738 50 q 442 -21 592 -21 q 218 15 290 -21 q 118 144 146 50 q 90 433 90 239 m 525 97 q 618 119 592 97 q 644 199 644 142 l 644 771 l 357 771 q 265 749 290 771 q 239 669 239 726 l 239 97 l 525 97 m 178 1011 l 363 1157 q 374 1163 369 1163 q 385 1156 379 1163 l 446 1081 q 454 1065 454 1069 q 449 1054 454 1060 l 407 1019 q 376 1006 394 1010 l 208 964 l 178 1011 m 485 1011 l 669 1157 q 681 1163 676 1163 q 692 1156 686 1163 l 753 1081 q 761 1065 761 1069 q 756 1054 761 1060 l 714 1019 q 683 1006 701 1010 l 515 964 l 485 1011 z "},"Ō":{"ha":883,"x_min":90,"x_max":793,"o":"m 90 0 m 90 433 q 118 724 90 629 q 218 853 146 818 q 442 889 290 889 q 665 853 592 889 q 765 722 738 817 q 793 433 793 628 q 765 144 793 239 q 665 15 738 50 q 442 -21 592 -21 q 218 15 290 -21 q 118 144 146 50 q 90 433 90 239 m 525 97 q 618 119 592 97 q 644 199 644 142 l 644 771 l 357 771 q 265 749 290 771 q 239 669 239 726 l 239 97 l 525 97 m 335 988 q 283 1001 294 988 q 272 1051 272 1014 l 272 1100 l 549 1100 q 599 1088 589 1100 q 610 1038 610 1075 l 610 988 l 335 988 z "},"Ø":{"ha":883,"x_min":90,"x_max":793,"o":"m 668 851 q 767 718 740 813 q 793 433 793 624 q 765 144 793 239 q 665 15 738 50 q 442 -21 592 -21 q 289 -8 343 -21 l 264 -67 q 242 -97 254 -89 q 204 -104 229 -104 l 161 -104 l 214 17 q 138 93 165 43 q 101 224 111 143 q 90 433 90 304 q 118 724 90 629 q 218 853 146 818 q 442 889 290 889 q 594 876 539 889 l 619 935 q 642 965 629 957 q 679 974 656 974 l 722 974 l 668 851 m 250 97 l 547 771 l 357 771 q 265 749 290 771 q 239 669 239 726 l 239 97 l 250 97 m 644 771 l 633 771 l 336 97 l 525 97 q 618 119 592 97 q 644 199 644 142 l 644 771 z "},"Ǿ":{"ha":883,"x_min":90,"x_max":793,"o":"m 90 0 m 668 851 q 767 718 740 813 q 793 433 793 624 q 765 144 793 239 q 665 15 738 50 q 442 -21 592 -21 q 289 -8 343 -21 l 264 -67 q 242 -97 254 -89 q 204 -104 229 -104 l 161 -104 l 214 17 q 138 93 165 43 q 101 224 111 143 q 90 433 90 304 q 118 724 90 629 q 218 853 146 818 q 442 889 290 889 q 594 876 539 889 l 619 935 q 642 965 629 957 q 679 974 656 974 l 722 974 l 668 851 m 250 97 l 547 771 l 357 771 q 265 749 290 771 q 239 669 239 726 l 239 97 l 250 97 m 644 771 l 633 771 l 336 97 l 525 97 q 618 119 592 97 q 644 199 644 142 l 644 771 m 324 1004 l 535 1157 q 546 1163 542 1163 q 557 1156 551 1163 l 617 1082 q 626 1065 626 1071 q 617 1050 626 1058 l 579 1019 q 549 1006 568 1011 l 354 957 l 324 1004 z "},"Õ":{"ha":883,"x_min":90,"x_max":793,"o":"m 90 0 m 90 433 q 118 724 90 629 q 218 853 146 818 q 442 889 290 889 q 665 853 592 889 q 765 722 738 817 q 793 433 793 628 q 765 144 793 239 q 665 15 738 50 q 442 -21 592 -21 q 218 15 290 -21 q 118 144 146 50 q 90 433 90 239 m 525 97 q 618 119 592 97 q 644 199 644 142 l 644 771 l 357 771 q 265 749 290 771 q 239 669 239 726 l 239 97 l 525 97 m 471 957 q 434 967 451 957 q 374 1017 417 978 l 282 971 l 243 1035 q 356 1113 322 1093 q 413 1132 390 1132 q 447 1122 431 1132 q 510 1072 464 1113 l 601 1118 l 640 1054 q 531 978 568 999 q 471 957 494 957 z "},"Œ":{"ha":1235,"x_min":90,"x_max":1165,"o":"m 1165 115 l 1165 0 l 442 0 q 218 34 290 0 q 118 158 146 68 q 90 433 90 247 q 118 710 90 619 q 219 834 146 800 q 442 868 292 868 l 1161 868 l 1144 753 l 783 753 l 783 489 l 1113 489 l 1113 379 l 783 379 l 783 115 l 1165 115 m 644 753 l 357 753 q 265 731 290 753 q 239 651 239 708 l 239 115 l 525 115 q 618 138 592 115 q 644 217 644 160 l 644 753 z "},"P":{"ha":736,"x_min":125,"x_max":708,"o":"m 264 0 l 125 0 l 125 868 l 465 868 q 610 840 558 868 q 685 749 663 813 q 708 575 708 686 q 657 353 708 419 q 486 286 606 286 l 264 286 l 264 0 m 467 396 q 542 408 521 396 q 563 454 563 421 l 563 694 q 542 740 563 728 q 467 753 521 753 l 264 753 l 264 396 l 467 396 z "},"Þ":{"ha":736,"x_min":125,"x_max":708,"o":"m 465 725 q 610 697 558 725 q 685 606 663 669 q 708 432 708 543 q 657 210 708 276 q 486 143 606 143 l 264 143 l 264 0 l 125 0 l 125 868 l 264 868 l 264 725 l 465 725 m 563 557 q 542 603 563 590 q 467 615 521 615 l 264 615 l 264 253 l 467 253 q 542 265 521 253 q 563 311 563 278 l 563 557 z "},"Q":{"ha":869,"x_min":90,"x_max":789,"o":"m 789 -24 l 754 -100 l 514 -21 l 514 18 l 435 -21 q 216 15 288 -21 q 117 144 144 50 q 90 433 90 239 q 117 722 90 628 q 216 853 144 817 q 435 889 288 889 q 653 853 581 889 q 752 722 725 817 q 779 433 779 628 q 757 173 779 261 q 681 44 735 85 l 789 -24 m 514 97 q 604 119 579 97 q 629 199 629 142 l 629 771 l 354 771 q 265 749 290 771 q 240 669 240 726 l 240 97 l 514 97 z "},"R":{"ha":806,"x_min":125,"x_max":757,"o":"m 606 0 l 461 307 l 264 307 l 264 0 l 125 0 l 125 868 l 472 868 q 617 840 565 868 q 692 749 669 813 q 715 575 715 686 q 688 408 715 468 q 600 324 661 347 l 757 0 l 606 0 m 264 417 l 474 417 q 549 429 528 417 q 569 475 569 442 l 569 694 q 549 740 569 728 q 474 753 528 753 l 264 753 l 264 417 z "},"Ŕ":{"ha":806,"x_min":125,"x_max":757,"o":"m 125 0 m 606 0 l 461 307 l 264 307 l 264 0 l 125 0 l 125 868 l 472 868 q 617 840 565 868 q 692 749 669 813 q 715 575 715 686 q 688 408 715 468 q 600 324 661 347 l 757 0 l 606 0 m 264 417 l 474 417 q 549 429 528 417 q 569 475 569 442 l 569 694 q 549 740 569 728 q 474 753 528 753 l 264 753 l 264 417 m 299 1004 l 510 1157 q 521 1163 517 1163 q 532 1156 526 1163 l 592 1082 q 601 1065 601 1071 q 592 1050 601 1058 l 554 1019 q 524 1006 543 1011 l 329 957 l 299 1004 z "},"Ř":{"ha":806,"x_min":125,"x_max":757,"o":"m 125 0 m 606 0 l 461 307 l 264 307 l 264 0 l 125 0 l 125 868 l 472 868 q 617 840 565 868 q 692 749 669 813 q 715 575 715 686 q 688 408 715 468 q 600 324 661 347 l 757 0 l 606 0 m 264 417 l 474 417 q 549 429 528 417 q 569 475 569 442 l 569 694 q 549 740 569 728 q 474 753 528 753 l 264 753 l 264 417 m 417 1074 l 532 1163 l 581 1115 l 443 954 q 429 946 436 946 l 404 946 q 390 954 397 946 l 253 1115 l 301 1163 l 417 1074 z "},"Ŗ":{"ha":806,"x_min":125,"x_max":757,"o":"m 125 0 m 606 0 l 461 307 l 264 307 l 264 0 l 125 0 l 125 868 l 472 868 q 617 840 565 868 q 692 749 669 813 q 715 575 715 686 q 688 408 715 468 q 600 324 661 347 l 757 0 l 606 0 m 264 417 l 474 417 q 549 429 528 417 q 569 475 569 442 l 569 694 q 549 740 569 728 q 474 753 528 753 l 264 753 l 264 417 m 350 -379 l 379 -243 q 325 -219 342 -239 q 308 -151 308 -199 q 330 -77 308 -99 q 403 -56 351 -56 q 476 -77 454 -56 q 497 -151 497 -99 q 488 -227 497 -197 q 453 -308 478 -257 l 410 -397 l 350 -379 z "},"S":{"ha":721,"x_min":64,"x_max":665,"o":"m 85 126 q 215 103 140 113 q 357 94 289 94 q 514 103 428 94 l 514 361 l 382 371 q 190 403 254 381 q 101 476 126 426 q 75 618 75 525 q 101 777 75 718 q 184 863 126 836 q 339 889 242 889 q 619 863 479 889 l 601 753 q 347 774 490 774 q 226 767 276 774 l 226 506 l 381 496 q 553 463 492 489 q 640 384 614 438 q 665 236 665 331 q 635 83 665 139 q 535 3 604 28 q 344 -21 465 -21 q 64 13 197 -21 l 85 126 z "},"Ś":{"ha":721,"x_min":64,"x_max":665,"o":"m 64 0 m 85 126 q 215 103 140 113 q 357 94 289 94 q 514 103 428 94 l 514 361 l 382 371 q 190 403 254 381 q 101 476 126 426 q 75 618 75 525 q 101 777 75 718 q 184 863 126 836 q 339 889 242 889 q 619 863 479 889 l 601 753 q 347 774 490 774 q 226 767 276 774 l 226 506 l 381 496 q 553 463 492 489 q 640 384 614 438 q 665 236 665 331 q 635 83 665 139 q 535 3 604 28 q 344 -21 465 -21 q 64 13 197 -21 l 85 126 m 242 1004 l 453 1157 q 464 1163 460 1163 q 475 1156 469 1163 l 535 1082 q 544 1065 544 1071 q 535 1050 544 1058 l 497 1019 q 467 1006 486 1011 l 272 957 l 242 1004 z "},"Š":{"ha":721,"x_min":64,"x_max":665,"o":"m 64 0 m 85 126 q 215 103 140 113 q 357 94 289 94 q 514 103 428 94 l 514 361 l 382 371 q 190 403 254 381 q 101 476 126 426 q 75 618 75 525 q 101 777 75 718 q 184 863 126 836 q 339 889 242 889 q 619 863 479 889 l 601 753 q 347 774 490 774 q 226 767 276 774 l 226 506 l 381 496 q 553 463 492 489 q 640 384 614 438 q 665 236 665 331 q 635 83 665 139 q 535 3 604 28 q 344 -21 465 -21 q 64 13 197 -21 l 85 126 m 360 1074 l 475 1163 l 524 1115 l 386 954 q 372 946 379 946 l 347 946 q 333 954 340 946 l 196 1115 l 244 1163 l 360 1074 z "},"Ş":{"ha":721,"x_min":64,"x_max":665,"o":"m 665 236 q 640 95 665 149 q 560 15 615 42 q 410 -19 504 -12 q 442 -126 442 -64 q 406 -208 442 -178 q 308 -239 369 -239 q 214 -217 263 -239 l 224 -149 l 272 -149 q 319 -139 306 -149 q 332 -104 332 -129 l 332 -21 q 64 13 190 -18 l 85 126 q 215 103 140 113 q 357 94 289 94 q 514 103 428 94 l 514 361 l 382 371 q 190 403 254 381 q 101 476 126 426 q 75 618 75 525 q 101 777 75 718 q 184 863 126 836 q 339 889 242 889 q 619 863 479 889 l 601 753 q 347 774 490 774 q 226 767 276 774 l 226 506 l 381 496 q 553 463 492 489 q 640 384 614 438 q 665 236 665 331 z "},"Ŝ":{"ha":721,"x_min":64,"x_max":665,"o":"m 64 0 m 85 126 q 215 103 140 113 q 357 94 289 94 q 514 103 428 94 l 514 361 l 382 371 q 190 403 254 381 q 101 476 126 426 q 75 618 75 525 q 101 777 75 718 q 184 863 126 836 q 339 889 242 889 q 619 863 479 889 l 601 753 q 347 774 490 774 q 226 767 276 774 l 226 506 l 381 496 q 553 463 492 489 q 640 384 614 438 q 665 236 665 331 q 635 83 665 139 q 535 3 604 28 q 344 -21 465 -21 q 64 13 197 -21 l 85 126 m 196 993 l 333 1154 q 347 1163 340 1163 l 372 1163 q 386 1154 379 1163 l 524 993 l 475 946 l 360 1035 l 244 946 l 196 993 z "},"Ș":{"ha":721,"x_min":64,"x_max":665,"o":"m 64 0 m 85 126 q 215 103 140 113 q 357 94 289 94 q 514 103 428 94 l 514 361 l 382 371 q 190 403 254 381 q 101 476 126 426 q 75 618 75 525 q 101 777 75 718 q 184 863 126 836 q 339 889 242 889 q 619 863 479 889 l 601 753 q 347 774 490 774 q 226 767 276 774 l 226 506 l 381 496 q 553 463 492 489 q 640 384 614 438 q 665 236 665 331 q 635 83 665 139 q 535 3 604 28 q 344 -21 465 -21 q 64 13 197 -21 l 85 126 m 307 -379 l 336 -243 q 282 -219 299 -239 q 265 -151 265 -199 q 287 -77 265 -99 q 360 -56 308 -56 q 433 -77 411 -56 q 454 -151 454 -99 q 444 -227 454 -197 q 410 -308 435 -257 l 367 -397 l 307 -379 z "},"T":{"ha":639,"x_min":21,"x_max":618,"o":"m 389 0 l 250 0 l 250 753 l 21 753 l 21 868 l 618 868 l 618 753 l 389 753 l 389 0 z "},"Ŧ":{"ha":639,"x_min":21,"x_max":618,"o":"m 389 753 l 389 469 l 503 469 l 503 429 q 492 383 503 394 q 446 372 482 372 l 389 372 l 389 0 l 250 0 l 250 372 l 136 372 l 136 411 q 147 458 136 446 q 193 469 158 469 l 250 469 l 250 753 l 21 753 l 21 868 l 618 868 l 618 753 l 389 753 z "},"Ť":{"ha":639,"x_min":21,"x_max":618,"o":"m 21 0 m 389 0 l 250 0 l 250 753 l 21 753 l 21 868 l 618 868 l 618 753 l 389 753 l 389 0 m 319 1074 l 435 1163 l 483 1115 l 346 954 q 332 946 339 946 l 307 946 q 293 954 300 946 l 156 1115 l 204 1163 l 319 1074 z "},"Ţ":{"ha":639,"x_min":21,"x_max":618,"o":"m 389 0 l 356 0 q 389 -58 376 -25 q 401 -126 401 -90 q 365 -208 401 -178 q 268 -239 329 -239 q 174 -217 222 -239 l 183 -149 l 232 -149 q 278 -139 265 -149 q 292 -104 292 -129 l 292 0 l 250 0 l 250 753 l 21 753 l 21 868 l 618 868 l 618 753 l 389 753 l 389 0 z "},"Ț":{"ha":639,"x_min":21,"x_max":618,"o":"m 21 0 m 389 0 l 250 0 l 250 753 l 21 753 l 21 868 l 618 868 l 618 753 l 389 753 l 389 0 m 267 -379 l 296 -243 q 242 -219 258 -239 q 225 -151 225 -199 q 247 -77 225 -99 q 319 -56 268 -56 q 392 -77 371 -56 q 414 -151 414 -99 q 404 -227 414 -197 q 369 -308 394 -257 l 326 -397 l 267 -379 z "},"U":{"ha":886,"x_min":111,"x_max":775,"o":"m 443 -21 q 235 3 304 -21 q 138 85 165 26 q 111 263 111 144 l 111 868 l 250 868 l 250 97 l 450 97 q 567 103 528 97 q 621 125 606 110 q 636 171 636 140 l 636 868 l 775 868 l 775 263 q 748 85 775 144 q 651 3 721 26 q 443 -21 582 -21 z "},"Ú":{"ha":886,"x_min":111,"x_max":775,"o":"m 111 0 m 443 -21 q 235 3 304 -21 q 138 85 165 26 q 111 263 111 144 l 111 868 l 250 868 l 250 97 l 450 97 q 567 103 528 97 q 621 125 606 110 q 636 171 636 140 l 636 868 l 775 868 l 775 263 q 748 85 775 144 q 651 3 721 26 q 443 -21 582 -21 m 326 1004 l 538 1157 q 549 1163 544 1163 q 560 1156 554 1163 l 619 1082 q 629 1065 629 1071 q 619 1050 629 1058 l 582 1019 q 551 1006 571 1011 l 357 957 l 326 1004 z "},"Ŭ":{"ha":886,"x_min":111,"x_max":775,"o":"m 111 0 m 443 -21 q 235 3 304 -21 q 138 85 165 26 q 111 263 111 144 l 111 868 l 250 868 l 250 97 l 450 97 q 567 103 528 97 q 621 125 606 110 q 636 171 636 140 l 636 868 l 775 868 l 775 263 q 748 85 775 144 q 651 3 721 26 q 443 -21 582 -21 m 444 961 q 281 1111 313 961 l 371 1126 q 400 1079 379 1096 q 444 1063 421 1063 q 489 1079 468 1063 q 518 1126 510 1096 l 608 1111 q 547 999 590 1036 q 444 961 504 961 z "},"Û":{"ha":886,"x_min":111,"x_max":775,"o":"m 111 0 m 443 -21 q 235 3 304 -21 q 138 85 165 26 q 111 263 111 144 l 111 868 l 250 868 l 250 97 l 450 97 q 567 103 528 97 q 621 125 606 110 q 636 171 636 140 l 636 868 l 775 868 l 775 263 q 748 85 775 144 q 651 3 721 26 q 443 -21 582 -21 m 281 993 l 418 1154 q 432 1163 425 1163 l 457 1163 q 471 1154 464 1163 l 608 993 l 560 946 l 444 1035 l 329 946 l 281 993 z "},"Ü":{"ha":886,"x_min":111,"x_max":775,"o":"m 111 0 m 443 -21 q 235 3 304 -21 q 138 85 165 26 q 111 263 111 144 l 111 868 l 250 868 l 250 97 l 450 97 q 567 103 528 97 q 621 125 606 110 q 636 171 636 140 l 636 868 l 775 868 l 775 263 q 748 85 775 144 q 651 3 721 26 q 443 -21 582 -21 m 318 972 q 260 989 274 972 q 246 1051 246 1006 q 260 1115 246 1097 q 318 1132 274 1132 q 375 1115 361 1132 q 389 1051 389 1097 q 375 989 389 1006 q 318 972 361 972 m 572 972 q 514 989 528 972 q 500 1051 500 1006 q 514 1115 500 1097 q 572 1132 528 1132 q 629 1115 615 1132 q 643 1051 643 1097 q 629 989 643 1006 q 572 972 615 972 z "},"Ù":{"ha":886,"x_min":111,"x_max":775,"o":"m 111 0 m 443 -21 q 235 3 304 -21 q 138 85 165 26 q 111 263 111 144 l 111 868 l 250 868 l 250 97 l 450 97 q 567 103 528 97 q 621 125 606 110 q 636 171 636 140 l 636 868 l 775 868 l 775 263 q 748 85 775 144 q 651 3 721 26 q 443 -21 582 -21 m 371 992 q 340 1006 351 997 l 303 1036 q 293 1051 293 1044 q 303 1068 293 1057 l 363 1142 q 374 1149 368 1149 q 385 1143 378 1149 l 596 990 l 565 943 l 371 992 z "},"Ű":{"ha":886,"x_min":111,"x_max":775,"o":"m 111 0 m 443 -21 q 235 3 304 -21 q 138 85 165 26 q 111 263 111 144 l 111 868 l 250 868 l 250 97 l 450 97 q 567 103 528 97 q 621 125 606 110 q 636 171 636 140 l 636 868 l 775 868 l 775 263 q 748 85 775 144 q 651 3 721 26 q 443 -21 582 -21 m 181 1011 l 365 1157 q 376 1163 372 1163 q 388 1156 382 1163 l 449 1081 q 457 1065 457 1069 q 451 1054 457 1060 l 410 1019 q 379 1006 397 1010 l 211 964 l 181 1011 m 488 1011 l 672 1157 q 683 1163 679 1163 q 694 1156 689 1163 l 756 1081 q 764 1065 764 1069 q 758 1054 764 1060 l 717 1019 q 686 1006 704 1010 l 518 964 l 488 1011 z "},"Ū":{"ha":886,"x_min":111,"x_max":775,"o":"m 111 0 m 443 -21 q 235 3 304 -21 q 138 85 165 26 q 111 263 111 144 l 111 868 l 250 868 l 250 97 l 450 97 q 567 103 528 97 q 621 125 606 110 q 636 171 636 140 l 636 868 l 775 868 l 775 263 q 748 85 775 144 q 651 3 721 26 q 443 -21 582 -21 m 338 988 q 286 1001 297 988 q 275 1051 275 1014 l 275 1100 l 551 1100 q 602 1088 592 1100 q 613 1038 613 1075 l 613 988 l 338 988 z "},"Ų":{"ha":886,"x_min":111,"x_max":775,"o":"m 775 868 l 775 263 q 751 92 775 150 q 667 8 728 33 q 486 -21 606 -17 l 483 -21 q 434 -43 446 -31 q 422 -87 422 -56 l 422 -117 q 463 -164 422 -164 l 533 -164 l 544 -231 q 439 -254 490 -254 q 347 -221 381 -254 q 313 -131 313 -187 q 331 -69 313 -97 q 383 -19 350 -40 q 215 11 272 -15 q 134 95 157 38 q 111 263 111 153 l 111 868 l 250 868 l 250 97 l 450 97 q 567 103 528 97 q 621 125 606 110 q 636 171 636 140 l 636 868 l 775 868 z "},"Ů":{"ha":886,"x_min":111,"x_max":775,"o":"m 111 0 m 443 -21 q 235 3 304 -21 q 138 85 165 26 q 111 263 111 144 l 111 868 l 250 868 l 250 97 l 450 97 q 567 103 528 97 q 621 125 606 110 q 636 171 636 140 l 636 868 l 775 868 l 775 263 q 748 85 775 144 q 651 3 721 26 q 443 -21 582 -21 m 444 922 q 340 956 372 922 q 307 1060 307 990 q 340 1163 307 1129 q 444 1196 372 1196 q 549 1163 517 1196 q 581 1060 581 1129 q 549 956 581 990 q 444 922 517 922 m 443 994 q 488 1001 474 994 q 501 1031 501 1007 l 501 1124 l 447 1124 q 399 1117 414 1124 q 385 1089 385 1111 l 385 994 l 443 994 z "},"Ũ":{"ha":886,"x_min":111,"x_max":775,"o":"m 111 0 m 443 -21 q 235 3 304 -21 q 138 85 165 26 q 111 263 111 144 l 111 868 l 250 868 l 250 97 l 450 97 q 567 103 528 97 q 621 125 606 110 q 636 171 636 140 l 636 868 l 775 868 l 775 263 q 748 85 775 144 q 651 3 721 26 q 443 -21 582 -21 m 474 957 q 437 967 454 957 q 376 1017 419 978 l 285 971 l 246 1035 q 359 1113 325 1093 q 415 1132 393 1132 q 450 1122 433 1132 q 513 1072 467 1113 l 604 1118 l 643 1054 q 534 978 571 999 q 474 957 497 957 z "},"V":{"ha":724,"x_min":14,"x_max":710,"o":"m 153 868 l 356 128 l 368 128 l 571 868 l 710 868 l 467 0 l 257 0 l 14 868 l 153 868 z "},"W":{"ha":1114,"x_min":35,"x_max":1079,"o":"m 1079 868 l 933 0 l 717 0 l 557 689 l 397 0 l 181 0 l 35 868 l 174 868 l 293 128 l 306 128 l 483 868 l 631 868 l 808 128 l 821 128 l 940 868 l 1079 868 z "},"Ẃ":{"ha":1114,"x_min":35,"x_max":1079,"o":"m 35 0 m 1079 868 l 933 0 l 717 0 l 557 689 l 397 0 l 181 0 l 35 868 l 174 868 l 293 128 l 306 128 l 483 868 l 631 868 l 808 128 l 821 128 l 940 868 l 1079 868 m 439 1004 l 650 1157 q 661 1163 657 1163 q 672 1156 667 1163 l 732 1082 q 742 1065 742 1071 q 732 1050 742 1058 l 694 1019 q 664 1006 683 1011 l 469 957 l 439 1004 z "},"Ŵ":{"ha":1114,"x_min":35,"x_max":1079,"o":"m 35 0 m 1079 868 l 933 0 l 717 0 l 557 689 l 397 0 l 181 0 l 35 868 l 174 868 l 293 128 l 306 128 l 483 868 l 631 868 l 808 128 l 821 128 l 940 868 l 1079 868 m 393 993 l 531 1154 q 544 1163 538 1163 l 569 1163 q 583 1154 576 1163 l 721 993 l 672 946 l 557 1035 l 442 946 l 393 993 z "},"Ẅ":{"ha":1114,"x_min":35,"x_max":1079,"o":"m 35 0 m 1079 868 l 933 0 l 717 0 l 557 689 l 397 0 l 181 0 l 35 868 l 174 868 l 293 128 l 306 128 l 483 868 l 631 868 l 808 128 l 821 128 l 940 868 l 1079 868 m 431 972 q 372 989 386 972 q 358 1051 358 1006 q 372 1115 358 1097 q 431 1132 386 1132 q 488 1115 474 1132 q 501 1051 501 1097 q 488 989 501 1006 q 431 972 474 972 m 685 972 q 626 989 640 972 q 613 1051 613 1006 q 626 1115 613 1097 q 685 1132 640 1132 q 742 1115 728 1132 q 756 1051 756 1097 q 742 989 756 1006 q 685 972 728 972 z "},"Ẁ":{"ha":1114,"x_min":35,"x_max":1079,"o":"m 35 0 m 1079 868 l 933 0 l 717 0 l 557 689 l 397 0 l 181 0 l 35 868 l 174 868 l 293 128 l 306 128 l 483 868 l 631 868 l 808 128 l 821 128 l 940 868 l 1079 868 m 483 992 q 453 1006 464 997 l 415 1036 q 406 1051 406 1044 q 415 1068 406 1057 l 475 1142 q 486 1149 481 1149 q 497 1143 490 1149 l 708 990 l 678 943 l 483 992 z "},"X":{"ha":736,"x_min":14,"x_max":722,"o":"m 567 0 l 361 329 l 165 0 l 14 0 l 286 450 l 25 868 l 181 868 l 375 557 l 560 868 l 711 868 l 451 435 l 722 0 l 567 0 z "},"Y":{"ha":681,"x_min":14,"x_max":667,"o":"m 667 868 l 410 299 l 410 0 l 271 0 l 271 299 l 14 868 l 158 868 l 340 443 l 522 868 l 667 868 z "},"Ý":{"ha":681,"x_min":14,"x_max":667,"o":"m 14 0 m 667 868 l 410 299 l 410 0 l 271 0 l 271 299 l 14 868 l 158 868 l 340 443 l 522 868 l 667 868 m 222 1004 l 433 1157 q 444 1163 440 1163 q 456 1156 450 1163 l 515 1082 q 525 1065 525 1071 q 515 1050 525 1058 l 478 1019 q 447 1006 467 1011 l 253 957 l 222 1004 z "},"Ŷ":{"ha":681,"x_min":14,"x_max":667,"o":"m 14 0 m 667 868 l 410 299 l 410 0 l 271 0 l 271 299 l 14 868 l 158 868 l 340 443 l 522 868 l 667 868 m 176 993 l 314 1154 q 328 1163 321 1163 l 353 1163 q 367 1154 360 1163 l 504 993 l 456 946 l 340 1035 l 225 946 l 176 993 z "},"Ÿ":{"ha":681,"x_min":14,"x_max":667,"o":"m 14 0 m 667 868 l 410 299 l 410 0 l 271 0 l 271 299 l 14 868 l 158 868 l 340 443 l 522 868 l 667 868 m 214 972 q 156 989 169 972 q 142 1051 142 1006 q 156 1115 142 1097 q 214 1132 169 1132 q 271 1115 257 1132 q 285 1051 285 1097 q 271 989 285 1006 q 214 972 257 972 m 468 972 q 410 989 424 972 q 396 1051 396 1006 q 410 1115 396 1097 q 468 1132 424 1132 q 525 1115 511 1132 q 539 1051 539 1097 q 525 989 539 1006 q 468 972 511 972 z "},"Ỳ":{"ha":681,"x_min":14,"x_max":667,"o":"m 14 0 m 667 868 l 410 299 l 410 0 l 271 0 l 271 299 l 14 868 l 158 868 l 340 443 l 522 868 l 667 868 m 267 992 q 236 1006 247 997 l 199 1036 q 189 1051 189 1044 q 199 1068 189 1057 l 258 1142 q 269 1149 264 1149 q 281 1143 274 1149 l 492 990 l 461 943 l 267 992 z "},"Z":{"ha":757,"x_min":49,"x_max":708,"o":"m 49 93 l 524 744 l 519 753 l 118 753 l 101 868 l 708 868 l 708 775 l 233 124 l 238 115 l 686 115 l 686 0 l 49 0 l 49 93 z "},"Ź":{"ha":757,"x_min":49,"x_max":708,"o":"m 49 0 m 49 93 l 524 744 l 519 753 l 118 753 l 101 868 l 708 868 l 708 775 l 233 124 l 238 115 l 686 115 l 686 0 l 49 0 l 49 93 m 308 1004 l 519 1157 q 531 1163 526 1163 q 542 1156 536 1163 l 601 1082 q 611 1065 611 1071 q 601 1050 611 1058 l 564 1019 q 533 1006 553 1011 l 339 957 l 308 1004 z "},"Ž":{"ha":757,"x_min":49,"x_max":708,"o":"m 49 0 m 49 93 l 524 744 l 519 753 l 118 753 l 101 868 l 708 868 l 708 775 l 233 124 l 238 115 l 686 115 l 686 0 l 49 0 l 49 93 m 426 1074 l 542 1163 l 590 1115 l 453 954 q 439 946 446 946 l 414 946 q 400 954 407 946 l 263 1115 l 311 1163 l 426 1074 z "},"Ż":{"ha":757,"x_min":49,"x_max":708,"o":"m 49 0 m 49 93 l 524 744 l 519 753 l 118 753 l 101 868 l 708 868 l 708 775 l 233 124 l 238 115 l 686 115 l 686 0 l 49 0 l 49 93 m 428 989 q 359 1006 376 989 q 342 1072 342 1024 q 360 1140 342 1122 q 428 1158 378 1158 q 494 1140 476 1158 q 511 1072 511 1122 q 494 1006 511 1024 q 428 989 478 989 z "},"a":{"ha":757,"x_min":76,"x_max":639,"o":"m 383 708 q 535 690 479 708 q 615 628 590 671 q 639 514 639 586 l 639 0 l 575 0 l 538 69 q 427 6 488 26 q 289 -14 367 -14 q 125 34 174 -14 q 76 194 76 82 q 104 340 76 296 q 213 400 132 385 q 479 415 294 415 l 500 415 l 500 583 q 360 599 449 599 q 125 565 249 599 l 107 667 q 235 697 158 685 q 383 708 311 708 m 389 93 q 477 110 454 93 q 500 174 500 126 l 500 325 l 315 325 q 226 308 250 325 q 203 244 203 292 l 203 93 l 389 93 z "},"á":{"ha":757,"x_min":76,"x_max":639,"o":"m 76 0 m 383 708 q 535 690 479 708 q 615 628 590 671 q 639 514 639 586 l 639 0 l 575 0 l 538 69 q 427 6 488 26 q 289 -14 367 -14 q 125 34 174 -14 q 76 194 76 82 q 104 340 76 296 q 213 400 132 385 q 479 415 294 415 l 500 415 l 500 583 q 360 599 449 599 q 125 565 249 599 l 107 667 q 235 697 158 685 q 383 708 311 708 m 389 93 q 477 110 454 93 q 500 174 500 126 l 500 325 l 315 325 q 226 308 250 325 q 203 244 203 292 l 203 93 l 389 93 m 265 831 l 476 983 q 488 989 483 989 q 499 982 493 989 l 558 908 q 568 892 568 897 q 558 876 568 885 l 521 846 q 490 832 510 838 l 296 783 l 265 831 z "},"ă":{"ha":757,"x_min":76,"x_max":639,"o":"m 76 0 m 383 708 q 535 690 479 708 q 615 628 590 671 q 639 514 639 586 l 639 0 l 575 0 l 538 69 q 427 6 488 26 q 289 -14 367 -14 q 125 34 174 -14 q 76 194 76 82 q 104 340 76 296 q 213 400 132 385 q 479 415 294 415 l 500 415 l 500 583 q 360 599 449 599 q 125 565 249 599 l 107 667 q 235 697 158 685 q 383 708 311 708 m 389 93 q 477 110 454 93 q 500 174 500 126 l 500 325 l 315 325 q 226 308 250 325 q 203 244 203 292 l 203 93 l 389 93 m 383 788 q 219 938 251 788 l 310 953 q 339 906 318 922 q 383 889 360 889 q 428 906 407 889 q 457 953 449 922 l 547 938 q 486 825 529 863 q 383 788 443 788 z "},"â":{"ha":757,"x_min":76,"x_max":639,"o":"m 76 0 m 383 708 q 535 690 479 708 q 615 628 590 671 q 639 514 639 586 l 639 0 l 575 0 l 538 69 q 427 6 488 26 q 289 -14 367 -14 q 125 34 174 -14 q 76 194 76 82 q 104 340 76 296 q 213 400 132 385 q 479 415 294 415 l 500 415 l 500 583 q 360 599 449 599 q 125 565 249 599 l 107 667 q 235 697 158 685 q 383 708 311 708 m 389 93 q 477 110 454 93 q 500 174 500 126 l 500 325 l 315 325 q 226 308 250 325 q 203 244 203 292 l 203 93 l 389 93 m 219 819 l 357 981 q 371 989 364 989 l 396 989 q 410 981 403 989 l 547 819 l 499 772 l 383 861 l 268 772 l 219 819 z "},"ä":{"ha":757,"x_min":76,"x_max":639,"o":"m 76 0 m 383 708 q 535 690 479 708 q 615 628 590 671 q 639 514 639 586 l 639 0 l 575 0 l 538 69 q 427 6 488 26 q 289 -14 367 -14 q 125 34 174 -14 q 76 194 76 82 q 104 340 76 296 q 213 400 132 385 q 479 415 294 415 l 500 415 l 500 583 q 360 599 449 599 q 125 565 249 599 l 107 667 q 235 697 158 685 q 383 708 311 708 m 389 93 q 477 110 454 93 q 500 174 500 126 l 500 325 l 315 325 q 226 308 250 325 q 203 244 203 292 l 203 93 l 389 93 m 257 799 q 199 815 213 799 q 185 878 185 832 q 199 941 185 924 q 257 958 213 958 q 314 941 300 958 q 328 878 328 924 q 314 815 328 832 q 257 799 300 799 m 511 799 q 453 815 467 799 q 439 878 439 832 q 453 941 439 924 q 511 958 467 958 q 568 941 554 958 q 582 878 582 924 q 568 815 582 832 q 511 799 554 799 z "},"à":{"ha":757,"x_min":76,"x_max":639,"o":"m 76 0 m 383 708 q 535 690 479 708 q 615 628 590 671 q 639 514 639 586 l 639 0 l 575 0 l 538 69 q 427 6 488 26 q 289 -14 367 -14 q 125 34 174 -14 q 76 194 76 82 q 104 340 76 296 q 213 400 132 385 q 479 415 294 415 l 500 415 l 500 583 q 360 599 449 599 q 125 565 249 599 l 107 667 q 235 697 158 685 q 383 708 311 708 m 389 93 q 477 110 454 93 q 500 174 500 126 l 500 325 l 315 325 q 226 308 250 325 q 203 244 203 292 l 203 93 l 389 93 m 310 818 q 279 832 290 824 l 242 863 q 232 878 232 871 q 242 894 232 883 l 301 968 q 313 975 307 975 q 324 969 317 975 l 535 817 l 504 769 l 310 818 z "},"ā":{"ha":757,"x_min":76,"x_max":639,"o":"m 76 0 m 383 708 q 535 690 479 708 q 615 628 590 671 q 639 514 639 586 l 639 0 l 575 0 l 538 69 q 427 6 488 26 q 289 -14 367 -14 q 125 34 174 -14 q 76 194 76 82 q 104 340 76 296 q 213 400 132 385 q 479 415 294 415 l 500 415 l 500 583 q 360 599 449 599 q 125 565 249 599 l 107 667 q 235 697 158 685 q 383 708 311 708 m 389 93 q 477 110 454 93 q 500 174 500 126 l 500 325 l 315 325 q 226 308 250 325 q 203 244 203 292 l 203 93 l 389 93 m 276 814 q 225 827 236 814 q 214 878 214 840 l 214 926 l 490 926 q 541 914 531 926 q 551 864 551 901 l 551 814 l 276 814 z "},"ą":{"ha":757,"x_min":76,"x_max":672,"o":"m 672 -215 q 567 -239 618 -239 q 474 -206 508 -239 q 440 -115 440 -172 q 474 -35 440 -71 q 564 19 507 1 l 538 69 q 427 6 488 26 q 289 -14 367 -14 q 125 34 174 -14 q 76 194 76 82 q 104 340 76 296 q 213 400 132 385 q 479 415 294 415 l 500 415 l 500 583 q 360 599 449 599 q 125 565 249 599 l 107 667 q 235 697 158 685 q 383 708 311 708 q 535 690 479 708 q 615 628 590 671 q 639 514 639 586 l 639 0 l 611 -6 q 562 -28 574 -15 q 550 -72 550 -40 l 550 -101 q 590 -149 550 -149 l 661 -149 l 672 -215 m 389 93 q 477 110 454 93 q 500 174 500 126 l 500 325 l 315 325 q 226 308 250 325 q 203 244 203 292 l 203 93 l 389 93 z "},"å":{"ha":757,"x_min":76,"x_max":639,"o":"m 76 0 m 383 708 q 535 690 479 708 q 615 628 590 671 q 639 514 639 586 l 639 0 l 575 0 l 538 69 q 427 6 488 26 q 289 -14 367 -14 q 125 34 174 -14 q 76 194 76 82 q 104 340 76 296 q 213 400 132 385 q 479 415 294 415 l 500 415 l 500 583 q 360 599 449 599 q 125 565 249 599 l 107 667 q 235 697 158 685 q 383 708 311 708 m 389 93 q 477 110 454 93 q 500 174 500 126 l 500 325 l 315 325 q 226 308 250 325 q 203 244 203 292 l 203 93 l 389 93 m 383 749 q 278 783 311 749 q 246 886 246 817 q 278 989 246 956 q 383 1022 311 1022 q 488 989 456 1022 q 519 886 519 956 q 488 783 519 817 q 383 749 456 749 m 382 821 q 426 827 413 821 q 440 857 440 833 l 440 950 l 386 950 q 338 944 353 950 q 324 915 324 938 l 324 821 l 382 821 z "},"ǻ":{"ha":757,"x_min":76,"x_max":639,"o":"m 76 0 m 383 708 q 535 690 479 708 q 615 628 590 671 q 639 514 639 586 l 639 0 l 575 0 l 538 69 q 427 6 488 26 q 289 -14 367 -14 q 125 34 174 -14 q 76 194 76 82 q 104 340 76 296 q 213 400 132 385 q 479 415 294 415 l 500 415 l 500 583 q 360 599 449 599 q 125 565 249 599 l 107 667 q 235 697 158 685 q 383 708 311 708 m 389 93 q 477 110 454 93 q 500 174 500 126 l 500 325 l 315 325 q 226 308 250 325 q 203 244 203 292 l 203 93 l 389 93 m 383 749 q 278 783 311 749 q 246 886 246 817 q 278 989 246 956 q 383 1022 311 1022 q 488 989 456 1022 q 519 886 519 956 q 488 783 519 817 q 383 749 456 749 m 382 821 q 426 827 413 821 q 440 857 440 833 l 440 950 l 386 950 q 338 944 353 950 q 324 915 324 938 l 324 821 l 382 821 m 265 1131 l 476 1283 q 488 1289 483 1289 q 499 1282 493 1289 l 558 1208 q 568 1192 568 1197 q 558 1176 568 1185 l 521 1146 q 490 1132 510 1138 l 296 1083 l 265 1131 z "},"ã":{"ha":757,"x_min":76,"x_max":639,"o":"m 76 0 m 383 708 q 535 690 479 708 q 615 628 590 671 q 639 514 639 586 l 639 0 l 575 0 l 538 69 q 427 6 488 26 q 289 -14 367 -14 q 125 34 174 -14 q 76 194 76 82 q 104 340 76 296 q 213 400 132 385 q 479 415 294 415 l 500 415 l 500 583 q 360 599 449 599 q 125 565 249 599 l 107 667 q 235 697 158 685 q 383 708 311 708 m 389 93 q 477 110 454 93 q 500 174 500 126 l 500 325 l 315 325 q 226 308 250 325 q 203 244 203 292 l 203 93 l 389 93 m 413 783 q 376 794 393 783 q 315 843 358 804 l 224 797 l 185 861 q 298 939 264 919 q 354 958 332 958 q 389 949 372 958 q 451 899 406 939 l 543 944 l 582 881 q 473 804 510 825 q 413 783 436 783 z "},"æ":{"ha":1163,"x_min":76,"x_max":1065,"o":"m 789 96 q 900 103 846 96 q 1029 129 954 111 l 1047 28 q 918 -3 993 8 q 764 -14 843 -14 q 622 6 674 -14 q 540 72 569 26 q 429 7 490 28 q 289 -14 368 -14 q 125 34 174 -14 q 76 194 76 82 q 104 340 76 296 q 213 400 132 385 q 479 415 294 415 l 500 415 l 500 583 q 360 599 449 599 q 125 565 249 599 l 107 667 q 235 697 158 685 q 383 708 311 708 q 508 697 458 708 q 588 661 558 686 q 667 697 619 686 q 788 708 715 708 q 959 690 900 708 q 1042 628 1018 672 q 1065 500 1065 585 q 1036 354 1065 399 q 922 294 1007 310 q 640 279 836 279 l 640 111 q 789 96 700 96 m 756 594 q 665 578 689 594 q 640 514 640 561 l 640 369 l 824 369 q 916 386 892 369 q 940 450 940 403 l 940 594 l 756 594 m 389 93 q 477 110 454 93 q 500 174 500 126 l 500 325 l 315 325 q 226 308 250 325 q 203 244 203 292 l 203 93 l 389 93 z "},"ǽ":{"ha":1163,"x_min":76,"x_max":1065,"o":"m 76 0 m 789 96 q 900 103 846 96 q 1029 129 954 111 l 1047 28 q 918 -3 993 8 q 764 -14 843 -14 q 622 6 674 -14 q 540 72 569 26 q 429 7 490 28 q 289 -14 368 -14 q 125 34 174 -14 q 76 194 76 82 q 104 340 76 296 q 213 400 132 385 q 479 415 294 415 l 500 415 l 500 583 q 360 599 449 599 q 125 565 249 599 l 107 667 q 235 697 158 685 q 383 708 311 708 q 508 697 458 708 q 588 661 558 686 q 667 697 619 686 q 788 708 715 708 q 959 690 900 708 q 1042 628 1018 672 q 1065 500 1065 585 q 1036 354 1065 399 q 922 294 1007 310 q 640 279 836 279 l 640 111 q 789 96 700 96 m 756 594 q 665 578 689 594 q 640 514 640 561 l 640 369 l 824 369 q 916 386 892 369 q 940 450 940 403 l 940 594 l 756 594 m 389 93 q 477 110 454 93 q 500 174 500 126 l 500 325 l 315 325 q 226 308 250 325 q 203 244 203 292 l 203 93 l 389 93 m 464 831 l 675 983 q 686 989 682 989 q 697 982 692 989 l 757 908 q 767 892 767 897 q 757 876 767 885 l 719 846 q 689 832 708 838 l 494 783 l 464 831 z "},"b":{"ha":790,"x_min":125,"x_max":707,"o":"m 457 715 q 613 685 560 715 q 686 576 665 654 q 707 347 707 499 q 684 122 707 197 q 603 16 661 46 q 429 -14 544 -14 l 428 -14 q 275 -4 344 -14 q 125 29 206 6 l 125 924 l 264 940 l 264 682 q 342 708 296 700 q 457 715 388 715 m 561 601 l 328 601 q 277 594 290 601 q 264 567 264 588 l 264 100 l 497 100 q 547 106 533 100 q 561 128 561 113 l 561 601 z "},"c":{"ha":629,"x_min":83,"x_max":574,"o":"m 333 -14 q 178 17 231 -14 q 104 123 125 47 q 83 347 83 199 q 104 572 83 496 q 178 678 125 649 q 333 708 231 708 q 452 701 390 708 q 558 683 514 694 l 542 578 q 349 599 442 599 q 254 573 281 599 q 228 482 228 547 l 228 111 q 369 96 278 96 q 456 103 414 96 q 558 129 499 111 l 574 28 q 463 -3 526 8 q 333 -14 400 -14 z "},"ć":{"ha":629,"x_min":83,"x_max":574,"o":"m 83 0 m 333 -14 q 178 17 231 -14 q 104 123 125 47 q 83 347 83 199 q 104 572 83 496 q 178 678 125 649 q 333 708 231 708 q 452 701 390 708 q 558 683 514 694 l 542 578 q 349 599 442 599 q 254 573 281 599 q 228 482 228 547 l 228 111 q 369 96 278 96 q 456 103 414 96 q 558 129 499 111 l 574 28 q 463 -3 526 8 q 333 -14 400 -14 m 225 831 l 436 983 q 447 989 443 989 q 458 982 453 989 l 518 908 q 528 892 528 897 q 518 876 528 885 l 481 846 q 450 832 469 838 l 256 783 l 225 831 z "},"č":{"ha":629,"x_min":83,"x_max":574,"o":"m 83 0 m 333 -14 q 178 17 231 -14 q 104 123 125 47 q 83 347 83 199 q 104 572 83 496 q 178 678 125 649 q 333 708 231 708 q 452 701 390 708 q 558 683 514 694 l 542 578 q 349 599 442 599 q 254 573 281 599 q 228 482 228 547 l 228 111 q 369 96 278 96 q 456 103 414 96 q 558 129 499 111 l 574 28 q 463 -3 526 8 q 333 -14 400 -14 m 343 900 l 458 989 l 507 942 l 369 781 q 356 772 363 772 l 331 772 q 317 781 324 772 l 179 942 l 228 989 l 343 900 z "},"ç":{"ha":629,"x_min":83,"x_max":574,"o":"m 574 28 q 375 -12 493 -6 q 401 -66 392 -36 q 411 -126 411 -96 q 375 -208 411 -178 q 278 -239 339 -239 q 183 -217 232 -239 l 193 -149 l 242 -149 q 288 -139 275 -149 q 301 -104 301 -129 l 301 -14 q 167 24 213 -10 q 102 132 121 57 q 83 347 83 207 q 104 572 83 496 q 178 678 125 649 q 333 708 231 708 q 452 701 390 708 q 558 683 514 694 l 542 578 q 349 599 442 599 q 254 573 281 599 q 228 482 228 547 l 228 111 q 369 96 278 96 q 456 103 414 96 q 558 129 499 111 l 574 28 z "},"ĉ":{"ha":629,"x_min":83,"x_max":574,"o":"m 83 0 m 333 -14 q 178 17 231 -14 q 104 123 125 47 q 83 347 83 199 q 104 572 83 496 q 178 678 125 649 q 333 708 231 708 q 452 701 390 708 q 558 683 514 694 l 542 578 q 349 599 442 599 q 254 573 281 599 q 228 482 228 547 l 228 111 q 369 96 278 96 q 456 103 414 96 q 558 129 499 111 l 574 28 q 463 -3 526 8 q 333 -14 400 -14 m 179 819 l 317 981 q 331 989 324 989 l 356 989 q 369 981 363 989 l 507 819 l 458 772 l 343 861 l 228 772 l 179 819 z "},"ċ":{"ha":629,"x_min":83,"x_max":574,"o":"m 83 0 m 333 -14 q 178 17 231 -14 q 104 123 125 47 q 83 347 83 199 q 104 572 83 496 q 178 678 125 649 q 333 708 231 708 q 452 701 390 708 q 558 683 514 694 l 542 578 q 349 599 442 599 q 254 573 281 599 q 228 482 228 547 l 228 111 q 369 96 278 96 q 456 103 414 96 q 558 129 499 111 l 574 28 q 463 -3 526 8 q 333 -14 400 -14 m 344 815 q 276 833 293 815 q 258 899 258 850 q 276 967 258 949 q 344 985 294 985 q 410 967 393 985 q 428 899 428 949 q 411 833 428 850 q 344 815 394 815 z "},"d":{"ha":790,"x_min":83,"x_max":665,"o":"m 665 940 l 665 0 l 601 0 l 571 56 q 491 -4 543 13 q 347 -21 439 -21 q 181 8 236 -21 q 105 114 126 38 q 83 347 83 190 q 104 571 83 494 q 176 678 125 647 q 328 708 228 708 q 447 701 399 708 q 526 675 494 693 l 526 924 l 665 940 m 526 594 l 293 594 q 242 588 256 594 q 229 560 229 581 l 229 93 l 463 93 q 513 100 500 93 q 526 128 526 107 l 526 594 z "},"ð":{"ha":774,"x_min":90,"x_max":713,"o":"m 704 858 q 713 818 713 833 q 689 789 713 797 l 615 764 q 679 497 679 618 l 679 299 q 654 104 679 169 q 567 13 629 39 q 385 -14 506 -14 q 202 13 264 -14 q 115 104 140 39 q 90 299 90 169 q 115 493 90 428 q 202 585 140 558 q 385 611 264 611 l 535 611 q 497 725 522 671 l 383 688 l 371 725 q 363 765 363 750 q 386 794 363 786 l 453 817 q 396 907 435 850 l 515 940 q 569 856 540 906 l 692 896 l 704 858 m 533 497 l 300 497 q 249 490 263 497 q 236 463 236 483 l 236 100 l 469 100 q 520 107 507 100 q 533 135 533 114 l 533 497 z "},"ď":{"ha":910,"x_min":83,"x_max":910,"o":"m 83 0 m 665 940 l 665 0 l 601 0 l 571 56 q 491 -4 543 13 q 347 -21 439 -21 q 181 8 236 -21 q 105 114 126 38 q 83 347 83 190 q 104 571 83 494 q 176 678 125 647 q 328 708 228 708 q 447 701 399 708 q 526 675 494 693 l 526 924 l 665 940 m 526 594 l 293 594 q 242 588 256 594 q 229 560 229 581 l 229 93 l 463 93 q 513 100 500 93 q 526 128 526 107 l 526 594 m 763 649 l 792 785 q 738 809 754 789 q 721 876 721 829 q 742 951 721 929 q 815 972 764 972 q 888 951 867 972 q 910 876 910 929 q 900 801 910 831 q 865 719 890 771 l 822 631 l 763 649 z "},"đ":{"ha":790,"x_min":83,"x_max":761,"o":"m 761 844 l 761 822 q 751 797 761 803 q 710 792 742 792 l 665 792 l 665 0 l 601 0 l 571 56 q 491 -4 543 13 q 347 -21 439 -21 q 181 8 236 -21 q 105 114 126 38 q 83 347 83 190 q 104 571 83 494 q 176 678 125 647 q 328 708 228 708 q 447 701 399 708 q 526 675 494 693 l 526 792 l 431 792 l 431 813 q 440 838 431 832 q 482 844 450 844 l 526 844 l 526 924 l 665 940 l 665 844 l 761 844 m 526 594 l 293 594 q 242 588 256 594 q 229 560 229 581 l 229 93 l 463 93 q 513 100 500 93 q 526 128 526 107 l 526 594 z "},"e":{"ha":751,"x_min":83,"x_max":654,"o":"m 378 96 q 489 103 435 96 q 618 129 543 111 l 636 28 q 509 -3 585 8 q 353 -14 433 -14 q 188 17 244 -14 q 107 125 131 49 q 83 347 83 201 q 110 565 83 488 q 200 675 138 642 q 376 708 263 708 q 548 690 489 708 q 631 628 607 672 q 654 500 654 585 q 625 354 654 399 q 510 294 596 310 q 229 279 425 279 l 229 111 q 378 96 285 96 m 344 594 q 253 578 278 594 q 229 514 229 561 l 229 369 l 413 369 q 505 386 481 369 q 529 450 529 403 l 529 594 l 344 594 z "},"é":{"ha":751,"x_min":83,"x_max":654,"o":"m 83 0 m 378 96 q 489 103 435 96 q 618 129 543 111 l 636 28 q 509 -3 585 8 q 353 -14 433 -14 q 188 17 244 -14 q 107 125 131 49 q 83 347 83 201 q 110 565 83 488 q 200 675 138 642 q 376 708 263 708 q 548 690 489 708 q 631 628 607 672 q 654 500 654 585 q 625 354 654 399 q 510 294 596 310 q 229 279 425 279 l 229 111 q 378 96 285 96 m 344 594 q 253 578 278 594 q 229 514 229 561 l 229 369 l 413 369 q 505 386 481 369 q 529 450 529 403 l 529 594 l 344 594 m 258 831 l 469 983 q 481 989 476 989 q 492 982 486 989 l 551 908 q 561 892 561 897 q 551 876 561 885 l 514 846 q 483 832 503 838 l 289 783 l 258 831 z "},"ĕ":{"ha":751,"x_min":83,"x_max":654,"o":"m 83 0 m 378 96 q 489 103 435 96 q 618 129 543 111 l 636 28 q 509 -3 585 8 q 353 -14 433 -14 q 188 17 244 -14 q 107 125 131 49 q 83 347 83 201 q 110 565 83 488 q 200 675 138 642 q 376 708 263 708 q 548 690 489 708 q 631 628 607 672 q 654 500 654 585 q 625 354 654 399 q 510 294 596 310 q 229 279 425 279 l 229 111 q 378 96 285 96 m 344 594 q 253 578 278 594 q 229 514 229 561 l 229 369 l 413 369 q 505 386 481 369 q 529 450 529 403 l 529 594 l 344 594 m 376 788 q 213 938 244 788 l 303 953 q 332 906 311 922 q 376 889 353 889 q 421 906 400 889 q 450 953 442 922 l 540 938 q 479 825 522 863 q 376 788 436 788 z "},"ě":{"ha":751,"x_min":83,"x_max":654,"o":"m 83 0 m 378 96 q 489 103 435 96 q 618 129 543 111 l 636 28 q 509 -3 585 8 q 353 -14 433 -14 q 188 17 244 -14 q 107 125 131 49 q 83 347 83 201 q 110 565 83 488 q 200 675 138 642 q 376 708 263 708 q 548 690 489 708 q 631 628 607 672 q 654 500 654 585 q 625 354 654 399 q 510 294 596 310 q 229 279 425 279 l 229 111 q 378 96 285 96 m 344 594 q 253 578 278 594 q 229 514 229 561 l 229 369 l 413 369 q 505 386 481 369 q 529 450 529 403 l 529 594 l 344 594 m 376 900 l 492 989 l 540 942 l 403 781 q 389 772 396 772 l 364 772 q 350 781 357 772 l 213 942 l 261 989 l 376 900 z "},"ê":{"ha":751,"x_min":83,"x_max":654,"o":"m 83 0 m 378 96 q 489 103 435 96 q 618 129 543 111 l 636 28 q 509 -3 585 8 q 353 -14 433 -14 q 188 17 244 -14 q 107 125 131 49 q 83 347 83 201 q 110 565 83 488 q 200 675 138 642 q 376 708 263 708 q 548 690 489 708 q 631 628 607 672 q 654 500 654 585 q 625 354 654 399 q 510 294 596 310 q 229 279 425 279 l 229 111 q 378 96 285 96 m 344 594 q 253 578 278 594 q 229 514 229 561 l 229 369 l 413 369 q 505 386 481 369 q 529 450 529 403 l 529 594 l 344 594 m 213 819 l 350 981 q 364 989 357 989 l 389 989 q 403 981 396 989 l 540 819 l 492 772 l 376 861 l 261 772 l 213 819 z "},"ë":{"ha":751,"x_min":83,"x_max":654,"o":"m 83 0 m 378 96 q 489 103 435 96 q 618 129 543 111 l 636 28 q 509 -3 585 8 q 353 -14 433 -14 q 188 17 244 -14 q 107 125 131 49 q 83 347 83 201 q 110 565 83 488 q 200 675 138 642 q 376 708 263 708 q 548 690 489 708 q 631 628 607 672 q 654 500 654 585 q 625 354 654 399 q 510 294 596 310 q 229 279 425 279 l 229 111 q 378 96 285 96 m 344 594 q 253 578 278 594 q 229 514 229 561 l 229 369 l 413 369 q 505 386 481 369 q 529 450 529 403 l 529 594 l 344 594 m 250 799 q 192 815 206 799 q 178 878 178 832 q 192 941 178 924 q 250 958 206 958 q 307 941 293 958 q 321 878 321 924 q 307 815 321 832 q 250 799 293 799 m 504 799 q 446 815 460 799 q 432 878 432 832 q 446 941 432 924 q 504 958 460 958 q 561 941 547 958 q 575 878 575 924 q 561 815 575 832 q 504 799 547 799 z "},"ė":{"ha":751,"x_min":83,"x_max":654,"o":"m 83 0 m 378 96 q 489 103 435 96 q 618 129 543 111 l 636 28 q 509 -3 585 8 q 353 -14 433 -14 q 188 17 244 -14 q 107 125 131 49 q 83 347 83 201 q 110 565 83 488 q 200 675 138 642 q 376 708 263 708 q 548 690 489 708 q 631 628 607 672 q 654 500 654 585 q 625 354 654 399 q 510 294 596 310 q 229 279 425 279 l 229 111 q 378 96 285 96 m 344 594 q 253 578 278 594 q 229 514 229 561 l 229 369 l 413 369 q 505 386 481 369 q 529 450 529 403 l 529 594 l 344 594 m 378 815 q 309 833 326 815 q 292 899 292 850 q 310 967 292 949 q 378 985 328 985 q 444 967 426 985 q 461 899 461 949 q 444 833 461 850 q 378 815 428 815 z "},"è":{"ha":751,"x_min":83,"x_max":654,"o":"m 83 0 m 378 96 q 489 103 435 96 q 618 129 543 111 l 636 28 q 509 -3 585 8 q 353 -14 433 -14 q 188 17 244 -14 q 107 125 131 49 q 83 347 83 201 q 110 565 83 488 q 200 675 138 642 q 376 708 263 708 q 548 690 489 708 q 631 628 607 672 q 654 500 654 585 q 625 354 654 399 q 510 294 596 310 q 229 279 425 279 l 229 111 q 378 96 285 96 m 344 594 q 253 578 278 594 q 229 514 229 561 l 229 369 l 413 369 q 505 386 481 369 q 529 450 529 403 l 529 594 l 344 594 m 303 818 q 272 832 283 824 l 235 863 q 225 878 225 871 q 235 894 225 883 l 294 968 q 306 975 300 975 q 317 969 310 975 l 528 817 l 497 769 l 303 818 z "},"ē":{"ha":751,"x_min":83,"x_max":654,"o":"m 83 0 m 378 96 q 489 103 435 96 q 618 129 543 111 l 636 28 q 509 -3 585 8 q 353 -14 433 -14 q 188 17 244 -14 q 107 125 131 49 q 83 347 83 201 q 110 565 83 488 q 200 675 138 642 q 376 708 263 708 q 548 690 489 708 q 631 628 607 672 q 654 500 654 585 q 625 354 654 399 q 510 294 596 310 q 229 279 425 279 l 229 111 q 378 96 285 96 m 344 594 q 253 578 278 594 q 229 514 229 561 l 229 369 l 413 369 q 505 386 481 369 q 529 450 529 403 l 529 594 l 344 594 m 269 814 q 218 827 229 814 q 207 878 207 840 l 207 926 l 483 926 q 534 914 524 926 q 544 864 544 901 l 544 814 l 269 814 z "},"ę":{"ha":751,"x_min":83,"x_max":669,"o":"m 669 -187 q 564 -211 615 -211 q 472 -178 506 -211 q 438 -87 438 -144 q 471 -8 438 -44 q 353 -14 393 -14 q 188 17 244 -14 q 107 125 131 49 q 83 347 83 201 q 110 565 83 488 q 200 675 138 642 q 376 708 263 708 q 548 690 489 708 q 631 628 607 672 q 654 500 654 585 q 625 354 654 399 q 510 294 596 310 q 229 279 425 279 l 229 111 q 378 96 285 96 q 489 103 435 96 q 618 129 543 111 l 636 28 q 568 8 604 17 q 551 -12 556 0 q 547 -44 547 -24 l 547 -74 q 588 -121 547 -121 l 658 -121 l 669 -187 m 344 594 q 253 578 278 594 q 229 514 229 561 l 229 369 l 413 369 q 505 386 481 369 q 529 450 529 403 l 529 594 l 344 594 z "},"f":{"ha":463,"x_min":69,"x_max":463,"o":"m 306 836 l 306 694 l 417 694 l 417 599 l 306 599 l 306 0 l 167 0 l 167 599 l 69 599 l 69 694 l 167 694 q 189 842 172 790 q 240 916 206 894 q 335 938 274 938 q 463 924 401 938 l 454 824 l 306 836 z "},"g":{"ha":703,"x_min":63,"x_max":668,"o":"m 357 103 q 526 74 472 90 q 600 31 581 58 q 619 -54 619 3 q 593 -158 619 -119 q 506 -212 567 -196 q 343 -229 446 -229 q 197 -218 268 -229 q 74 -187 125 -207 l 92 -82 q 215 -108 164 -100 q 318 -115 265 -115 q 496 -100 425 -115 l 496 3 q 294 25 354 11 q 235 63 235 39 l 272 206 q 148 239 193 213 q 83 318 103 265 q 63 458 63 371 q 88 612 63 557 q 172 691 114 667 q 336 715 231 715 q 500 692 443 715 l 599 767 l 668 699 l 588 606 q 611 458 611 553 q 588 310 611 364 q 512 231 565 256 q 364 203 458 206 l 357 103 m 200 294 l 372 294 q 451 313 429 294 q 474 381 474 332 l 474 624 l 301 624 q 222 605 244 624 q 200 538 200 586 l 200 294 z "},"ğ":{"ha":703,"x_min":63,"x_max":668,"o":"m 63 0 m 357 103 q 526 74 472 90 q 600 31 581 58 q 619 -54 619 3 q 593 -158 619 -119 q 506 -212 567 -196 q 343 -229 446 -229 q 197 -218 268 -229 q 74 -187 125 -207 l 92 -82 q 215 -108 164 -100 q 318 -115 265 -115 q 496 -100 425 -115 l 496 3 q 294 25 354 11 q 235 63 235 39 l 272 206 q 148 239 193 213 q 83 318 103 265 q 63 458 63 371 q 88 612 63 557 q 172 691 114 667 q 336 715 231 715 q 500 692 443 715 l 599 767 l 668 699 l 588 606 q 611 458 611 553 q 588 310 611 364 q 512 231 565 256 q 364 203 458 206 l 357 103 m 200 294 l 372 294 q 451 313 429 294 q 474 381 474 332 l 474 624 l 301 624 q 222 605 244 624 q 200 538 200 586 l 200 294 m 351 788 q 188 938 219 788 l 278 953 q 307 906 286 922 q 351 889 328 889 q 396 906 375 889 q 425 953 417 922 l 515 938 q 454 825 497 863 q 351 788 411 788 z "},"ĝ":{"ha":703,"x_min":63,"x_max":668,"o":"m 63 0 m 357 103 q 526 74 472 90 q 600 31 581 58 q 619 -54 619 3 q 593 -158 619 -119 q 506 -212 567 -196 q 343 -229 446 -229 q 197 -218 268 -229 q 74 -187 125 -207 l 92 -82 q 215 -108 164 -100 q 318 -115 265 -115 q 496 -100 425 -115 l 496 3 q 294 25 354 11 q 235 63 235 39 l 272 206 q 148 239 193 213 q 83 318 103 265 q 63 458 63 371 q 88 612 63 557 q 172 691 114 667 q 336 715 231 715 q 500 692 443 715 l 599 767 l 668 699 l 588 606 q 611 458 611 553 q 588 310 611 364 q 512 231 565 256 q 364 203 458 206 l 357 103 m 200 294 l 372 294 q 451 313 429 294 q 474 381 474 332 l 474 624 l 301 624 q 222 605 244 624 q 200 538 200 586 l 200 294 m 188 819 l 325 981 q 339 989 332 989 l 364 989 q 378 981 371 989 l 515 819 l 467 772 l 351 861 l 236 772 l 188 819 z "},"ģ":{"ha":703,"x_min":63,"x_max":668,"o":"m 63 0 m 357 103 q 526 74 472 90 q 600 31 581 58 q 619 -54 619 3 q 593 -158 619 -119 q 506 -212 567 -196 q 343 -229 446 -229 q 197 -218 268 -229 q 74 -187 125 -207 l 92 -82 q 215 -108 164 -100 q 318 -115 265 -115 q 496 -100 425 -115 l 496 3 q 294 25 354 11 q 235 63 235 39 l 272 206 q 148 239 193 213 q 83 318 103 265 q 63 458 63 371 q 88 612 63 557 q 172 691 114 667 q 336 715 231 715 q 500 692 443 715 l 599 767 l 668 699 l 588 606 q 611 458 611 553 q 588 310 611 364 q 512 231 565 256 q 364 203 458 206 l 357 103 m 200 294 l 372 294 q 451 313 429 294 q 474 381 474 332 l 474 624 l 301 624 q 222 605 244 624 q 200 538 200 586 l 200 294 m 404 1117 l 375 981 q 429 956 413 976 q 446 889 446 936 q 424 815 446 836 q 351 793 403 793 q 278 815 300 793 q 257 889 257 836 q 267 965 257 935 q 301 1046 276 994 l 344 1135 l 404 1117 z "},"ġ":{"ha":703,"x_min":63,"x_max":668,"o":"m 63 0 m 357 103 q 526 74 472 90 q 600 31 581 58 q 619 -54 619 3 q 593 -158 619 -119 q 506 -212 567 -196 q 343 -229 446 -229 q 197 -218 268 -229 q 74 -187 125 -207 l 92 -82 q 215 -108 164 -100 q 318 -115 265 -115 q 496 -100 425 -115 l 496 3 q 294 25 354 11 q 235 63 235 39 l 272 206 q 148 239 193 213 q 83 318 103 265 q 63 458 63 371 q 88 612 63 557 q 172 691 114 667 q 336 715 231 715 q 500 692 443 715 l 599 767 l 668 699 l 588 606 q 611 458 611 553 q 588 310 611 364 q 512 231 565 256 q 364 203 458 206 l 357 103 m 200 294 l 372 294 q 451 313 429 294 q 474 381 474 332 l 474 624 l 301 624 q 222 605 244 624 q 200 538 200 586 l 200 294 m 353 815 q 284 833 301 815 q 267 899 267 850 q 285 967 267 949 q 353 985 303 985 q 419 967 401 985 q 436 899 436 949 q 419 833 436 850 q 353 815 403 815 z "},"h":{"ha":800,"x_min":125,"x_max":682,"o":"m 125 913 l 261 924 l 261 649 q 359 694 306 679 q 485 708 413 708 q 632 678 582 708 q 682 590 682 649 l 682 0 l 543 0 l 543 594 l 382 594 q 289 578 314 594 q 264 514 264 561 l 264 0 l 125 0 l 125 913 z "},"ħ":{"ha":800,"x_min":29,"x_max":682,"o":"m 485 708 q 632 678 582 708 q 682 590 682 649 l 682 0 l 543 0 l 543 594 l 382 594 q 289 578 314 594 q 264 514 264 561 l 264 0 l 125 0 l 125 775 l 29 775 l 29 796 q 39 822 29 815 q 81 828 49 828 l 125 828 l 125 913 l 261 924 l 261 828 l 360 828 l 360 806 q 350 781 360 786 q 308 775 340 775 l 261 775 l 261 649 q 359 694 306 679 q 485 708 413 708 z "},"ĥ":{"ha":800,"x_min":31,"x_max":682,"o":"m 31 0 m 125 913 l 261 924 l 261 649 q 359 694 306 679 q 485 708 413 708 q 632 678 582 708 q 682 590 682 649 l 682 0 l 543 0 l 543 594 l 382 594 q 289 578 314 594 q 264 514 264 561 l 264 0 l 125 0 l 125 913 m 31 993 l 168 1154 q 182 1163 175 1163 l 207 1163 q 221 1154 214 1163 l 358 993 l 310 946 l 194 1035 l 79 946 l 31 993 z "},"i":{"ha":389,"x_min":110,"x_max":279,"o":"m 110 0 m 264 706 l 264 0 l 125 0 l 125 685 l 264 706 m 196 815 q 127 833 144 815 q 110 899 110 850 q 128 967 110 949 q 196 985 146 985 q 262 967 244 985 q 279 899 279 949 q 263 833 279 850 q 196 815 246 815 z "},"ı":{"ha":389,"x_min":125,"x_max":264,"o":"m 264 706 l 264 0 l 125 0 l 125 685 l 264 706 z "},"í":{"ha":389,"x_min":76,"x_max":379,"o":"m 76 0 m 264 706 l 264 0 l 125 0 l 125 685 l 264 706 m 76 831 l 288 983 q 299 989 294 989 q 310 982 304 989 l 369 908 q 379 892 379 897 q 369 876 379 885 l 332 846 q 301 832 321 838 l 107 783 l 76 831 z "},"ĭ":{"ha":389,"x_min":31,"x_max":358,"o":"m 31 0 m 264 706 l 264 0 l 125 0 l 125 685 l 264 706 m 194 788 q 31 938 63 788 l 121 953 q 150 906 129 922 q 194 889 171 889 q 239 906 218 889 q 268 953 260 922 l 358 938 q 297 825 340 863 q 194 788 254 788 z "},"î":{"ha":389,"x_min":31,"x_max":358,"o":"m 31 0 m 264 706 l 264 0 l 125 0 l 125 685 l 264 706 m 31 819 l 168 981 q 182 989 175 989 l 207 989 q 221 981 214 989 l 358 819 l 310 772 l 194 861 l 79 772 l 31 819 z "},"ï":{"ha":389,"x_min":-4,"x_max":393,"o":"m 0 0 m 264 706 l 264 0 l 125 0 l 125 685 l 264 706 m 68 799 q 10 815 24 799 q -4 878 -4 832 q 10 941 -4 924 q 68 958 24 958 q 125 941 111 958 q 139 878 139 924 q 125 815 139 832 q 68 799 111 799 m 322 799 q 264 815 278 799 q 250 878 250 832 q 264 941 250 924 q 322 958 278 958 q 379 941 365 958 q 393 878 393 924 q 379 815 393 832 q 322 799 365 799 z "},"ì":{"ha":389,"x_min":43,"x_max":346,"o":"m 43 0 m 264 706 l 264 0 l 125 0 l 125 685 l 264 706 m 121 818 q 90 832 101 824 l 53 863 q 43 878 43 871 q 53 894 43 883 l 113 968 q 124 975 118 975 q 135 969 128 975 l 346 817 l 315 769 l 121 818 z "},"ĳ":{"ha":778,"x_min":110,"x_max":668,"o":"m 110 0 m 264 706 l 264 0 l 125 0 l 125 685 l 264 706 m 196 815 q 127 833 144 815 q 110 899 110 850 q 128 967 110 949 q 196 985 146 985 q 262 967 244 985 q 279 899 279 949 q 263 833 279 850 q 196 815 246 815 m 481 -243 q 374 -228 419 -243 l 382 -147 q 467 -141 440 -147 q 504 -117 494 -135 q 514 -62 514 -100 l 514 685 l 653 706 l 653 -83 q 611 -204 653 -165 q 481 -243 569 -243 m 585 815 q 516 833 533 815 q 499 899 499 850 q 517 967 499 949 q 585 985 535 985 q 651 967 633 985 q 668 899 668 949 q 651 833 668 850 q 585 815 635 815 z "},"ī":{"ha":389,"x_min":25,"x_max":363,"o":"m 25 0 m 264 706 l 264 0 l 125 0 l 125 685 l 264 706 m 88 814 q 36 827 47 814 q 25 878 25 840 l 25 926 l 301 926 q 352 914 342 926 q 363 864 363 901 l 363 814 l 88 814 z "},"į":{"ha":389,"x_min":65,"x_max":297,"o":"m 196 815 q 127 833 144 815 q 110 899 110 850 q 128 967 110 949 q 196 985 146 985 q 262 967 244 985 q 279 899 279 949 q 263 833 279 850 q 196 815 246 815 m 297 -215 q 192 -239 243 -239 q 99 -206 133 -239 q 65 -115 65 -172 q 86 -51 65 -81 q 144 0 107 -21 l 125 0 l 125 685 l 264 706 l 264 0 l 236 -6 q 187 -28 199 -15 q 175 -72 175 -40 l 175 -101 q 215 -149 175 -149 l 286 -149 l 297 -215 z "},"ĩ":{"ha":389,"x_min":-4,"x_max":393,"o":"m 0 0 m 264 706 l 264 0 l 125 0 l 125 685 l 264 706 m 224 783 q 187 794 204 783 q 126 843 169 804 l 35 797 l -4 861 q 109 939 75 919 q 165 958 143 958 q 200 949 183 958 q 263 899 217 939 l 354 944 l 393 881 q 284 804 321 825 q 224 783 247 783 z "},"j":{"ha":389,"x_min":-15,"x_max":279,"o":"m 0 0 m 92 -243 q -15 -228 31 -243 l -7 -147 q 78 -141 51 -147 q 115 -117 106 -135 q 125 -62 125 -100 l 125 685 l 264 706 l 264 -83 q 222 -204 264 -165 q 92 -243 181 -243 m 196 815 q 127 833 144 815 q 110 899 110 850 q 128 967 110 949 q 196 985 146 985 q 262 967 244 985 q 279 899 279 949 q 263 833 279 850 q 196 815 246 815 z "},"ȷ":{"ha":389,"x_min":-15,"x_max":264,"o":"m 92 -243 q -15 -228 31 -243 l -7 -147 q 78 -141 51 -147 q 115 -117 106 -135 q 125 -62 125 -100 l 125 685 l 264 706 l 264 -83 q 222 -204 264 -165 q 92 -243 181 -243 z "},"ĵ":{"ha":389,"x_min":-15,"x_max":358,"o":"m 0 0 m 92 -243 q -15 -228 31 -243 l -7 -147 q 78 -141 51 -147 q 115 -117 106 -135 q 125 -62 125 -100 l 125 685 l 264 706 l 264 -83 q 222 -204 264 -165 q 92 -243 181 -243 m 31 819 l 168 981 q 182 989 175 989 l 207 989 q 221 981 214 989 l 358 819 l 310 772 l 194 861 l 79 772 l 31 819 z "},"k":{"ha":688,"x_min":125,"x_max":674,"o":"m 264 322 l 264 0 l 125 0 l 125 903 l 264 924 l 264 419 l 374 419 l 521 694 l 667 694 l 489 371 l 674 0 l 531 0 l 374 322 l 264 322 z "},"ķ":{"ha":688,"x_min":125,"x_max":674,"o":"m 125 0 m 264 322 l 264 0 l 125 0 l 125 903 l 264 924 l 264 419 l 374 419 l 521 694 l 667 694 l 489 371 l 674 0 l 531 0 l 374 322 l 264 322 m 319 -379 l 349 -243 q 294 -219 311 -239 q 278 -151 278 -199 q 299 -77 278 -99 q 372 -56 321 -56 q 445 -77 424 -56 q 467 -151 467 -99 q 457 -227 467 -197 q 422 -308 447 -257 l 379 -397 l 319 -379 z "},"ĸ":{"ha":708,"x_min":125,"x_max":694,"o":"m 264 299 l 264 0 l 125 0 l 125 694 l 264 694 l 264 396 l 394 396 l 542 694 l 688 694 l 510 347 l 694 0 l 551 0 l 394 299 l 264 299 z "},"l":{"ha":376,"x_min":118,"x_max":321,"o":"m 257 103 q 321 96 285 99 l 313 1 q 221 -14 261 -14 q 143 12 168 -14 q 118 90 118 38 l 118 903 l 257 924 l 257 103 z "},"ĺ":{"ha":376,"x_min":69,"x_max":372,"o":"m 69 0 m 257 103 q 321 96 285 99 l 313 1 q 221 -14 261 -14 q 143 12 168 -14 q 118 90 118 38 l 118 903 l 257 924 l 257 103 m 69 1004 l 281 1157 q 292 1163 288 1163 q 303 1156 297 1163 l 363 1082 q 372 1065 372 1071 q 363 1050 372 1058 l 325 1019 q 294 1006 314 1011 l 100 957 l 69 1004 z "},"ľ":{"ha":467,"x_min":118,"x_max":494,"o":"m 118 0 m 257 103 q 321 96 285 99 l 313 1 q 221 -14 261 -14 q 143 12 168 -14 q 118 90 118 38 l 118 903 l 257 924 l 257 103 m 347 649 l 376 785 q 322 809 339 789 q 306 876 306 829 q 327 951 306 929 q 400 972 349 972 q 473 951 451 972 q 494 876 494 929 q 485 801 494 831 q 450 719 475 771 l 407 631 l 347 649 z "},"ļ":{"ha":376,"x_min":93,"x_max":321,"o":"m 93 0 m 257 103 q 321 96 285 99 l 313 1 q 221 -14 261 -14 q 143 12 168 -14 q 118 90 118 38 l 118 903 l 257 924 l 257 103 m 135 -379 l 164 -243 q 110 -219 126 -239 q 93 -151 93 -199 q 115 -77 93 -99 q 188 -56 136 -56 q 260 -77 239 -56 q 282 -151 282 -99 q 272 -227 282 -197 q 238 -308 263 -257 l 194 -397 l 135 -379 z "},"ŀ":{"ha":478,"x_min":118,"x_max":506,"o":"m 118 0 m 257 103 q 321 96 285 99 l 313 1 q 221 -14 261 -14 q 143 12 168 -14 q 118 90 118 38 l 118 903 l 257 924 l 257 103 m 325 465 q 343 540 325 518 q 415 561 361 561 q 487 540 468 561 q 506 465 506 518 q 488 392 506 413 q 415 371 469 371 q 343 392 361 371 q 325 465 325 413 z "},"ł":{"ha":376,"x_min":13,"x_max":363,"o":"m 354 525 q 363 485 363 500 q 339 456 363 464 l 257 428 l 257 103 q 321 96 285 99 l 313 1 q 221 -14 261 -14 q 143 12 168 -14 q 118 90 118 38 l 118 382 l 33 354 l 21 392 q 13 432 13 417 q 36 461 13 453 l 118 489 l 118 903 l 257 924 l 257 535 l 342 563 l 354 525 z "},"m":{"ha":1189,"x_min":125,"x_max":1071,"o":"m 874 708 q 1021 678 971 708 q 1071 590 1071 649 l 1071 0 l 932 0 l 932 594 l 785 594 q 699 582 724 594 q 668 536 674 569 l 668 0 l 529 0 l 529 594 l 382 594 q 289 578 314 594 q 264 514 264 561 l 264 0 l 125 0 l 125 694 l 189 694 l 226 625 q 335 688 276 668 q 471 708 394 708 q 654 644 614 708 q 874 708 744 708 z "},"n":{"ha":800,"x_min":125,"x_max":682,"o":"m 125 694 l 189 694 l 226 625 q 342 688 279 668 q 485 708 404 708 q 632 678 582 708 q 682 590 682 649 l 682 0 l 543 0 l 543 594 l 382 594 q 289 578 314 594 q 264 514 264 561 l 264 0 l 125 0 l 125 694 z "},"ń":{"ha":800,"x_min":125,"x_max":682,"o":"m 125 0 m 125 694 l 189 694 l 226 625 q 342 688 279 668 q 485 708 404 708 q 632 678 582 708 q 682 590 682 649 l 682 0 l 543 0 l 543 594 l 382 594 q 289 578 314 594 q 264 514 264 561 l 264 0 l 125 0 l 125 694 m 296 831 l 507 983 q 518 989 514 989 q 529 982 524 989 l 589 908 q 599 892 599 897 q 589 876 599 885 l 551 846 q 521 832 540 838 l 326 783 l 296 831 z "},"ň":{"ha":800,"x_min":125,"x_max":682,"o":"m 125 0 m 125 694 l 189 694 l 226 625 q 342 688 279 668 q 485 708 404 708 q 632 678 582 708 q 682 590 682 649 l 682 0 l 543 0 l 543 594 l 382 594 q 289 578 314 594 q 264 514 264 561 l 264 0 l 125 0 l 125 694 m 414 900 l 529 989 l 578 942 l 440 781 q 426 772 433 772 l 401 772 q 388 781 394 772 l 250 942 l 299 989 l 414 900 z "},"ņ":{"ha":800,"x_min":125,"x_max":682,"o":"m 125 0 m 125 694 l 189 694 l 226 625 q 342 688 279 668 q 485 708 404 708 q 632 678 582 708 q 682 590 682 649 l 682 0 l 543 0 l 543 594 l 382 594 q 289 578 314 594 q 264 514 264 561 l 264 0 l 125 0 l 125 694 m 347 -379 l 376 -243 q 322 -219 339 -239 q 306 -151 306 -199 q 327 -77 306 -99 q 400 -56 349 -56 q 473 -77 451 -56 q 494 -151 494 -99 q 485 -227 494 -197 q 450 -308 475 -257 l 407 -397 l 347 -379 z "},"ŋ":{"ha":800,"x_min":125,"x_max":682,"o":"m 485 708 q 632 678 582 708 q 682 590 682 649 l 682 -83 q 640 -204 682 -165 q 510 -243 599 -243 q 403 -228 453 -243 l 411 -161 q 497 -153 469 -160 q 533 -131 524 -147 q 543 -76 543 -114 l 543 594 l 382 594 q 289 578 314 594 q 264 514 264 561 l 264 0 l 125 0 l 125 694 l 189 694 l 226 625 q 342 688 279 668 q 485 708 404 708 z "},"ñ":{"ha":800,"x_min":125,"x_max":682,"o":"m 125 0 m 125 694 l 189 694 l 226 625 q 342 688 279 668 q 485 708 404 708 q 632 678 582 708 q 682 590 682 649 l 682 0 l 543 0 l 543 594 l 382 594 q 289 578 314 594 q 264 514 264 561 l 264 0 l 125 0 l 125 694 m 443 783 q 406 794 424 783 q 346 843 389 804 l 254 797 l 215 861 q 328 939 294 919 q 385 958 363 958 q 419 949 403 958 q 482 899 436 939 l 574 944 l 613 881 q 503 804 540 825 q 443 783 467 783 z "},"o":{"ha":769,"x_min":83,"x_max":686,"o":"m 385 -14 q 197 16 260 -14 q 108 122 133 46 q 83 347 83 199 q 108 572 83 496 q 197 678 133 649 q 385 708 260 708 q 574 678 511 708 q 661 573 636 649 q 686 347 686 497 q 661 122 686 199 q 573 16 636 46 q 385 -14 510 -14 m 475 100 q 528 107 515 100 q 542 135 542 114 l 542 594 l 294 594 q 241 588 254 594 q 228 560 228 581 l 228 100 l 475 100 z "},"ó":{"ha":769,"x_min":83,"x_max":686,"o":"m 83 0 m 385 -14 q 197 16 260 -14 q 108 122 133 46 q 83 347 83 199 q 108 572 83 496 q 197 678 133 649 q 385 708 260 708 q 574 678 511 708 q 661 573 636 649 q 686 347 686 497 q 661 122 686 199 q 573 16 636 46 q 385 -14 510 -14 m 475 100 q 528 107 515 100 q 542 135 542 114 l 542 594 l 294 594 q 241 588 254 594 q 228 560 228 581 l 228 100 l 475 100 m 267 831 l 478 983 q 489 989 485 989 q 500 982 494 989 l 560 908 q 569 892 569 897 q 560 876 569 885 l 522 846 q 492 832 511 838 l 297 783 l 267 831 z "},"ŏ":{"ha":769,"x_min":83,"x_max":686,"o":"m 83 0 m 385 -14 q 197 16 260 -14 q 108 122 133 46 q 83 347 83 199 q 108 572 83 496 q 197 678 133 649 q 385 708 260 708 q 574 678 511 708 q 661 573 636 649 q 686 347 686 497 q 661 122 686 199 q 573 16 636 46 q 385 -14 510 -14 m 475 100 q 528 107 515 100 q 542 135 542 114 l 542 594 l 294 594 q 241 588 254 594 q 228 560 228 581 l 228 100 l 475 100 m 385 788 q 221 938 253 788 l 311 953 q 340 906 319 922 q 385 889 361 889 q 429 906 408 889 q 458 953 450 922 l 549 938 q 488 825 531 863 q 385 788 444 788 z "},"ô":{"ha":769,"x_min":83,"x_max":686,"o":"m 83 0 m 385 -14 q 197 16 260 -14 q 108 122 133 46 q 83 347 83 199 q 108 572 83 496 q 197 678 133 649 q 385 708 260 708 q 574 678 511 708 q 661 573 636 649 q 686 347 686 497 q 661 122 686 199 q 573 16 636 46 q 385 -14 510 -14 m 475 100 q 528 107 515 100 q 542 135 542 114 l 542 594 l 294 594 q 241 588 254 594 q 228 560 228 581 l 228 100 l 475 100 m 221 819 l 358 981 q 372 989 365 989 l 397 989 q 411 981 404 989 l 549 819 l 500 772 l 385 861 l 269 772 l 221 819 z "},"ö":{"ha":769,"x_min":83,"x_max":686,"o":"m 83 0 m 385 -14 q 197 16 260 -14 q 108 122 133 46 q 83 347 83 199 q 108 572 83 496 q 197 678 133 649 q 385 708 260 708 q 574 678 511 708 q 661 573 636 649 q 686 347 686 497 q 661 122 686 199 q 573 16 636 46 q 385 -14 510 -14 m 475 100 q 528 107 515 100 q 542 135 542 114 l 542 594 l 294 594 q 241 588 254 594 q 228 560 228 581 l 228 100 l 475 100 m 258 799 q 200 815 214 799 q 186 878 186 832 q 200 941 186 924 q 258 958 214 958 q 315 941 301 958 q 329 878 329 924 q 315 815 329 832 q 258 799 301 799 m 513 799 q 454 815 468 799 q 440 878 440 832 q 454 941 440 924 q 513 958 468 958 q 569 941 556 958 q 583 878 583 924 q 569 815 583 832 q 513 799 556 799 z "},"ò":{"ha":769,"x_min":83,"x_max":686,"o":"m 83 0 m 385 -14 q 197 16 260 -14 q 108 122 133 46 q 83 347 83 199 q 108 572 83 496 q 197 678 133 649 q 385 708 260 708 q 574 678 511 708 q 661 573 636 649 q 686 347 686 497 q 661 122 686 199 q 573 16 636 46 q 385 -14 510 -14 m 475 100 q 528 107 515 100 q 542 135 542 114 l 542 594 l 294 594 q 241 588 254 594 q 228 560 228 581 l 228 100 l 475 100 m 311 818 q 281 832 292 824 l 243 863 q 233 878 233 871 q 243 894 233 883 l 303 968 q 314 975 308 975 q 325 969 318 975 l 536 817 l 506 769 l 311 818 z "},"ő":{"ha":769,"x_min":83,"x_max":704,"o":"m 83 0 m 385 -14 q 197 16 260 -14 q 108 122 133 46 q 83 347 83 199 q 108 572 83 496 q 197 678 133 649 q 385 708 260 708 q 574 678 511 708 q 661 573 636 649 q 686 347 686 497 q 661 122 686 199 q 573 16 636 46 q 385 -14 510 -14 m 475 100 q 528 107 515 100 q 542 135 542 114 l 542 594 l 294 594 q 241 588 254 594 q 228 560 228 581 l 228 100 l 475 100 m 121 838 l 306 983 q 317 989 313 989 q 328 982 322 989 l 389 907 q 397 892 397 896 q 392 881 397 886 l 350 846 q 319 832 338 836 l 151 790 l 121 838 m 428 838 l 613 983 q 624 989 619 989 q 635 982 629 989 l 696 907 q 704 892 704 896 q 699 881 704 886 l 657 846 q 626 832 644 836 l 458 790 l 428 838 z "},"ō":{"ha":769,"x_min":83,"x_max":686,"o":"m 83 0 m 385 -14 q 197 16 260 -14 q 108 122 133 46 q 83 347 83 199 q 108 572 83 496 q 197 678 133 649 q 385 708 260 708 q 574 678 511 708 q 661 573 636 649 q 686 347 686 497 q 661 122 686 199 q 573 16 636 46 q 385 -14 510 -14 m 475 100 q 528 107 515 100 q 542 135 542 114 l 542 594 l 294 594 q 241 588 254 594 q 228 560 228 581 l 228 100 l 475 100 m 278 814 q 226 827 238 814 q 215 878 215 840 l 215 926 l 492 926 q 542 914 532 926 q 553 864 553 901 l 553 814 l 278 814 z "},"ø":{"ha":769,"x_min":83,"x_max":686,"o":"m 586 672 q 665 564 643 639 q 686 347 686 489 q 661 122 686 199 q 573 16 636 46 q 385 -14 510 -14 q 258 -4 307 -14 l 207 -108 q 185 -136 197 -129 q 147 -143 172 -143 l 104 -143 l 185 22 q 106 131 128 57 q 83 347 83 206 q 108 572 83 496 q 197 678 133 649 q 385 708 260 708 q 513 699 463 708 l 563 801 q 585 829 572 822 q 622 836 597 836 l 665 836 l 586 672 m 228 111 l 463 594 l 294 594 q 241 588 254 594 q 228 560 228 581 l 228 111 m 475 100 q 528 107 515 100 q 542 135 542 114 l 542 582 l 308 100 l 475 100 z "},"ǿ":{"ha":769,"x_min":83,"x_max":686,"o":"m 83 0 m 586 672 q 665 564 643 639 q 686 347 686 489 q 661 122 686 199 q 573 16 636 46 q 385 -14 510 -14 q 258 -4 307 -14 l 207 -108 q 185 -136 197 -129 q 147 -143 172 -143 l 104 -143 l 185 22 q 106 131 128 57 q 83 347 83 206 q 108 572 83 496 q 197 678 133 649 q 385 708 260 708 q 513 699 463 708 l 563 801 q 585 829 572 822 q 622 836 597 836 l 665 836 l 586 672 m 228 111 l 463 594 l 294 594 q 241 588 254 594 q 228 560 228 581 l 228 111 m 475 100 q 528 107 515 100 q 542 135 542 114 l 542 582 l 308 100 l 475 100 m 267 831 l 478 983 q 489 989 485 989 q 500 982 494 989 l 560 908 q 569 892 569 897 q 560 876 569 885 l 522 846 q 492 832 511 838 l 297 783 l 267 831 z "},"õ":{"ha":769,"x_min":83,"x_max":686,"o":"m 83 0 m 385 -14 q 197 16 260 -14 q 108 122 133 46 q 83 347 83 199 q 108 572 83 496 q 197 678 133 649 q 385 708 260 708 q 574 678 511 708 q 661 573 636 649 q 686 347 686 497 q 661 122 686 199 q 573 16 636 46 q 385 -14 510 -14 m 475 100 q 528 107 515 100 q 542 135 542 114 l 542 594 l 294 594 q 241 588 254 594 q 228 560 228 581 l 228 100 l 475 100 m 414 783 q 377 794 394 783 q 317 843 360 804 l 225 797 l 186 861 q 299 939 265 919 q 356 958 333 958 q 390 949 374 958 q 453 899 407 939 l 544 944 l 583 881 q 474 804 511 825 q 414 783 438 783 z "},"œ":{"ha":1207,"x_min":83,"x_max":1110,"o":"m 833 96 q 944 103 890 96 q 1074 129 999 111 l 1092 28 q 963 -3 1038 8 q 808 -14 888 -14 q 688 1 735 -14 q 611 53 640 17 q 525 1 579 17 q 385 -14 471 -14 q 197 16 260 -14 q 108 122 133 46 q 83 347 83 199 q 108 572 83 496 q 197 678 133 649 q 385 708 260 708 q 531 692 476 708 q 617 638 586 676 q 701 692 649 675 q 832 708 753 708 q 1003 690 944 708 q 1086 628 1063 672 q 1110 500 1110 585 q 1081 354 1110 399 q 966 294 1051 310 q 685 279 881 279 l 685 111 q 833 96 744 96 m 542 594 l 294 594 q 241 588 254 594 q 228 560 228 581 l 228 100 l 475 100 q 528 107 515 100 q 542 135 542 114 l 542 594 m 800 594 q 709 578 733 594 q 685 514 685 561 l 685 369 l 868 369 q 960 386 936 369 q 985 450 985 403 l 985 594 l 800 594 z "},"p":{"ha":790,"x_min":125,"x_max":707,"o":"m 457 708 q 614 678 561 708 q 687 573 667 649 q 707 347 707 497 q 686 119 707 196 q 613 10 665 42 q 457 -21 560 -21 q 342 -13 388 -21 q 264 13 296 -6 l 264 -229 l 125 -246 l 125 694 l 189 694 l 221 636 q 304 693 250 678 q 457 708 358 708 m 561 594 l 328 594 q 278 588 292 594 q 264 567 264 582 l 264 93 l 497 93 q 548 100 535 93 q 561 128 561 107 l 561 594 z "},"þ":{"ha":790,"x_min":125,"x_max":707,"o":"m 457 708 q 614 678 561 708 q 687 573 667 649 q 707 347 707 497 q 686 119 707 196 q 613 10 665 42 q 457 -21 560 -21 q 342 -13 388 -21 q 264 13 296 -6 l 264 -229 l 125 -246 l 125 903 l 264 924 l 264 675 q 340 701 294 694 q 457 708 386 708 m 561 594 l 328 594 q 278 588 292 594 q 264 567 264 582 l 264 93 l 497 93 q 548 100 535 93 q 561 128 561 107 l 561 594 z "},"q":{"ha":790,"x_min":83,"x_max":665,"o":"m 665 694 l 665 -229 l 526 -246 l 526 13 q 449 -13 494 -6 q 333 -21 403 -21 q 178 10 231 -21 q 104 119 125 42 q 83 347 83 196 q 103 573 83 497 q 176 678 124 649 q 333 708 229 708 q 486 693 432 708 q 569 636 540 678 l 601 694 l 665 694 m 463 93 q 513 100 500 93 q 526 128 526 107 l 526 594 l 293 594 q 243 588 257 594 q 229 567 229 582 l 229 93 l 463 93 z "},"r":{"ha":464,"x_min":125,"x_max":443,"o":"m 239 585 q 346 671 301 640 q 429 715 390 701 l 443 579 q 348 541 397 565 q 264 490 299 517 l 264 0 l 125 0 l 125 694 l 190 694 l 239 585 z "},"ŕ":{"ha":464,"x_min":125,"x_max":458,"o":"m 125 0 m 239 585 q 346 671 301 640 q 429 715 390 701 l 443 579 q 348 541 397 565 q 264 490 299 517 l 264 0 l 125 0 l 125 694 l 190 694 l 239 585 m 156 831 l 367 983 q 378 989 374 989 q 389 982 383 989 l 449 908 q 458 892 458 897 q 449 876 458 885 l 411 846 q 381 832 400 838 l 186 783 l 156 831 z "},"ř":{"ha":464,"x_min":110,"x_max":443,"o":"m 110 0 m 239 585 q 346 671 301 640 q 429 715 390 701 l 443 579 q 348 541 397 565 q 264 490 299 517 l 264 0 l 125 0 l 125 694 l 190 694 l 239 585 m 274 900 l 389 989 l 438 942 l 300 781 q 286 772 293 772 l 261 772 q 247 781 254 772 l 110 942 l 158 989 l 274 900 z "},"ŗ":{"ha":464,"x_min":100,"x_max":443,"o":"m 100 0 m 239 585 q 346 671 301 640 q 429 715 390 701 l 443 579 q 348 541 397 565 q 264 490 299 517 l 264 0 l 125 0 l 125 694 l 190 694 l 239 585 m 142 -379 l 171 -243 q 117 -219 133 -239 q 100 -151 100 -199 q 122 -77 100 -99 q 194 -56 143 -56 q 267 -77 246 -56 q 289 -151 289 -99 q 279 -227 289 -197 q 244 -308 269 -257 l 201 -397 l 142 -379 z "},"s":{"ha":668,"x_min":63,"x_max":606,"o":"m 78 508 q 141 665 78 615 q 340 715 204 715 q 571 685 461 715 l 551 583 q 469 599 517 593 q 382 606 422 606 q 224 593 299 606 l 224 429 q 469 381 390 406 q 576 316 547 357 q 606 196 606 275 q 577 69 606 117 q 485 1 549 22 q 314 -21 421 -21 q 63 19 194 -21 l 85 131 q 313 89 192 89 q 386 93 354 89 q 460 108 418 97 l 460 272 q 204 321 281 297 q 103 384 128 344 q 78 508 78 424 z "},"ś":{"ha":668,"x_min":63,"x_max":606,"o":"m 63 0 m 78 508 q 141 665 78 615 q 340 715 204 715 q 571 685 461 715 l 551 583 q 469 599 517 593 q 382 606 422 606 q 224 593 299 606 l 224 429 q 469 381 390 406 q 576 316 547 357 q 606 196 606 275 q 577 69 606 117 q 485 1 549 22 q 314 -21 421 -21 q 63 19 194 -21 l 85 131 q 313 89 192 89 q 386 93 354 89 q 460 108 418 97 l 460 272 q 204 321 281 297 q 103 384 128 344 q 78 508 78 424 m 224 831 l 435 983 q 446 989 442 989 q 457 982 451 989 l 517 908 q 526 892 526 897 q 517 876 526 885 l 479 846 q 449 832 468 838 l 254 783 l 224 831 z "},"š":{"ha":668,"x_min":63,"x_max":606,"o":"m 63 0 m 78 508 q 141 665 78 615 q 340 715 204 715 q 571 685 461 715 l 551 583 q 469 599 517 593 q 382 606 422 606 q 224 593 299 606 l 224 429 q 469 381 390 406 q 576 316 547 357 q 606 196 606 275 q 577 69 606 117 q 485 1 549 22 q 314 -21 421 -21 q 63 19 194 -21 l 85 131 q 313 89 192 89 q 386 93 354 89 q 460 108 418 97 l 460 272 q 204 321 281 297 q 103 384 128 344 q 78 508 78 424 m 342 900 l 457 989 l 506 942 l 368 781 q 354 772 361 772 l 329 772 q 315 781 322 772 l 178 942 l 226 989 l 342 900 z "},"ş":{"ha":668,"x_min":63,"x_max":606,"o":"m 606 196 q 555 42 606 92 q 385 -18 504 -8 q 417 -126 417 -68 q 381 -208 417 -178 q 283 -239 344 -239 q 189 -217 238 -239 l 199 -149 l 247 -149 q 294 -139 281 -149 q 307 -104 307 -129 l 307 -21 q 63 19 190 -19 l 85 131 q 313 89 192 89 q 386 93 354 89 q 460 108 418 97 l 460 272 q 204 321 281 297 q 103 384 128 344 q 78 508 78 424 q 141 665 78 615 q 340 715 204 715 q 571 685 461 715 l 551 583 q 469 599 517 593 q 382 606 422 606 q 224 593 299 606 l 224 429 q 469 381 390 406 q 576 316 547 357 q 606 196 606 275 z "},"ŝ":{"ha":668,"x_min":63,"x_max":606,"o":"m 63 0 m 78 508 q 141 665 78 615 q 340 715 204 715 q 571 685 461 715 l 551 583 q 469 599 517 593 q 382 606 422 606 q 224 593 299 606 l 224 429 q 469 381 390 406 q 576 316 547 357 q 606 196 606 275 q 577 69 606 117 q 485 1 549 22 q 314 -21 421 -21 q 63 19 194 -21 l 85 131 q 313 89 192 89 q 386 93 354 89 q 460 108 418 97 l 460 272 q 204 321 281 297 q 103 384 128 344 q 78 508 78 424 m 178 819 l 315 981 q 329 989 322 989 l 354 989 q 368 981 361 989 l 506 819 l 457 772 l 342 861 l 226 772 l 178 819 z "},"ș":{"ha":668,"x_min":63,"x_max":606,"o":"m 63 0 m 78 508 q 141 665 78 615 q 340 715 204 715 q 571 685 461 715 l 551 583 q 469 599 517 593 q 382 606 422 606 q 224 593 299 606 l 224 429 q 469 381 390 406 q 576 316 547 357 q 606 196 606 275 q 577 69 606 117 q 485 1 549 22 q 314 -21 421 -21 q 63 19 194 -21 l 85 131 q 313 89 192 89 q 386 93 354 89 q 460 108 418 97 l 460 272 q 204 321 281 297 q 103 384 128 344 q 78 508 78 424 m 282 -379 l 311 -243 q 257 -219 274 -239 q 240 -151 240 -199 q 262 -77 240 -99 q 335 -56 283 -56 q 408 -77 386 -56 q 429 -151 429 -99 q 419 -227 429 -197 q 385 -308 410 -257 l 342 -397 l 282 -379 z "},"ß":{"ha":875,"x_min":69,"x_max":813,"o":"m 556 -21 q 358 11 463 -21 l 381 122 q 475 98 425 107 q 569 89 525 89 q 674 99 640 89 l 674 272 q 522 346 567 321 q 463 390 478 371 q 447 438 447 408 q 462 491 447 467 q 507 551 476 515 q 564 628 544 593 q 583 710 583 664 q 542 799 583 771 q 417 828 501 828 q 306 817 367 828 l 306 0 l 167 0 l 167 599 l 69 599 l 69 694 l 167 694 q 202 838 174 785 q 286 914 231 890 q 433 938 342 938 q 651 886 581 938 q 722 729 722 835 q 689 606 722 667 q 569 450 656 544 q 719 371 668 407 q 792 293 771 335 q 813 189 813 251 q 751 29 813 79 q 556 -21 689 -21 z "},"t":{"ha":492,"x_min":69,"x_max":429,"o":"m 306 599 l 306 103 q 404 96 356 97 l 396 1 q 269 -14 318 -14 q 192 12 217 -14 q 167 90 167 38 l 167 599 l 69 599 l 69 694 l 167 694 l 167 843 l 306 878 l 306 694 l 429 694 l 429 599 l 306 599 z "},"ŧ":{"ha":492,"x_min":53,"x_max":429,"o":"m 306 599 l 306 410 l 419 410 l 419 369 q 409 324 419 335 q 363 313 399 313 l 306 313 l 306 103 q 404 96 356 97 l 396 1 q 269 -14 318 -14 q 192 12 217 -14 q 167 90 167 38 l 167 313 l 53 313 l 53 351 q 64 398 53 386 q 110 410 75 410 l 167 410 l 167 599 l 69 599 l 69 694 l 167 694 l 167 843 l 306 878 l 306 694 l 429 694 l 429 599 l 306 599 z "},"ť":{"ha":583,"x_min":69,"x_max":611,"o":"m 69 0 m 306 599 l 306 103 q 404 96 356 97 l 396 1 q 269 -14 318 -14 q 192 12 217 -14 q 167 90 167 38 l 167 599 l 69 599 l 69 694 l 167 694 l 167 843 l 306 878 l 306 694 l 429 694 l 429 599 l 306 599 m 464 649 l 493 785 q 439 809 456 789 q 422 876 422 829 q 444 951 422 929 q 517 972 465 972 q 590 951 568 972 q 611 876 611 929 q 601 801 611 831 q 567 719 592 771 l 524 631 l 464 649 z "},"ţ":{"ha":492,"x_min":69,"x_max":429,"o":"m 306 599 l 306 103 q 404 96 356 97 l 396 1 q 293 -12 336 -10 q 328 -126 328 -65 q 292 -208 328 -178 q 194 -239 256 -239 q 100 -217 149 -239 l 110 -149 l 158 -149 q 205 -139 192 -149 q 218 -104 218 -129 l 218 -6 q 167 90 167 15 l 167 599 l 69 599 l 69 694 l 167 694 l 167 843 l 306 878 l 306 694 l 429 694 l 429 599 l 306 599 z "},"ț":{"ha":492,"x_min":69,"x_max":429,"o":"m 69 0 m 306 599 l 306 103 q 404 96 356 97 l 396 1 q 269 -14 318 -14 q 192 12 217 -14 q 167 90 167 38 l 167 599 l 69 599 l 69 694 l 167 694 l 167 843 l 306 878 l 306 694 l 429 694 l 429 599 l 306 599 m 193 -379 l 222 -243 q 168 -219 185 -239 q 151 -151 151 -199 q 173 -77 151 -99 q 246 -56 194 -56 q 319 -77 297 -56 q 340 -151 340 -99 q 331 -227 340 -197 q 296 -308 321 -257 l 253 -397 l 193 -379 z "},"u":{"ha":800,"x_min":118,"x_max":675,"o":"m 675 0 l 611 0 l 574 69 q 452 6 518 26 q 301 -14 386 -14 q 163 22 207 -14 q 118 132 118 57 l 118 694 l 257 694 l 257 93 l 418 93 q 511 110 486 93 q 536 174 536 126 l 536 694 l 675 694 l 675 0 z "},"ú":{"ha":800,"x_min":118,"x_max":675,"o":"m 118 0 m 675 0 l 611 0 l 574 69 q 452 6 518 26 q 301 -14 386 -14 q 163 22 207 -14 q 118 132 118 57 l 118 694 l 257 694 l 257 93 l 418 93 q 511 110 486 93 q 536 174 536 126 l 536 694 l 675 694 l 675 0 m 282 831 l 493 983 q 504 989 500 989 q 515 982 510 989 l 575 908 q 585 892 585 897 q 575 876 585 885 l 538 846 q 507 832 526 838 l 313 783 l 282 831 z "},"ŭ":{"ha":800,"x_min":118,"x_max":675,"o":"m 118 0 m 675 0 l 611 0 l 574 69 q 452 6 518 26 q 301 -14 386 -14 q 163 22 207 -14 q 118 132 118 57 l 118 694 l 257 694 l 257 93 l 418 93 q 511 110 486 93 q 536 174 536 126 l 536 694 l 675 694 l 675 0 m 400 788 q 236 938 268 788 l 326 953 q 356 906 335 922 q 400 889 376 889 q 444 906 424 889 q 474 953 465 922 l 564 938 q 503 825 546 863 q 400 788 460 788 z "},"û":{"ha":800,"x_min":118,"x_max":675,"o":"m 118 0 m 675 0 l 611 0 l 574 69 q 452 6 518 26 q 301 -14 386 -14 q 163 22 207 -14 q 118 132 118 57 l 118 694 l 257 694 l 257 93 l 418 93 q 511 110 486 93 q 536 174 536 126 l 536 694 l 675 694 l 675 0 m 236 819 l 374 981 q 388 989 381 989 l 413 989 q 426 981 419 989 l 564 819 l 515 772 l 400 861 l 285 772 l 236 819 z "},"ü":{"ha":800,"x_min":118,"x_max":675,"o":"m 118 0 m 675 0 l 611 0 l 574 69 q 452 6 518 26 q 301 -14 386 -14 q 163 22 207 -14 q 118 132 118 57 l 118 694 l 257 694 l 257 93 l 418 93 q 511 110 486 93 q 536 174 536 126 l 536 694 l 675 694 l 675 0 m 274 799 q 215 815 229 799 q 201 878 201 832 q 215 941 201 924 q 274 958 229 958 q 331 941 317 958 q 344 878 344 924 q 331 815 344 832 q 274 799 317 799 m 528 799 q 469 815 483 799 q 456 878 456 832 q 469 941 456 924 q 528 958 483 958 q 585 941 571 958 q 599 878 599 924 q 585 815 599 832 q 528 799 571 799 z "},"ù":{"ha":800,"x_min":118,"x_max":675,"o":"m 118 0 m 675 0 l 611 0 l 574 69 q 452 6 518 26 q 301 -14 386 -14 q 163 22 207 -14 q 118 132 118 57 l 118 694 l 257 694 l 257 93 l 418 93 q 511 110 486 93 q 536 174 536 126 l 536 694 l 675 694 l 675 0 m 326 818 q 296 832 307 824 l 258 863 q 249 878 249 871 q 258 894 249 883 l 318 968 q 329 975 324 975 q 340 969 333 975 l 551 817 l 521 769 l 326 818 z "},"ű":{"ha":800,"x_min":118,"x_max":719,"o":"m 118 0 m 675 0 l 611 0 l 574 69 q 452 6 518 26 q 301 -14 386 -14 q 163 22 207 -14 q 118 132 118 57 l 118 694 l 257 694 l 257 93 l 418 93 q 511 110 486 93 q 536 174 536 126 l 536 694 l 675 694 l 675 0 m 136 838 l 321 983 q 332 989 328 989 q 343 982 338 989 l 404 907 q 413 892 413 896 q 407 881 413 886 l 365 846 q 335 832 353 836 l 167 790 l 136 838 m 443 838 l 628 983 q 639 989 635 989 q 650 982 644 989 l 711 907 q 719 892 719 896 q 714 881 719 886 l 672 846 q 642 832 660 836 l 474 790 l 443 838 z "},"ū":{"ha":800,"x_min":118,"x_max":675,"o":"m 118 0 m 675 0 l 611 0 l 574 69 q 452 6 518 26 q 301 -14 386 -14 q 163 22 207 -14 q 118 132 118 57 l 118 694 l 257 694 l 257 93 l 418 93 q 511 110 486 93 q 536 174 536 126 l 536 694 l 675 694 l 675 0 m 293 814 q 242 827 253 814 q 231 878 231 840 l 231 926 l 507 926 q 558 914 547 926 q 568 864 568 901 l 568 814 l 293 814 z "},"ų":{"ha":800,"x_min":118,"x_max":707,"o":"m 707 -215 q 601 -239 653 -239 q 509 -206 543 -239 q 475 -115 475 -172 q 509 -35 475 -71 q 600 19 543 1 l 574 69 q 452 6 518 26 q 301 -14 386 -14 q 163 22 207 -14 q 118 132 118 57 l 118 694 l 257 694 l 257 93 l 418 93 q 511 110 486 93 q 536 174 536 126 l 536 694 l 675 694 l 675 0 l 674 0 l 646 -6 q 597 -28 608 -15 q 585 -72 585 -40 l 585 -101 q 625 -149 585 -149 l 696 -149 l 707 -215 z "},"ů":{"ha":800,"x_min":118,"x_max":675,"o":"m 118 0 m 675 0 l 611 0 l 574 69 q 452 6 518 26 q 301 -14 386 -14 q 163 22 207 -14 q 118 132 118 57 l 118 694 l 257 694 l 257 93 l 418 93 q 511 110 486 93 q 536 174 536 126 l 536 694 l 675 694 l 675 0 m 400 749 q 295 783 328 749 q 263 886 263 817 q 295 989 263 956 q 400 1022 328 1022 q 504 989 472 1022 q 536 886 536 956 q 504 783 536 817 q 400 749 472 749 m 399 821 q 443 827 429 821 q 457 857 457 833 l 457 950 l 403 950 q 355 944 369 950 q 340 915 340 938 l 340 821 l 399 821 z "},"ũ":{"ha":800,"x_min":118,"x_max":675,"o":"m 118 0 m 675 0 l 611 0 l 574 69 q 452 6 518 26 q 301 -14 386 -14 q 163 22 207 -14 q 118 132 118 57 l 118 694 l 257 694 l 257 93 l 418 93 q 511 110 486 93 q 536 174 536 126 l 536 694 l 675 694 l 675 0 m 429 783 q 392 794 410 783 q 332 843 375 804 l 240 797 l 201 861 q 315 939 281 919 q 371 958 349 958 q 406 949 389 958 q 468 899 422 939 l 560 944 l 599 881 q 490 804 526 825 q 429 783 453 783 z "},"v":{"ha":639,"x_min":8,"x_max":631,"o":"m 146 694 l 313 118 l 326 118 l 493 694 l 631 694 l 425 0 l 214 0 l 8 694 l 146 694 z "},"w":{"ha":975,"x_min":8,"x_max":967,"o":"m 967 694 l 796 0 l 604 0 l 488 494 l 371 0 l 179 0 l 8 694 l 146 694 l 278 118 l 292 118 l 424 694 l 551 694 l 683 118 l 697 118 l 829 694 l 967 694 z "},"ẃ":{"ha":975,"x_min":8,"x_max":967,"o":"m 8 0 m 967 694 l 796 0 l 604 0 l 488 494 l 371 0 l 179 0 l 8 694 l 146 694 l 278 118 l 292 118 l 424 694 l 551 694 l 683 118 l 697 118 l 829 694 l 967 694 m 369 831 l 581 983 q 592 989 588 989 q 603 982 597 989 l 663 908 q 672 892 672 897 q 663 876 672 885 l 625 846 q 594 832 614 838 l 400 783 l 369 831 z "},"ŵ":{"ha":975,"x_min":8,"x_max":967,"o":"m 8 0 m 967 694 l 796 0 l 604 0 l 488 494 l 371 0 l 179 0 l 8 694 l 146 694 l 278 118 l 292 118 l 424 694 l 551 694 l 683 118 l 697 118 l 829 694 l 967 694 m 324 819 l 461 981 q 475 989 468 989 l 500 989 q 514 981 507 989 l 651 819 l 603 772 l 488 861 l 372 772 l 324 819 z "},"ẅ":{"ha":975,"x_min":8,"x_max":967,"o":"m 8 0 m 967 694 l 796 0 l 604 0 l 488 494 l 371 0 l 179 0 l 8 694 l 146 694 l 278 118 l 292 118 l 424 694 l 551 694 l 683 118 l 697 118 l 829 694 l 967 694 m 361 799 q 303 815 317 799 q 289 878 289 832 q 303 941 289 924 q 361 958 317 958 q 418 941 404 958 q 432 878 432 924 q 418 815 432 832 q 361 799 404 799 m 615 799 q 557 815 571 799 q 543 878 543 832 q 557 941 543 924 q 615 958 571 958 q 672 941 658 958 q 686 878 686 924 q 672 815 686 832 q 615 799 658 799 z "},"ẁ":{"ha":975,"x_min":8,"x_max":967,"o":"m 8 0 m 967 694 l 796 0 l 604 0 l 488 494 l 371 0 l 179 0 l 8 694 l 146 694 l 278 118 l 292 118 l 424 694 l 551 694 l 683 118 l 697 118 l 829 694 l 967 694 m 414 818 q 383 832 394 824 l 346 863 q 336 878 336 871 q 346 894 336 883 l 406 968 q 417 975 411 975 q 428 969 421 975 l 639 817 l 608 769 l 414 818 z "},"x":{"ha":703,"x_min":36,"x_max":667,"o":"m 518 0 l 344 254 l 183 0 l 36 0 l 271 361 l 43 694 l 192 694 l 358 450 l 513 694 l 660 694 l 431 344 l 667 0 l 518 0 z "},"y":{"ha":625,"x_min":8,"x_max":617,"o":"m 617 694 l 418 42 q 347 -129 385 -68 q 258 -217 310 -190 q 129 -243 207 -243 q 8 -228 61 -243 l 14 -154 l 110 -142 q 192 -122 164 -135 q 239 -81 221 -108 q 272 0 257 -53 l 285 42 l 207 42 l 8 694 l 146 694 l 306 160 l 319 160 l 479 694 l 617 694 z "},"ý":{"ha":625,"x_min":8,"x_max":617,"o":"m 8 0 m 617 694 l 418 42 q 347 -129 385 -68 q 258 -217 310 -190 q 129 -243 207 -243 q 8 -228 61 -243 l 14 -154 l 110 -142 q 192 -122 164 -135 q 239 -81 221 -108 q 272 0 257 -53 l 285 42 l 207 42 l 8 694 l 146 694 l 306 160 l 319 160 l 479 694 l 617 694 m 194 831 l 406 983 q 417 989 413 989 q 428 982 422 989 l 488 908 q 497 892 497 897 q 488 876 497 885 l 450 846 q 419 832 439 838 l 225 783 l 194 831 z "},"ŷ":{"ha":625,"x_min":8,"x_max":617,"o":"m 8 0 m 617 694 l 418 42 q 347 -129 385 -68 q 258 -217 310 -190 q 129 -243 207 -243 q 8 -228 61 -243 l 14 -154 l 110 -142 q 192 -122 164 -135 q 239 -81 221 -108 q 272 0 257 -53 l 285 42 l 207 42 l 8 694 l 146 694 l 306 160 l 319 160 l 479 694 l 617 694 m 149 819 l 286 981 q 300 989 293 989 l 325 989 q 339 981 332 989 l 476 819 l 428 772 l 313 861 l 197 772 l 149 819 z "},"ÿ":{"ha":625,"x_min":8,"x_max":617,"o":"m 8 0 m 617 694 l 418 42 q 347 -129 385 -68 q 258 -217 310 -190 q 129 -243 207 -243 q 8 -228 61 -243 l 14 -154 l 110 -142 q 192 -122 164 -135 q 239 -81 221 -108 q 272 0 257 -53 l 285 42 l 207 42 l 8 694 l 146 694 l 306 160 l 319 160 l 479 694 l 617 694 m 186 799 q 128 815 142 799 q 114 878 114 832 q 128 941 114 924 q 186 958 142 958 q 243 941 229 958 q 257 878 257 924 q 243 815 257 832 q 186 799 229 799 m 440 799 q 382 815 396 799 q 368 878 368 832 q 382 941 368 924 q 440 958 396 958 q 497 941 483 958 q 511 878 511 924 q 497 815 511 832 q 440 799 483 799 z "},"ỳ":{"ha":625,"x_min":8,"x_max":617,"o":"m 8 0 m 617 694 l 418 42 q 347 -129 385 -68 q 258 -217 310 -190 q 129 -243 207 -243 q 8 -228 61 -243 l 14 -154 l 110 -142 q 192 -122 164 -135 q 239 -81 221 -108 q 272 0 257 -53 l 285 42 l 207 42 l 8 694 l 146 694 l 306 160 l 319 160 l 479 694 l 617 694 m 239 818 q 208 832 219 824 l 171 863 q 161 878 161 871 q 171 894 161 883 l 231 968 q 242 975 236 975 q 253 969 246 975 l 464 817 l 433 769 l 239 818 z "},"z":{"ha":657,"x_min":56,"x_max":601,"o":"m 424 594 l 94 594 l 83 694 l 601 694 l 601 618 l 228 108 l 232 100 l 594 100 l 594 0 l 56 0 l 56 76 l 429 586 l 424 594 z "},"ź":{"ha":657,"x_min":56,"x_max":601,"o":"m 56 0 m 424 594 l 94 594 l 83 694 l 601 694 l 601 618 l 228 108 l 232 100 l 594 100 l 594 0 l 56 0 l 56 76 l 429 586 l 424 594 m 239 831 l 450 983 q 461 989 457 989 q 472 982 467 989 l 532 908 q 542 892 542 897 q 532 876 542 885 l 494 846 q 464 832 483 838 l 269 783 l 239 831 z "},"ž":{"ha":657,"x_min":56,"x_max":601,"o":"m 56 0 m 424 594 l 94 594 l 83 694 l 601 694 l 601 618 l 228 108 l 232 100 l 594 100 l 594 0 l 56 0 l 56 76 l 429 586 l 424 594 m 357 900 l 472 989 l 521 942 l 383 781 q 369 772 376 772 l 344 772 q 331 781 338 772 l 193 942 l 242 989 l 357 900 z "},"ż":{"ha":657,"x_min":56,"x_max":601,"o":"m 56 0 m 424 594 l 94 594 l 83 694 l 601 694 l 601 618 l 228 108 l 232 100 l 594 100 l 594 0 l 56 0 l 56 76 l 429 586 l 424 594 m 358 815 q 290 833 307 815 q 272 899 272 850 q 290 967 272 949 q 358 985 308 985 q 424 967 407 985 q 442 899 442 949 q 425 833 442 850 q 358 815 408 815 z "},"ﬀ":{"ha":925,"x_min":69,"x_max":925,"o":"m 69 0 m 306 836 l 306 694 l 417 694 l 417 599 l 306 599 l 306 0 l 167 0 l 167 599 l 69 599 l 69 694 l 167 694 q 189 842 172 790 q 240 916 206 894 q 335 938 274 938 q 463 924 401 938 l 454 824 l 306 836 m 768 836 l 768 694 l 879 694 l 879 599 l 768 599 l 768 0 l 629 0 l 629 599 l 532 599 l 532 694 l 629 694 q 651 842 635 790 q 702 916 668 894 q 797 938 736 938 q 925 924 864 938 l 917 824 l 768 836 z "},"ﬃ":{"ha":1314,"x_min":69,"x_max":1204,"o":"m 69 0 m 306 836 l 306 694 l 417 694 l 417 599 l 306 599 l 306 0 l 167 0 l 167 599 l 69 599 l 69 694 l 167 694 q 189 842 172 790 q 240 916 206 894 q 335 938 274 938 q 463 924 401 938 l 454 824 l 306 836 m 768 836 l 768 694 l 879 694 l 879 599 l 768 599 l 768 0 l 629 0 l 629 599 l 532 599 l 532 694 l 629 694 q 651 842 635 790 q 702 916 668 894 q 797 938 736 938 q 925 924 864 938 l 917 824 l 768 836 m 1189 706 l 1189 0 l 1050 0 l 1050 685 l 1189 706 m 1121 815 q 1052 833 1069 815 q 1035 899 1035 850 q 1053 967 1035 949 q 1121 985 1071 985 q 1187 967 1169 985 q 1204 899 1204 949 q 1188 833 1204 850 q 1121 815 1171 815 z "},"ﬄ":{"ha":1301,"x_min":69,"x_max":1246,"o":"m 69 0 m 306 836 l 306 694 l 417 694 l 417 599 l 306 599 l 306 0 l 167 0 l 167 599 l 69 599 l 69 694 l 167 694 q 189 842 172 790 q 240 916 206 894 q 335 938 274 938 q 463 924 401 938 l 454 824 l 306 836 m 768 836 l 768 694 l 879 694 l 879 599 l 768 599 l 768 0 l 629 0 l 629 599 l 532 599 l 532 694 l 629 694 q 651 842 635 790 q 702 916 668 894 q 797 938 736 938 q 925 924 864 938 l 917 824 l 768 836 m 1182 103 q 1246 96 1210 99 l 1238 1 q 1146 -14 1186 -14 q 1068 12 1093 -14 q 1043 90 1043 38 l 1043 903 l 1182 924 l 1182 103 z "},"ﬁ":{"ha":851,"x_min":69,"x_max":742,"o":"m 69 0 m 306 836 l 306 694 l 417 694 l 417 599 l 306 599 l 306 0 l 167 0 l 167 599 l 69 599 l 69 694 l 167 694 q 189 842 172 790 q 240 916 206 894 q 335 938 274 938 q 463 924 401 938 l 454 824 l 306 836 m 726 706 l 726 0 l 588 0 l 588 685 l 726 706 m 658 815 q 590 833 607 815 q 572 899 572 850 q 590 967 572 949 q 658 985 608 985 q 724 967 707 985 q 742 899 742 949 q 725 833 742 850 q 658 815 708 815 z "},"ﬂ":{"ha":839,"x_min":69,"x_max":783,"o":"m 69 0 m 306 836 l 306 694 l 417 694 l 417 599 l 306 599 l 306 0 l 167 0 l 167 599 l 69 599 l 69 694 l 167 694 q 189 842 172 790 q 240 916 206 894 q 335 938 274 938 q 463 924 401 938 l 454 824 l 306 836 m 719 103 q 783 96 747 99 l 775 1 q 683 -14 724 -14 q 606 12 631 -14 q 581 90 581 38 l 581 903 l 719 924 l 719 103 z "},"ª":{"ha":550,"x_min":39,"x_max":490,"o":"m 285 1038 q 444 1002 397 1038 q 490 882 490 967 l 489 486 l 433 486 l 401 540 q 208 475 324 475 q 78 513 118 475 q 39 639 39 551 q 61 748 39 714 q 147 794 83 782 q 353 806 211 806 l 369 806 l 369 935 q 265 944 329 944 q 79 919 189 944 l 64 1006 q 167 1028 107 1019 q 285 1038 228 1038 m 283 565 q 351 578 333 565 q 369 625 369 590 l 369 738 l 235 738 q 166 724 185 738 q 147 676 147 711 l 147 565 l 283 565 m 63 343 q 75 390 63 378 q 125 401 88 401 l 465 401 l 465 361 q 453 315 465 325 q 403 304 442 304 l 63 304 l 63 343 z "},"º":{"ha":694,"x_min":97,"x_max":597,"o":"m 347 489 q 192 514 244 489 q 118 599 139 539 q 97 778 97 660 q 118 956 97 896 q 192 1042 139 1017 q 347 1067 244 1067 q 503 1042 451 1067 q 576 958 556 1018 q 597 778 597 897 q 576 599 597 660 q 503 513 556 538 q 347 489 450 489 m 419 586 q 463 592 451 586 q 474 614 474 597 l 474 969 l 275 969 q 232 964 243 969 q 221 942 221 958 l 221 586 l 419 586 m 128 344 q 142 391 128 379 q 196 403 156 403 l 568 403 l 568 363 q 555 317 568 328 q 500 306 542 306 l 128 306 l 128 344 z "},"Δ":{"ha":921,"x_min":69,"x_max":851,"o":"m 69 0 m 851 72 l 825 0 l 96 0 l 69 72 l 376 868 l 546 868 l 851 72 m 629 111 q 669 143 669 111 q 667 163 669 156 l 456 714 l 435 714 l 203 111 l 629 111 z "},"Ω":{"ha":925,"x_min":63,"x_max":863,"o":"m 231 379 q 245 301 231 326 q 285 267 260 275 q 351 260 310 260 l 331 0 l 63 0 l 63 88 l 243 99 l 251 193 q 145 240 181 208 q 96 336 110 272 q 82 521 82 400 q 114 753 82 676 q 226 860 146 831 q 463 889 306 889 q 699 860 619 889 q 811 753 779 831 q 843 521 843 676 q 829 336 843 400 q 780 240 815 272 q 674 193 744 208 l 682 99 l 863 88 l 863 0 l 594 0 l 574 260 l 694 260 l 694 694 q 670 766 694 750 q 592 782 646 782 l 231 782 l 231 379 z "},"π":{"ha":857,"x_min":111,"x_max":771,"o":"m 690 107 q 754 100 738 101 l 746 6 q 654 -10 686 -10 q 576 16 601 -10 q 551 94 551 42 l 551 576 l 389 576 q 318 524 325 576 l 236 0 l 136 0 l 178 585 l 111 601 l 111 694 l 656 694 q 664 744 663 714 l 771 735 q 765 641 771 672 q 742 595 758 610 q 690 578 725 581 l 690 107 z "},"ء":{"ha":588,"x_min":28,"x_max":560,"o":"m 560 286 l 560 168 l 28 25 l 28 143 l 167 181 q 126 365 126 242 q 215 611 126 535 q 503 688 304 688 l 503 563 q 361 547 431 563 q 244 506 292 532 l 244 294 q 256 238 244 256 q 294 221 267 221 q 351 231 318 221 l 560 286 z "},"ا":{"ha":389,"x_min":139,"x_max":250,"o":"m 139 875 l 250 875 l 250 0 l 139 0 l 139 875 z "},"ﺎ":{"ha":389,"x_min":139,"x_max":417,"o":"m 139 875 l 250 875 l 250 125 l 417 125 l 417 0 l 139 0 l 139 875 z "},"أ":{"ha":389,"x_min":36,"x_max":353,"o":"m 36 0 m 139 653 l 250 653 l 250 0 l 139 0 l 139 653 m 353 951 l 353 888 l 36 803 l 36 867 l 97 883 q 81 986 81 919 q 142 1138 81 1094 q 319 1181 203 1181 l 319 1103 q 239 1094 279 1103 q 171 1069 199 1086 l 169 947 q 176 922 169 929 q 199 914 183 914 q 233 919 215 914 l 353 951 z "},"ﺄ":{"ha":389,"x_min":36,"x_max":417,"o":"m 36 0 m 139 653 l 250 653 l 250 125 l 417 125 l 417 0 l 139 0 l 139 653 m 353 951 l 353 888 l 36 803 l 36 867 l 97 883 q 81 986 81 919 q 142 1138 81 1094 q 319 1181 203 1181 l 319 1103 q 239 1094 279 1103 q 171 1069 199 1086 l 169 947 q 176 922 169 929 q 199 914 183 914 q 233 919 215 914 l 353 951 z "},"إ":{"ha":389,"x_min":36,"x_max":353,"o":"m 36 0 m 139 875 l 250 875 l 250 0 l 139 0 l 139 875 m 353 -339 l 353 -403 l 36 -487 l 36 -424 l 97 -407 q 81 -304 81 -372 q 142 -153 81 -196 q 319 -110 203 -110 l 319 -187 q 239 -196 279 -187 q 171 -221 199 -204 l 169 -343 q 176 -369 169 -361 q 199 -376 183 -376 q 233 -371 215 -376 l 353 -339 z "},"ﺈ":{"ha":389,"x_min":36,"x_max":417,"o":"m 36 0 m 139 875 l 250 875 l 250 125 l 417 125 l 417 0 l 139 0 l 139 875 m 353 -339 l 353 -403 l 36 -487 l 36 -424 l 97 -407 q 81 -304 81 -372 q 142 -153 81 -196 q 319 -110 203 -110 l 319 -187 q 239 -196 279 -187 q 171 -221 199 -204 l 169 -343 q 176 -369 169 -361 q 199 -376 183 -376 q 233 -371 215 -376 l 353 -339 z "},"آ":{"ha":389,"x_min":33,"x_max":350,"o":"m 33 0 m 139 653 l 250 653 l 250 0 l 139 0 l 139 653 m 217 849 q 185 858 199 849 q 135 904 171 868 l 53 867 l 33 906 q 123 965 96 950 q 168 981 150 981 q 195 972 183 981 q 249 924 207 963 l 331 961 l 350 922 q 265 865 294 881 q 217 849 236 849 z "},"ﺂ":{"ha":389,"x_min":33,"x_max":417,"o":"m 33 0 m 139 653 l 250 653 l 250 125 l 417 125 l 417 0 l 139 0 l 139 653 m 217 849 q 185 858 199 849 q 135 904 171 868 l 53 867 l 33 906 q 123 965 96 950 q 168 981 150 981 q 195 972 183 981 q 249 924 207 963 l 331 961 l 350 922 q 265 865 294 881 q 217 849 236 849 z "},"ٱ":{"ha":389,"x_min":-24,"x_max":375,"o":"m 0 0 m 139 653 l 250 653 l 250 0 l 139 0 l 139 653 m 232 1139 q 343 1115 311 1139 q 375 1035 375 1092 l 375 819 l -24 819 l -24 882 l 18 882 q 76 1072 22 1004 q 232 1139 131 1139 m 292 882 l 292 1068 q 232 1075 272 1075 q 135 1028 167 1075 q 101 882 104 982 l 292 882 z "},"ﭑ":{"ha":389,"x_min":-24,"x_max":417,"o":"m 0 0 m 139 653 l 250 653 l 250 125 l 417 125 l 417 0 l 139 0 l 139 653 m 232 1139 q 343 1115 311 1139 q 375 1035 375 1092 l 375 819 l -24 819 l -24 882 l 18 882 q 76 1072 22 1004 q 232 1139 131 1139 m 292 882 l 292 1068 q 232 1075 272 1075 q 135 1028 167 1075 q 101 882 104 982 l 292 882 z "},"ٮ":{"ha":1228,"x_min":97,"x_max":1089,"o":"m 292 0 q 177 28 219 0 q 116 117 135 56 q 97 286 97 179 q 108 417 97 349 q 136 533 118 486 l 242 515 q 208 308 208 403 q 231 125 208 193 l 978 125 l 978 653 l 1089 653 l 1089 0 l 292 0 z "},"ب":{"ha":1228,"x_min":97,"x_max":1089,"o":"m 97 0 m 292 0 q 177 28 219 0 q 116 117 135 56 q 97 286 97 179 q 108 417 97 349 q 136 533 118 486 l 242 515 q 208 308 208 403 q 231 125 208 193 l 978 125 l 978 653 l 1089 653 l 1089 0 l 292 0 m 610 -278 q 561 -251 589 -279 q 533 -201 533 -224 q 560 -153 533 -179 q 610 -125 588 -126 q 659 -153 632 -126 q 686 -201 686 -179 q 658 -251 686 -222 q 610 -278 631 -279 z "},"ﺐ":{"ha":1228,"x_min":97,"x_max":1256,"o":"m 97 0 m 1256 125 l 1256 0 l 292 0 q 177 28 219 0 q 116 117 135 56 q 97 286 97 179 q 108 417 97 349 q 136 533 118 486 l 242 515 q 208 308 208 403 q 231 125 208 193 l 978 125 l 978 653 l 1089 653 l 1089 125 l 1256 125 m 610 -278 q 561 -251 589 -279 q 533 -201 533 -224 q 560 -153 533 -179 q 610 -125 588 -126 q 659 -153 632 -126 q 686 -201 686 -179 q 658 -251 686 -222 q 610 -278 631 -279 z "},"ﺒ":{"ha":444,"x_min":-28,"x_max":472,"o":"m 0 0 m 472 125 l 472 0 l -28 0 l -28 125 l 194 125 l 194 653 l 306 653 l 306 125 l 472 125 m 250 -264 q 201 -237 229 -265 q 174 -187 174 -210 q 201 -139 174 -165 q 250 -111 228 -112 q 299 -139 272 -112 q 326 -187 326 -165 q 299 -237 326 -208 q 250 -264 271 -265 z "},"ﺑ":{"ha":444,"x_min":-28,"x_max":326,"o":"m 0 0 m -28 125 l 194 125 l 194 653 l 306 653 l 306 0 l -28 0 l -28 125 m 250 -264 q 201 -237 229 -265 q 174 -187 174 -210 q 201 -139 174 -165 q 250 -111 228 -112 q 299 -139 272 -112 q 326 -187 326 -165 q 299 -237 326 -208 q 250 -264 271 -265 z "},"پ":{"ha":1228,"x_min":97,"x_max":1089,"o":"m 97 0 m 292 0 q 177 28 219 0 q 116 117 135 56 q 97 286 97 179 q 108 417 97 349 q 136 533 118 486 l 242 515 q 208 308 208 403 q 231 125 208 193 l 978 125 l 978 653 l 1089 653 l 1089 0 l 292 0 z "},"ﭗ":{"ha":1228,"x_min":97,"x_max":1256,"o":"m 97 0 m 1256 125 l 1256 0 l 292 0 q 177 28 219 0 q 116 117 135 56 q 97 286 97 179 q 108 417 97 349 q 136 533 118 486 l 242 515 q 208 308 208 403 q 231 125 208 193 l 978 125 l 978 653 l 1089 653 l 1089 125 l 1256 125 m 608 -486 q 560 -460 588 -487 q 532 -410 532 -432 q 559 -361 532 -387 q 608 -333 586 -335 q 658 -361 631 -335 q 685 -410 685 -387 q 657 -459 685 -431 q 608 -486 629 -487 m 508 -278 q 460 -251 488 -279 q 432 -201 432 -224 q 459 -153 432 -179 q 508 -125 486 -126 q 558 -153 531 -126 q 585 -201 585 -179 q 557 -251 585 -222 q 508 -278 529 -279 m 708 -278 q 660 -251 688 -279 q 632 -201 632 -224 q 659 -153 632 -179 q 708 -125 686 -126 q 758 -153 731 -126 q 785 -201 785 -179 q 757 -251 785 -222 q 708 -278 729 -279 z "},"ﭙ":{"ha":444,"x_min":-28,"x_max":472,"o":"m 0 0 m 472 125 l 472 0 l -28 0 l -28 125 l 194 125 l 194 653 l 306 653 l 306 125 l 472 125 m 249 -472 q 200 -446 228 -474 q 172 -396 172 -418 q 199 -347 172 -374 q 249 -319 226 -321 q 298 -347 271 -321 q 325 -396 325 -374 q 297 -445 325 -417 q 249 -472 269 -474 m 149 -264 q 100 -237 128 -265 q 72 -187 72 -210 q 99 -139 72 -165 q 149 -111 126 -112 q 198 -139 171 -112 q 225 -187 225 -165 q 197 -237 225 -208 q 149 -264 169 -265 m 349 -264 q 300 -237 328 -265 q 272 -187 272 -210 q 299 -139 272 -165 q 349 -111 326 -112 q 398 -139 371 -112 q 425 -187 425 -165 q 397 -237 425 -208 q 349 -264 369 -265 z "},"ﭘ":{"ha":444,"x_min":-28,"x_max":338,"o":"m 0 0 m -28 125 l 194 125 l 194 653 l 306 653 l 306 0 l -28 0 l -28 125 m 161 -453 q 113 -426 140 -454 q 85 -376 85 -399 q 112 -328 85 -354 q 161 -300 139 -301 q 210 -328 183 -301 q 238 -376 238 -354 q 210 -426 238 -397 q 161 -453 182 -454 m 61 -244 q 13 -218 40 -246 q -15 -168 -15 -190 q 12 -119 -15 -146 q 61 -92 39 -93 q 110 -119 83 -93 q 138 -168 138 -146 q 110 -217 138 -189 q 61 -244 82 -246 m 261 -244 q 213 -218 240 -246 q 185 -168 185 -190 q 212 -119 185 -146 q 261 -92 239 -93 q 310 -119 283 -93 q 338 -168 338 -146 q 310 -217 338 -189 q 261 -244 282 -246 z "},"ت":{"ha":1228,"x_min":97,"x_max":1089,"o":"m 97 0 m 292 0 q 177 28 219 0 q 116 117 135 56 q 97 286 97 179 q 108 417 97 349 q 136 533 118 486 l 242 515 q 208 308 208 403 q 231 125 208 193 l 978 125 l 978 653 l 1089 653 l 1089 0 l 292 0 m 510 681 q 461 707 489 679 q 433 757 433 735 q 460 806 433 779 q 510 833 488 832 q 559 806 532 832 q 586 757 586 779 q 558 708 586 736 q 510 681 531 679 m 710 681 q 661 707 689 679 q 633 757 633 735 q 660 806 633 779 q 710 833 688 832 q 759 806 732 832 q 786 757 786 779 q 758 708 786 736 q 710 681 731 679 z "},"ﺖ":{"ha":1228,"x_min":97,"x_max":1256,"o":"m 97 0 m 1256 125 l 1256 0 l 292 0 q 177 28 219 0 q 116 117 135 56 q 97 286 97 179 q 108 417 97 349 q 136 533 118 486 l 242 515 q 208 308 208 403 q 231 125 208 193 l 978 125 l 978 653 l 1089 653 l 1089 125 l 1256 125 m 510 681 q 461 707 489 679 q 433 757 433 735 q 460 806 433 779 q 510 833 488 832 q 559 806 532 832 q 586 757 586 779 q 558 708 586 736 q 510 681 531 679 m 710 681 q 661 707 689 679 q 633 757 633 735 q 660 806 633 779 q 710 833 688 832 q 759 806 732 832 q 786 757 786 779 q 758 708 786 736 q 710 681 731 679 z "},"ﺘ":{"ha":444,"x_min":-28,"x_max":472,"o":"m 0 0 m 472 125 l 472 0 l -28 0 l -28 125 l 194 125 l 194 653 l 306 653 l 306 125 l 472 125 m 150 819 q 101 846 129 818 q 74 896 74 874 q 101 944 74 918 q 150 972 128 971 q 199 944 172 971 q 226 896 226 918 q 199 847 226 875 q 150 819 171 818 m 350 819 q 301 846 329 818 q 274 896 274 874 q 301 944 274 918 q 350 972 328 971 q 399 944 372 971 q 426 896 426 918 q 399 847 426 875 q 350 819 371 818 z "},"ﺗ":{"ha":444,"x_min":-28,"x_max":426,"o":"m 0 0 m -28 125 l 194 125 l 194 653 l 306 653 l 306 0 l -28 0 l -28 125 m 150 819 q 101 846 129 818 q 74 896 74 874 q 101 944 74 918 q 150 972 128 971 q 199 944 172 971 q 226 896 226 918 q 199 847 226 875 q 150 819 171 818 m 350 819 q 301 846 329 818 q 274 896 274 874 q 301 944 274 918 q 350 972 328 971 q 399 944 372 971 q 426 896 426 918 q 399 847 426 875 q 350 819 371 818 z "},"ث":{"ha":1228,"x_min":97,"x_max":1089,"o":"m 97 0 m 292 0 q 177 28 219 0 q 116 117 135 56 q 97 286 97 179 q 108 417 97 349 q 136 533 118 486 l 242 515 q 208 308 208 403 q 231 125 208 193 l 978 125 l 978 653 l 1089 653 l 1089 0 l 292 0 m 510 681 q 461 707 489 679 q 433 757 433 735 q 460 806 433 779 q 510 833 488 832 q 559 806 532 832 q 586 757 586 779 q 558 708 586 736 q 510 681 531 679 m 710 681 q 661 707 689 679 q 633 757 633 735 q 660 806 633 779 q 710 833 688 832 q 759 806 732 832 q 786 757 786 779 q 758 708 786 736 q 710 681 731 679 m 610 889 q 561 915 589 888 q 533 965 533 943 q 560 1014 533 988 q 610 1042 588 1040 q 659 1014 632 1040 q 686 965 686 988 q 658 916 686 944 q 610 889 631 888 z "},"ﺚ":{"ha":1228,"x_min":97,"x_max":1256,"o":"m 97 0 m 1256 125 l 1256 0 l 292 0 q 177 28 219 0 q 116 117 135 56 q 97 286 97 179 q 108 417 97 349 q 136 533 118 486 l 242 515 q 208 308 208 403 q 231 125 208 193 l 978 125 l 978 653 l 1089 653 l 1089 125 l 1256 125 m 510 681 q 461 707 489 679 q 433 757 433 735 q 460 806 433 779 q 510 833 488 832 q 559 806 532 832 q 586 757 586 779 q 558 708 586 736 q 510 681 531 679 m 710 681 q 661 707 689 679 q 633 757 633 735 q 660 806 633 779 q 710 833 688 832 q 759 806 732 832 q 786 757 786 779 q 758 708 786 736 q 710 681 731 679 m 610 889 q 561 915 589 888 q 533 965 533 943 q 560 1014 533 988 q 610 1042 588 1040 q 659 1014 632 1040 q 686 965 686 988 q 658 916 686 944 q 610 889 631 888 z "},"ﺜ":{"ha":444,"x_min":-28,"x_max":472,"o":"m 0 0 m 472 125 l 472 0 l -28 0 l -28 125 l 194 125 l 194 653 l 306 653 l 306 125 l 472 125 m 150 819 q 101 846 129 818 q 74 896 74 874 q 101 944 74 918 q 150 972 128 971 q 199 944 172 971 q 226 896 226 918 q 199 847 226 875 q 150 819 171 818 m 350 819 q 301 846 329 818 q 274 896 274 874 q 301 944 274 918 q 350 972 328 971 q 399 944 372 971 q 426 896 426 918 q 399 847 426 875 q 350 819 371 818 m 250 1028 q 201 1054 229 1026 q 174 1104 174 1082 q 201 1153 174 1126 q 250 1181 228 1179 q 299 1153 272 1179 q 326 1104 326 1126 q 299 1055 326 1083 q 250 1028 271 1026 z "},"ﺛ":{"ha":444,"x_min":-28,"x_max":426,"o":"m 0 0 m -28 125 l 194 125 l 194 653 l 306 653 l 306 0 l -28 0 l -28 125 m 150 819 q 101 846 129 818 q 74 896 74 874 q 101 944 74 918 q 150 972 128 971 q 199 944 172 971 q 226 896 226 918 q 199 847 226 875 q 150 819 171 818 m 350 819 q 301 846 329 818 q 274 896 274 874 q 301 944 274 918 q 350 972 328 971 q 399 944 372 971 q 426 896 426 918 q 399 847 426 875 q 350 819 371 818 m 250 1028 q 201 1054 229 1026 q 174 1104 174 1082 q 201 1153 174 1126 q 250 1181 228 1179 q 299 1153 272 1179 q 326 1104 326 1126 q 299 1055 326 1083 q 250 1028 271 1026 z "},"ٹ":{"ha":1228,"x_min":97,"x_max":1089,"o":"m 97 0 m 292 0 q 177 28 219 0 q 116 117 135 56 q 97 286 97 179 q 108 417 97 349 q 136 533 118 486 l 242 515 q 208 308 208 403 q 231 125 208 193 l 978 125 l 978 653 l 1089 653 l 1089 0 l 292 0 m 679 972 q 766 949 742 972 q 790 868 790 926 l 790 681 l 392 681 l 392 743 l 433 743 l 433 1060 l 517 1060 l 517 893 q 581 952 542 932 q 679 972 619 972 m 707 743 l 707 897 q 647 908 682 908 q 550 868 582 908 q 517 743 518 828 l 707 743 z "},"ﭧ":{"ha":1228,"x_min":97,"x_max":1256,"o":"m 97 0 m 1256 125 l 1256 0 l 292 0 q 177 28 219 0 q 116 117 135 56 q 97 286 97 179 q 108 417 97 349 q 136 533 118 486 l 242 515 q 208 308 208 403 q 231 125 208 193 l 978 125 l 978 653 l 1089 653 l 1089 125 l 1256 125 m 679 972 q 766 949 742 972 q 790 868 790 926 l 790 681 l 392 681 l 392 743 l 433 743 l 433 1060 l 517 1060 l 517 893 q 581 952 542 932 q 679 972 619 972 m 707 743 l 707 897 q 647 908 682 908 q 550 868 582 908 q 517 743 518 828 l 707 743 z "},"ﭩ":{"ha":444,"x_min":-28,"x_max":472,"o":"m 0 0 m 472 125 l 472 0 l -28 0 l -28 125 l 194 125 l 194 653 l 306 653 l 306 125 l 472 125 m 319 1111 q 406 1088 382 1111 q 431 1007 431 1065 l 431 819 l 32 819 l 32 882 l 74 882 l 74 1199 l 157 1199 l 157 1032 q 221 1091 182 1071 q 319 1111 260 1111 m 347 882 l 347 1036 q 288 1047 322 1047 q 190 1007 222 1047 q 157 882 158 967 l 347 882 z "},"ﭨ":{"ha":444,"x_min":-28,"x_max":431,"o":"m 0 0 m -28 125 l 194 125 l 194 653 l 306 653 l 306 0 l -28 0 l -28 125 m 319 1111 q 406 1088 382 1111 q 431 1007 431 1065 l 431 819 l 32 819 l 32 882 l 74 882 l 74 1199 l 157 1199 l 157 1032 q 221 1091 182 1071 q 319 1111 260 1111 m 347 882 l 347 1036 q 288 1047 322 1047 q 190 1007 222 1047 q 157 882 158 967 l 347 882 z "},"ج":{"ha":771,"x_min":71,"x_max":771,"o":"m 771 233 q 429 210 556 233 q 246 136 303 188 q 189 -1 189 85 l 189 -247 q 385 -260 260 -260 q 488 -253 436 -260 q 619 -229 540 -246 l 636 -346 q 508 -374 585 -364 q 346 -385 432 -385 q 172 -360 229 -385 q 92 -270 114 -335 q 71 -72 71 -206 q 120 152 71 65 q 276 284 169 239 q 563 340 383 329 l 556 357 q 426 497 511 451 q 208 542 342 542 q 93 536 139 542 l 75 658 q 222 667 157 667 q 521 592 411 667 q 693 344 631 517 l 771 344 l 771 233 m 351 -18 q 378 31 351 4 q 428 58 406 57 q 477 31 450 57 q 504 -18 504 4 q 476 -67 504 -39 q 428 -94 449 -96 q 379 -68 407 -96 q 351 -18 351 -40 z "},"ﺞ":{"ha":794,"x_min":71,"x_max":822,"o":"m 822 125 l 822 0 l 744 0 q 680 18 704 0 q 640 78 656 36 l 578 242 q 284 173 379 229 q 189 -1 189 117 l 189 -247 q 385 -260 256 -260 q 490 -253 438 -260 q 619 -229 543 -246 l 636 -346 q 505 -374 582 -364 q 346 -385 428 -385 q 169 -358 226 -385 q 91 -267 111 -331 q 71 -72 71 -203 q 122 154 71 68 q 274 284 172 240 q 539 339 376 328 q 465 460 506 417 q 363 522 424 503 q 208 542 303 542 q 93 536 150 542 l 75 658 q 222 667 157 667 q 418 638 339 667 q 551 544 497 608 q 644 375 606 481 l 739 125 l 822 125 m 344 -39 q 372 10 344 -17 q 421 38 399 36 q 470 10 443 36 q 497 -39 497 -17 q 469 -88 497 -60 q 421 -115 442 -117 q 372 -89 400 -117 q 344 -39 344 -61 z "},"ﺠ":{"ha":794,"x_min":-28,"x_max":822,"o":"m 0 0 m 822 125 l 822 0 l 744 0 q 680 18 704 0 q 640 78 656 36 l 593 200 q 226 0 465 0 l -28 0 l -28 125 l 272 125 q 433 188 365 125 q 539 340 500 250 q 465 460 506 417 q 363 522 424 503 q 208 542 301 542 q 93 536 150 542 l 75 658 q 222 667 157 667 q 418 638 339 667 q 551 544 497 608 q 644 375 606 481 l 739 125 l 822 125 m 368 -264 q 319 -237 347 -265 q 292 -187 292 -210 q 319 -139 292 -165 q 368 -111 346 -112 q 417 -139 390 -112 q 444 -187 444 -165 q 417 -237 444 -208 q 368 -264 389 -265 z "},"ﺟ":{"ha":771,"x_min":-28,"x_max":771,"o":"m 0 0 m 771 375 l 771 250 l 649 250 q 621 253 638 250 q 199 0 486 0 l -28 0 l -28 125 l 231 125 q 417 188 339 125 q 539 343 494 251 q 467 463 508 419 q 365 524 426 506 q 208 542 304 542 q 93 536 150 542 l 75 658 q 222 667 157 667 q 418 638 339 667 q 551 544 497 608 q 643 375 604 481 l 771 375 m 368 -264 q 319 -237 347 -265 q 292 -187 292 -210 q 319 -139 292 -165 q 368 -111 346 -112 q 417 -139 390 -112 q 444 -187 444 -165 q 417 -237 444 -208 q 368 -264 389 -265 z "},"چ":{"ha":763,"x_min":71,"x_max":771,"o":"m 771 344 l 771 233 q 429 210 556 233 q 246 136 303 188 q 189 -1 189 85 l 189 -247 q 286 -257 238 -257 q 426 -246 340 -257 l 443 -362 q 300 -382 361 -382 q 158 -353 207 -382 q 90 -258 108 -324 q 71 -72 71 -192 q 120 152 71 65 q 276 284 169 239 q 563 340 383 329 l 556 357 q 426 497 511 451 q 208 542 342 542 q 93 536 139 542 l 75 658 q 222 667 157 667 q 521 592 411 667 q 693 344 631 517 l 771 344 m 424 86 q 473 58 446 85 q 500 10 500 32 q 472 -40 500 -11 q 424 -67 444 -68 q 375 -40 403 -68 q 347 10 347 -12 q 374 58 347 32 q 424 86 401 85 m 624 86 q 673 58 646 85 q 700 10 700 32 q 672 -40 700 -11 q 624 -67 644 -68 q 575 -40 603 -68 q 547 10 547 -12 q 574 58 547 32 q 624 86 601 85 m 524 -122 q 573 -150 546 -124 q 600 -199 600 -176 q 572 -248 600 -219 q 524 -275 544 -276 q 475 -249 503 -276 q 447 -199 447 -221 q 474 -150 447 -176 q 524 -122 501 -124 z "},"ﭻ":{"ha":933,"x_min":71,"x_max":961,"o":"m 961 125 l 961 0 l 883 0 q 819 18 843 0 q 779 78 794 36 l 719 233 q 409 206 525 231 q 241 132 293 182 q 189 -1 189 82 l 189 -247 q 286 -257 238 -257 q 426 -246 340 -257 l 443 -362 q 300 -382 361 -382 q 158 -353 207 -382 q 90 -258 108 -324 q 71 -72 71 -192 q 131 163 71 75 q 324 290 192 250 q 682 331 457 329 q 606 456 647 411 q 504 522 565 501 q 347 542 443 542 q 232 536 289 542 l 214 658 q 361 667 296 667 q 557 638 478 667 q 690 544 636 608 q 783 375 744 481 l 878 125 l 961 125 m 424 86 q 473 58 446 85 q 500 10 500 32 q 472 -40 500 -11 q 424 -67 444 -68 q 375 -40 403 -68 q 347 10 347 -12 q 374 58 347 32 q 424 86 401 85 m 624 86 q 673 58 646 85 q 700 10 700 32 q 672 -40 700 -11 q 624 -67 644 -68 q 575 -40 603 -68 q 547 10 547 -12 q 574 58 547 32 q 624 86 601 85 m 524 -122 q 573 -150 546 -124 q 600 -199 600 -176 q 572 -248 600 -219 q 524 -275 544 -276 q 475 -249 503 -276 q 447 -199 447 -221 q 474 -150 447 -176 q 524 -122 501 -124 z "},"ﭽ":{"ha":794,"x_min":-28,"x_max":822,"o":"m 0 0 m 822 125 l 822 0 l 744 0 q 680 18 704 0 q 640 78 656 36 l 593 200 q 226 0 465 0 l -28 0 l -28 125 l 272 125 q 433 188 365 125 q 539 340 500 250 q 465 460 506 417 q 363 522 424 503 q 208 542 301 542 q 93 536 150 542 l 75 658 q 222 667 157 667 q 418 638 339 667 q 551 544 497 608 q 644 375 606 481 l 739 125 l 822 125 m 367 -472 q 318 -446 346 -474 q 290 -396 290 -418 q 317 -347 290 -374 q 367 -319 344 -321 q 416 -347 389 -321 q 443 -396 443 -374 q 415 -445 443 -417 q 367 -472 388 -474 m 267 -264 q 218 -237 246 -265 q 190 -187 190 -210 q 217 -139 190 -165 q 267 -111 244 -112 q 316 -139 289 -112 q 343 -187 343 -165 q 315 -237 343 -208 q 267 -264 288 -265 m 467 -264 q 418 -237 446 -265 q 390 -187 390 -210 q 417 -139 390 -165 q 467 -111 444 -112 q 516 -139 489 -112 q 543 -187 543 -165 q 515 -237 543 -208 q 467 -264 488 -265 z "},"ﭼ":{"ha":771,"x_min":-28,"x_max":771,"o":"m 0 0 m 771 375 l 771 250 l 649 250 q 621 253 638 250 q 199 0 486 0 l -28 0 l -28 125 l 231 125 q 417 188 339 125 q 539 343 494 251 q 467 463 508 419 q 365 524 426 506 q 208 542 304 542 q 93 536 150 542 l 75 658 q 222 667 157 667 q 418 638 339 667 q 551 544 497 608 q 643 375 604 481 l 771 375 m 367 -472 q 318 -446 346 -474 q 290 -396 290 -418 q 317 -347 290 -374 q 367 -319 344 -321 q 416 -347 389 -321 q 443 -396 443 -374 q 415 -445 443 -417 q 367 -472 388 -474 m 267 -264 q 218 -237 246 -265 q 190 -187 190 -210 q 217 -139 190 -165 q 267 -111 244 -112 q 316 -139 289 -112 q 343 -187 343 -165 q 315 -237 343 -208 q 267 -264 288 -265 m 467 -264 q 418 -237 446 -265 q 390 -187 390 -210 q 417 -139 390 -165 q 467 -111 444 -112 q 516 -139 489 -112 q 543 -187 543 -165 q 515 -237 543 -208 q 467 -264 488 -265 z "},"ح":{"ha":771,"x_min":71,"x_max":771,"o":"m 771 233 q 429 210 556 233 q 246 136 303 188 q 189 -1 189 85 l 189 -247 q 385 -260 260 -260 q 488 -253 436 -260 q 619 -229 540 -246 l 636 -346 q 508 -374 585 -364 q 346 -385 432 -385 q 172 -360 229 -385 q 92 -270 114 -335 q 71 -72 71 -206 q 120 152 71 65 q 276 284 169 239 q 563 340 383 329 l 556 357 q 426 497 511 451 q 208 542 342 542 q 93 536 139 542 l 75 658 q 222 667 157 667 q 521 592 411 667 q 693 344 631 517 l 771 344 l 771 233 z "},"ﺢ":{"ha":794,"x_min":71,"x_max":822,"o":"m 822 125 l 822 0 l 744 0 q 680 18 704 0 q 640 78 656 36 l 578 242 q 284 173 379 229 q 189 -1 189 117 l 189 -247 q 385 -260 256 -260 q 490 -253 438 -260 q 619 -229 543 -246 l 636 -346 q 505 -374 582 -364 q 346 -385 428 -385 q 169 -358 226 -385 q 91 -267 111 -331 q 71 -72 71 -203 q 122 154 71 68 q 274 284 172 240 q 539 339 376 328 q 465 460 506 417 q 363 522 424 503 q 208 542 303 542 q 93 536 150 542 l 75 658 q 222 667 157 667 q 418 638 339 667 q 551 544 497 608 q 644 375 606 481 l 739 125 l 822 125 z "},"ﺤ":{"ha":794,"x_min":-28,"x_max":822,"o":"m 822 125 l 822 0 l 744 0 q 680 18 704 0 q 640 78 656 36 l 593 200 q 226 0 465 0 l -28 0 l -28 125 l 272 125 q 433 188 365 125 q 539 340 500 250 q 465 460 506 417 q 363 522 424 503 q 208 542 301 542 q 93 536 150 542 l 75 658 q 222 667 157 667 q 418 638 339 667 q 551 544 497 608 q 644 375 606 481 l 739 125 l 822 125 z "},"ﺣ":{"ha":771,"x_min":-28,"x_max":771,"o":"m 771 375 l 771 250 l 649 250 q 621 253 638 250 q 199 0 486 0 l -28 0 l -28 125 l 231 125 q 417 188 339 125 q 539 343 494 251 q 467 463 508 419 q 365 524 426 506 q 208 542 304 542 q 93 536 150 542 l 75 658 q 222 667 157 667 q 418 638 339 667 q 551 544 497 608 q 643 375 604 481 l 771 375 z "},"خ":{"ha":771,"x_min":71,"x_max":771,"o":"m 71 0 m 771 233 q 429 210 556 233 q 246 136 303 188 q 189 -1 189 85 l 189 -247 q 385 -260 260 -260 q 488 -253 436 -260 q 619 -229 540 -246 l 636 -346 q 508 -374 585 -364 q 346 -385 432 -385 q 172 -360 229 -385 q 92 -270 114 -335 q 71 -72 71 -206 q 120 152 71 65 q 276 284 169 239 q 563 340 383 329 l 556 357 q 426 497 511 451 q 208 542 342 542 q 93 536 139 542 l 75 658 q 222 667 157 667 q 521 592 411 667 q 693 344 631 517 l 771 344 l 771 233 m 388 851 q 339 878 367 850 q 311 928 311 906 q 338 976 311 950 q 388 1004 365 1003 q 437 976 410 1003 q 464 928 464 950 q 436 878 464 907 q 388 851 408 850 z "},"ﺦ":{"ha":794,"x_min":71,"x_max":822,"o":"m 71 0 m 822 125 l 822 0 l 744 0 q 680 18 704 0 q 640 78 656 36 l 578 242 q 284 173 379 229 q 189 -1 189 117 l 189 -247 q 385 -260 256 -260 q 490 -253 438 -260 q 619 -229 543 -246 l 636 -346 q 505 -374 582 -364 q 346 -385 428 -385 q 169 -358 226 -385 q 91 -267 111 -331 q 71 -72 71 -203 q 122 154 71 68 q 274 284 172 240 q 539 339 376 328 q 465 460 506 417 q 363 522 424 503 q 208 542 303 542 q 93 536 150 542 l 75 658 q 222 667 157 667 q 418 638 339 667 q 551 544 497 608 q 644 375 606 481 l 739 125 l 822 125 m 388 851 q 339 878 367 850 q 311 928 311 906 q 338 976 311 950 q 388 1004 365 1003 q 437 976 410 1003 q 464 928 464 950 q 436 878 464 907 q 388 851 408 850 z "},"ﺨ":{"ha":794,"x_min":-28,"x_max":822,"o":"m 0 0 m 822 125 l 822 0 l 744 0 q 680 18 704 0 q 640 78 656 36 l 593 200 q 226 0 465 0 l -28 0 l -28 125 l 272 125 q 433 188 365 125 q 539 340 500 250 q 465 460 506 417 q 363 522 424 503 q 208 542 301 542 q 93 536 150 542 l 75 658 q 222 667 157 667 q 418 638 339 667 q 551 544 497 608 q 644 375 606 481 l 739 125 l 822 125 m 332 819 q 283 846 311 818 q 256 896 256 874 q 283 944 256 918 q 332 972 310 971 q 381 944 354 971 q 408 896 408 918 q 381 847 408 875 q 332 819 353 818 z "},"ﺧ":{"ha":771,"x_min":-28,"x_max":771,"o":"m 0 0 m 771 375 l 771 250 l 649 250 q 621 253 638 250 q 199 0 486 0 l -28 0 l -28 125 l 231 125 q 417 188 339 125 q 539 343 494 251 q 467 463 508 419 q 365 524 426 506 q 208 542 304 542 q 93 536 150 542 l 75 658 q 222 667 157 667 q 418 638 339 667 q 551 544 497 608 q 643 375 604 481 l 771 375 m 332 819 q 283 846 311 818 q 256 896 256 874 q 283 944 256 918 q 332 972 310 971 q 381 944 354 971 q 408 896 408 918 q 381 847 408 875 q 332 819 353 818 z "},"د":{"ha":713,"x_min":28,"x_max":643,"o":"m 28 125 l 510 125 q 418 403 457 315 q 332 524 379 492 q 203 557 285 557 q 97 543 150 557 l 67 665 q 203 682 138 682 q 397 645 333 682 q 512 493 461 608 q 643 97 563 378 l 643 0 l 28 0 l 28 125 z "},"ﺪ":{"ha":685,"x_min":28,"x_max":713,"o":"m 713 125 l 713 0 l 28 0 l 28 125 l 510 125 q 418 403 457 315 q 332 524 379 492 q 203 557 285 557 q 97 543 150 557 l 67 665 q 203 682 138 682 q 394 647 331 682 q 508 501 458 611 q 635 125 558 390 l 713 125 z "},"ذ":{"ha":713,"x_min":28,"x_max":643,"o":"m 28 0 m 28 125 l 510 125 q 418 403 457 315 q 332 524 379 492 q 203 557 285 557 q 97 543 150 557 l 67 665 q 203 682 138 682 q 397 645 333 682 q 512 493 461 608 q 643 97 563 378 l 643 0 l 28 0 l 28 125 m 243 819 q 194 846 222 818 q 167 896 167 874 q 194 944 167 918 q 243 972 221 971 q 292 944 265 971 q 319 896 319 918 q 292 847 319 875 q 243 819 264 818 z "},"ﺬ":{"ha":685,"x_min":28,"x_max":713,"o":"m 28 0 m 713 125 l 713 0 l 28 0 l 28 125 l 510 125 q 418 403 457 315 q 332 524 379 492 q 203 557 285 557 q 97 543 150 557 l 67 665 q 203 682 138 682 q 394 647 331 682 q 508 501 458 611 q 635 125 558 390 l 713 125 m 243 819 q 194 846 222 818 q 167 896 167 874 q 194 944 167 918 q 243 972 221 971 q 292 944 265 971 q 319 896 319 918 q 292 847 319 875 q 243 819 264 818 z "},"ڈ":{"ha":713,"x_min":25,"x_max":643,"o":"m 25 0 m 28 125 l 510 125 q 418 403 457 315 q 332 524 379 492 q 203 557 285 557 q 97 543 150 557 l 67 665 q 203 682 138 682 q 397 645 333 682 q 512 493 461 608 q 643 97 563 378 l 643 0 l 28 0 l 28 125 m 313 1111 q 399 1088 375 1111 q 424 1007 424 1065 l 424 819 l 25 819 l 25 882 l 67 882 l 67 1199 l 150 1199 l 150 1032 q 214 1091 175 1071 q 313 1111 253 1111 m 340 882 l 340 1036 q 281 1047 315 1047 q 183 1007 215 1047 q 150 882 151 967 l 340 882 z "},"ﮉ":{"ha":685,"x_min":25,"x_max":713,"o":"m 25 0 m 713 125 l 713 0 l 28 0 l 28 125 l 510 125 q 418 403 457 315 q 332 524 379 492 q 203 557 285 557 q 97 543 150 557 l 67 665 q 203 682 138 682 q 394 647 331 682 q 508 501 458 611 q 635 125 558 390 l 713 125 m 313 1111 q 399 1088 375 1111 q 424 1007 424 1065 l 424 819 l 25 819 l 25 882 l 67 882 l 67 1199 l 150 1199 l 150 1032 q 214 1091 175 1071 q 313 1111 253 1111 m 340 882 l 340 1036 q 281 1047 315 1047 q 183 1007 215 1047 q 150 882 151 967 l 340 882 z "},"ر":{"ha":432,"x_min":39,"x_max":293,"o":"m 39 -262 q 151 -166 119 -224 q 182 0 182 -108 l 182 653 l 293 653 l 293 0 q 244 -222 293 -137 q 86 -360 196 -307 l 39 -262 z "},"ﺮ":{"ha":431,"x_min":39,"x_max":458,"o":"m 458 125 l 458 0 l 293 0 q 244 -222 293 -137 q 86 -360 196 -307 l 39 -262 q 151 -166 119 -224 q 182 0 182 -108 l 182 653 l 293 653 l 293 125 l 458 125 z "},"ز":{"ha":432,"x_min":39,"x_max":314,"o":"m 39 0 m 39 -262 q 151 -166 119 -224 q 182 0 182 -108 l 182 653 l 293 653 l 293 0 q 244 -222 293 -137 q 86 -360 196 -307 l 39 -262 m 238 819 q 189 846 217 818 q 161 896 161 874 q 188 944 161 918 q 238 972 215 971 q 287 944 260 971 q 314 896 314 918 q 286 847 314 875 q 238 819 258 818 z "},"ﺰ":{"ha":431,"x_min":39,"x_max":458,"o":"m 39 0 m 458 125 l 458 0 l 293 0 q 244 -222 293 -137 q 86 -360 196 -307 l 39 -262 q 151 -166 119 -224 q 182 0 182 -108 l 182 653 l 293 653 l 293 125 l 458 125 m 236 819 q 188 846 215 818 q 160 896 160 874 q 187 944 160 918 q 236 972 214 971 q 285 944 258 971 q 313 896 313 918 q 285 847 313 875 q 236 819 257 818 z "},"ڑ":{"ha":432,"x_min":19,"x_max":418,"o":"m 19 0 m 39 -262 q 151 -166 119 -224 q 182 0 182 -108 l 182 653 l 293 653 l 293 0 q 244 -222 293 -137 q 86 -360 196 -307 l 39 -262 m 307 1111 q 394 1088 369 1111 q 418 1007 418 1065 l 418 819 l 19 819 l 19 882 l 61 882 l 61 1199 l 144 1199 l 144 1032 q 208 1091 169 1071 q 307 1111 247 1111 m 335 882 l 335 1036 q 275 1047 310 1047 q 178 1007 210 1047 q 144 882 146 967 l 335 882 z "},"ﮍ":{"ha":431,"x_min":18,"x_max":458,"o":"m 18 0 m 458 125 l 458 0 l 293 0 q 244 -222 293 -137 q 86 -360 196 -307 l 39 -262 q 151 -166 119 -224 q 182 0 182 -108 l 182 653 l 293 653 l 293 125 l 458 125 m 306 1111 q 392 1088 368 1111 q 417 1007 417 1065 l 417 819 l 18 819 l 18 882 l 60 882 l 60 1199 l 143 1199 l 143 1032 q 207 1091 168 1071 q 306 1111 246 1111 m 333 882 l 333 1036 q 274 1047 308 1047 q 176 1007 208 1047 q 143 882 144 967 l 333 882 z "},"ژ":{"ha":432,"x_min":39,"x_max":414,"o":"m 39 0 m 39 -262 q 151 -166 119 -224 q 182 0 182 -108 l 182 653 l 293 653 l 293 0 q 244 -222 293 -137 q 86 -360 196 -307 l 39 -262 m 138 819 q 89 846 117 818 q 61 896 61 874 q 88 944 61 918 q 138 972 115 971 q 187 944 160 971 q 214 896 214 918 q 186 847 214 875 q 138 819 158 818 m 338 819 q 289 846 317 818 q 261 896 261 874 q 288 944 261 918 q 338 972 315 971 q 387 944 360 971 q 414 896 414 918 q 386 847 414 875 q 338 819 358 818 m 238 1028 q 189 1054 217 1026 q 161 1104 161 1082 q 188 1153 161 1126 q 238 1181 215 1179 q 287 1153 260 1179 q 314 1104 314 1126 q 286 1055 314 1083 q 238 1028 258 1026 z "},"ﮋ":{"ha":431,"x_min":39,"x_max":458,"o":"m 39 0 m 458 125 l 458 0 l 293 0 q 244 -222 293 -137 q 86 -360 196 -307 l 39 -262 q 151 -166 119 -224 q 182 0 182 -108 l 182 653 l 293 653 l 293 125 l 458 125 m 136 819 q 88 846 115 818 q 60 896 60 874 q 87 944 60 918 q 136 972 114 971 q 185 944 158 971 q 213 896 213 918 q 185 847 213 875 q 136 819 157 818 m 336 819 q 288 846 315 818 q 260 896 260 874 q 287 944 260 918 q 336 972 314 971 q 385 944 358 971 q 413 896 413 918 q 385 847 413 875 q 336 819 357 818 m 236 1028 q 188 1054 215 1026 q 160 1104 160 1082 q 187 1153 160 1126 q 236 1181 214 1179 q 285 1153 258 1179 q 313 1104 313 1126 q 285 1055 313 1083 q 236 1028 257 1026 z "},"س":{"ha":1746,"x_min":97,"x_max":1621,"o":"m 1583 650 q 1610 508 1599 593 q 1621 360 1621 422 q 1600 141 1621 217 q 1526 33 1579 65 q 1371 0 1474 0 q 1228 10 1281 0 q 1144 47 1175 21 q 1062 10 1115 21 q 918 0 1008 0 l 779 0 l 779 -50 q 751 -228 779 -169 q 649 -310 724 -287 q 417 -333 574 -333 q 205 -308 271 -333 q 118 -220 139 -283 q 97 -22 97 -157 q 108 141 97 57 q 136 282 118 225 l 246 264 q 208 1 208 104 q 225 -208 208 -126 l 479 -208 q 593 -202 553 -208 q 651 -181 633 -196 q 668 -135 668 -165 l 668 528 l 779 528 l 779 125 l 981 125 q 1065 140 1042 125 q 1089 199 1089 156 l 1089 528 l 1200 528 l 1200 199 q 1224 140 1200 156 q 1308 125 1247 125 l 1493 125 q 1510 356 1510 213 q 1474 632 1510 472 l 1583 650 z "},"ﺲ":{"ha":1760,"x_min":97,"x_max":1788,"o":"m 1788 125 l 1788 0 l 1371 0 q 1228 10 1281 0 q 1144 47 1175 21 q 1062 10 1115 21 q 918 0 1008 0 l 779 0 l 779 -50 q 751 -228 779 -169 q 649 -310 724 -287 q 417 -333 574 -333 q 205 -308 271 -333 q 118 -220 139 -283 q 97 -22 97 -157 q 108 141 97 57 q 136 282 118 225 l 246 264 q 208 1 208 104 q 225 -208 208 -126 l 479 -208 q 593 -202 553 -208 q 651 -181 633 -196 q 668 -135 668 -165 l 668 528 l 779 528 l 779 125 l 981 125 q 1065 140 1042 125 q 1089 199 1089 156 l 1089 528 l 1200 528 l 1200 199 q 1224 140 1200 156 q 1308 125 1247 125 l 1493 125 q 1510 356 1510 213 q 1474 632 1510 472 l 1583 650 q 1610 508 1599 593 q 1621 360 1621 422 q 1594 125 1621 200 l 1788 125 z "},"ﺴ":{"ha":1286,"x_min":-28,"x_max":1314,"o":"m 1314 125 l 1314 0 l 897 0 q 754 10 807 0 q 671 47 701 21 q 588 10 642 21 q 444 0 535 0 l -28 0 l -28 125 l 194 125 l 194 528 l 306 528 l 306 125 l 507 125 q 592 140 568 125 q 615 199 615 156 l 615 528 l 726 528 l 726 199 q 750 140 726 156 q 835 125 774 125 l 1019 125 q 1036 356 1036 213 q 1000 632 1036 472 l 1110 650 q 1136 508 1125 593 q 1147 360 1147 422 q 1121 125 1147 200 l 1314 125 z "},"ﺳ":{"ha":1272,"x_min":-28,"x_max":1147,"o":"m 1110 650 q 1136 508 1125 593 q 1147 360 1147 422 q 1126 141 1147 217 q 1053 33 1106 65 q 897 0 1000 0 q 754 10 807 0 q 671 47 701 21 q 588 10 642 21 q 444 0 535 0 l -28 0 l -28 125 l 194 125 l 194 528 l 306 528 l 306 125 l 507 125 q 592 140 568 125 q 615 199 615 156 l 615 528 l 726 528 l 726 199 q 750 140 726 156 q 835 125 774 125 l 1019 125 q 1036 356 1036 213 q 1000 632 1036 472 l 1110 650 z "},"ش":{"ha":1746,"x_min":97,"x_max":1621,"o":"m 97 0 m 1583 650 q 1610 508 1599 593 q 1621 360 1621 422 q 1600 141 1621 217 q 1526 33 1579 65 q 1371 0 1474 0 q 1228 10 1281 0 q 1144 47 1175 21 q 1062 10 1115 21 q 918 0 1008 0 l 779 0 l 779 -50 q 751 -228 779 -169 q 649 -310 724 -287 q 417 -333 574 -333 q 205 -308 271 -333 q 118 -220 139 -283 q 97 -22 97 -157 q 108 141 97 57 q 136 282 118 225 l 246 264 q 208 1 208 104 q 225 -208 208 -126 l 479 -208 q 593 -202 553 -208 q 651 -181 633 -196 q 668 -135 668 -165 l 668 528 l 779 528 l 779 125 l 981 125 q 1065 140 1042 125 q 1089 199 1089 156 l 1089 528 l 1200 528 l 1200 199 q 1224 140 1200 156 q 1308 125 1247 125 l 1493 125 q 1510 356 1510 213 q 1474 632 1510 472 l 1583 650 m 1058 819 q 1010 846 1038 818 q 982 896 982 874 q 1009 944 982 918 q 1058 972 1036 971 q 1108 944 1081 971 q 1135 896 1135 918 q 1107 847 1135 875 q 1058 819 1079 818 m 1258 819 q 1210 846 1238 818 q 1182 896 1182 874 q 1209 944 1182 918 q 1258 972 1236 971 q 1308 944 1281 971 q 1335 896 1335 918 q 1307 847 1335 875 q 1258 819 1279 818 m 1158 1028 q 1110 1054 1138 1026 q 1082 1104 1082 1082 q 1109 1153 1082 1126 q 1158 1181 1136 1179 q 1208 1153 1181 1179 q 1235 1104 1235 1126 q 1207 1055 1235 1083 q 1158 1028 1179 1026 z "},"ﺶ":{"ha":1760,"x_min":97,"x_max":1788,"o":"m 97 0 m 1788 125 l 1788 0 l 1371 0 q 1228 10 1281 0 q 1144 47 1175 21 q 1062 10 1115 21 q 918 0 1008 0 l 779 0 l 779 -50 q 751 -228 779 -169 q 649 -310 724 -287 q 417 -333 574 -333 q 205 -308 271 -333 q 118 -220 139 -283 q 97 -22 97 -157 q 108 141 97 57 q 136 282 118 225 l 246 264 q 208 1 208 104 q 225 -208 208 -126 l 479 -208 q 593 -202 553 -208 q 651 -181 633 -196 q 668 -135 668 -165 l 668 528 l 779 528 l 779 125 l 981 125 q 1065 140 1042 125 q 1089 199 1089 156 l 1089 528 l 1200 528 l 1200 199 q 1224 140 1200 156 q 1308 125 1247 125 l 1493 125 q 1510 356 1510 213 q 1474 632 1510 472 l 1583 650 q 1610 508 1599 593 q 1621 360 1621 422 q 1594 125 1621 200 l 1788 125 m 1058 819 q 1010 846 1038 818 q 982 896 982 874 q 1009 944 982 918 q 1058 972 1036 971 q 1108 944 1081 971 q 1135 896 1135 918 q 1107 847 1135 875 q 1058 819 1079 818 m 1258 819 q 1210 846 1238 818 q 1182 896 1182 874 q 1209 944 1182 918 q 1258 972 1236 971 q 1308 944 1281 971 q 1335 896 1335 918 q 1307 847 1335 875 q 1258 819 1279 818 m 1158 1028 q 1110 1054 1138 1026 q 1082 1104 1082 1082 q 1109 1153 1082 1126 q 1158 1181 1136 1179 q 1208 1153 1181 1179 q 1235 1104 1235 1126 q 1207 1055 1235 1083 q 1158 1028 1179 1026 z "},"ﺸ":{"ha":1286,"x_min":-28,"x_max":1314,"o":"m 0 0 m 1314 125 l 1314 0 l 897 0 q 754 10 807 0 q 671 47 701 21 q 588 10 642 21 q 444 0 535 0 l -28 0 l -28 125 l 194 125 l 194 528 l 306 528 l 306 125 l 507 125 q 592 140 568 125 q 615 199 615 156 l 615 528 l 726 528 l 726 199 q 750 140 726 156 q 835 125 774 125 l 1019 125 q 1036 356 1036 213 q 1000 632 1036 472 l 1110 650 q 1136 508 1125 593 q 1147 360 1147 422 q 1121 125 1147 200 l 1314 125 m 585 819 q 536 846 564 818 q 508 896 508 874 q 535 944 508 918 q 585 972 563 971 q 634 944 607 971 q 661 896 661 918 q 633 847 661 875 q 585 819 606 818 m 785 819 q 736 846 764 818 q 708 896 708 874 q 735 944 708 918 q 785 972 763 971 q 834 944 807 971 q 861 896 861 918 q 833 847 861 875 q 785 819 806 818 m 685 1028 q 636 1054 664 1026 q 608 1104 608 1082 q 635 1153 608 1126 q 685 1181 663 1179 q 734 1153 707 1179 q 761 1104 761 1126 q 733 1055 761 1083 q 685 1028 706 1026 z "},"ﺷ":{"ha":1272,"x_min":-28,"x_max":1147,"o":"m 0 0 m 1110 650 q 1136 508 1125 593 q 1147 360 1147 422 q 1126 141 1147 217 q 1053 33 1106 65 q 897 0 1000 0 q 754 10 807 0 q 671 47 701 21 q 588 10 642 21 q 444 0 535 0 l -28 0 l -28 125 l 194 125 l 194 528 l 306 528 l 306 125 l 507 125 q 592 140 568 125 q 615 199 615 156 l 615 528 l 726 528 l 726 199 q 750 140 726 156 q 835 125 774 125 l 1019 125 q 1036 356 1036 213 q 1000 632 1036 472 l 1110 650 m 585 819 q 536 846 564 818 q 508 896 508 874 q 535 944 508 918 q 585 972 563 971 q 634 944 607 971 q 661 896 661 918 q 633 847 661 875 q 585 819 606 818 m 785 819 q 736 846 764 818 q 708 896 708 874 q 735 944 708 918 q 785 972 763 971 q 834 944 807 971 q 861 896 861 918 q 833 847 861 875 q 785 819 806 818 m 685 1028 q 636 1054 664 1026 q 608 1104 608 1082 q 635 1153 608 1126 q 685 1181 663 1179 q 734 1153 707 1179 q 761 1104 761 1126 q 733 1055 761 1083 q 685 1028 706 1026 z "},"ص":{"ha":1597,"x_min":97,"x_max":1463,"o":"m 1249 667 q 1376 651 1331 667 q 1442 600 1422 636 q 1463 500 1463 564 l 1463 0 l 779 0 l 779 -50 q 751 -228 779 -169 q 649 -310 724 -287 q 417 -333 574 -333 q 205 -308 271 -333 q 118 -220 139 -283 q 97 -22 97 -157 q 108 141 97 57 q 136 282 118 225 l 246 264 q 208 1 208 104 q 225 -208 208 -126 l 479 -208 q 593 -202 553 -208 q 651 -181 633 -196 q 668 -135 668 -165 l 668 653 l 779 653 l 779 397 q 949 597 826 526 q 1249 667 1071 667 m 1351 125 l 1351 526 q 1197 542 1303 542 q 894 439 996 542 q 781 125 792 336 l 1351 125 z "},"ﺺ":{"ha":1604,"x_min":97,"x_max":1632,"o":"m 1632 125 l 1632 0 l 779 0 l 779 -50 q 751 -228 779 -169 q 649 -310 724 -287 q 417 -333 574 -333 q 205 -308 271 -333 q 118 -220 139 -283 q 97 -22 97 -157 q 108 141 97 57 q 136 282 118 225 l 246 264 q 208 1 208 104 q 225 -208 208 -126 l 479 -208 q 593 -202 553 -208 q 651 -181 633 -196 q 668 -135 668 -165 l 668 653 l 779 653 l 779 397 q 949 597 826 526 q 1249 667 1071 667 q 1376 651 1331 667 q 1442 600 1422 636 q 1463 500 1463 564 l 1463 125 l 1632 125 m 1351 125 l 1351 526 q 1197 542 1303 542 q 894 439 996 542 q 781 125 792 336 l 1351 125 z "},"ﺼ":{"ha":1128,"x_min":-28,"x_max":1156,"o":"m 1156 125 l 1156 0 l -28 0 l -28 125 l 194 125 l 194 653 l 306 653 l 306 397 q 475 597 353 526 q 775 667 597 667 q 903 651 857 667 q 969 600 949 636 q 989 500 989 564 l 989 125 l 1156 125 m 724 542 q 420 439 522 542 q 307 125 318 336 l 878 125 l 878 526 q 724 542 829 542 z "},"ﺻ":{"ha":1121,"x_min":-28,"x_max":989,"o":"m 775 667 q 903 651 857 667 q 969 600 949 636 q 989 500 989 564 l 989 0 l -28 0 l -28 125 l 194 125 l 194 653 l 306 653 l 306 397 q 475 597 353 526 q 775 667 597 667 m 878 125 l 878 526 q 724 542 829 542 q 420 439 522 542 q 307 125 318 336 l 878 125 z "},"ض":{"ha":1597,"x_min":97,"x_max":1463,"o":"m 97 0 m 1249 667 q 1376 651 1331 667 q 1442 600 1422 636 q 1463 500 1463 564 l 1463 0 l 779 0 l 779 -50 q 751 -228 779 -169 q 649 -310 724 -287 q 417 -333 574 -333 q 205 -308 271 -333 q 118 -220 139 -283 q 97 -22 97 -157 q 108 141 97 57 q 136 282 118 225 l 246 264 q 208 1 208 104 q 225 -208 208 -126 l 479 -208 q 593 -202 553 -208 q 651 -181 633 -196 q 668 -135 668 -165 l 668 653 l 779 653 l 779 397 q 949 597 826 526 q 1249 667 1071 667 m 1351 125 l 1351 526 q 1197 542 1303 542 q 894 439 996 542 q 781 125 792 336 l 1351 125 m 1143 819 q 1094 846 1122 818 q 1067 896 1067 874 q 1094 944 1067 918 q 1143 972 1121 971 q 1192 944 1165 971 q 1219 896 1219 918 q 1192 847 1219 875 q 1143 819 1164 818 z "},"ﺾ":{"ha":1604,"x_min":97,"x_max":1632,"o":"m 97 0 m 1632 125 l 1632 0 l 779 0 l 779 -50 q 751 -228 779 -169 q 649 -310 724 -287 q 417 -333 574 -333 q 205 -308 271 -333 q 118 -220 139 -283 q 97 -22 97 -157 q 108 141 97 57 q 136 282 118 225 l 246 264 q 208 1 208 104 q 225 -208 208 -126 l 479 -208 q 593 -202 553 -208 q 651 -181 633 -196 q 668 -135 668 -165 l 668 653 l 779 653 l 779 397 q 949 597 826 526 q 1249 667 1071 667 q 1376 651 1331 667 q 1442 600 1422 636 q 1463 500 1463 564 l 1463 125 l 1632 125 m 1351 125 l 1351 526 q 1197 542 1303 542 q 894 439 996 542 q 781 125 792 336 l 1351 125 m 1143 819 q 1094 846 1122 818 q 1067 896 1067 874 q 1094 944 1067 918 q 1143 972 1121 971 q 1192 944 1165 971 q 1219 896 1219 918 q 1192 847 1219 875 q 1143 819 1164 818 z "},"ﻀ":{"ha":1128,"x_min":-28,"x_max":1156,"o":"m 0 0 m 1156 125 l 1156 0 l -28 0 l -28 125 l 194 125 l 194 653 l 306 653 l 306 397 q 475 597 353 526 q 775 667 597 667 q 903 651 857 667 q 969 600 949 636 q 989 500 989 564 l 989 125 l 1156 125 m 724 542 q 420 439 522 542 q 307 125 318 336 l 878 125 l 878 526 q 724 542 829 542 m 653 819 q 604 846 632 818 q 576 896 576 874 q 603 944 576 918 q 653 972 631 971 q 702 944 675 971 q 729 896 729 918 q 701 847 729 875 q 653 819 674 818 z "},"ﺿ":{"ha":1121,"x_min":-28,"x_max":989,"o":"m 0 0 m 775 667 q 903 651 857 667 q 969 600 949 636 q 989 500 989 564 l 989 0 l -28 0 l -28 125 l 194 125 l 194 653 l 306 653 l 306 397 q 475 597 353 526 q 775 667 597 667 m 878 125 l 878 526 q 724 542 829 542 q 420 439 522 542 q 307 125 318 336 l 878 125 m 653 819 q 604 846 632 818 q 576 896 576 874 q 603 944 576 918 q 653 972 631 971 q 702 944 675 971 q 729 896 729 918 q 701 847 729 875 q 653 819 674 818 z "},"ط":{"ha":1121,"x_min":28,"x_max":989,"o":"m 775 667 q 903 651 857 667 q 969 600 949 636 q 989 500 989 564 l 989 0 l 28 0 l 28 125 l 194 125 l 194 875 l 306 875 l 306 397 q 475 597 353 526 q 775 667 597 667 m 878 125 l 878 526 q 724 542 829 542 q 420 439 522 542 q 307 125 318 336 l 878 125 z "},"ﻂ":{"ha":1128,"x_min":28,"x_max":1156,"o":"m 1156 125 l 1156 0 l 28 0 l 28 125 l 194 125 l 194 875 l 306 875 l 306 397 q 475 597 353 526 q 775 667 597 667 q 903 651 857 667 q 969 600 949 636 q 989 500 989 564 l 989 125 l 1156 125 m 878 125 l 878 526 q 724 542 829 542 q 420 439 522 542 q 307 125 318 336 l 878 125 z "},"ﻄ":{"ha":1128,"x_min":-28,"x_max":1156,"o":"m 1156 125 l 1156 0 l -28 0 l -28 125 l 194 125 l 194 875 l 306 875 l 306 397 q 475 597 353 526 q 775 667 597 667 q 903 651 857 667 q 969 600 949 636 q 989 500 989 564 l 989 125 l 1156 125 m 878 125 l 878 526 q 724 542 829 542 q 420 439 522 542 q 307 125 318 336 l 878 125 z "},"ﻃ":{"ha":1121,"x_min":-28,"x_max":989,"o":"m 775 667 q 903 651 857 667 q 969 600 949 636 q 989 500 989 564 l 989 0 l -28 0 l -28 125 l 194 125 l 194 875 l 306 875 l 306 397 q 475 597 353 526 q 775 667 597 667 m 878 526 q 724 542 829 542 q 420 439 522 542 q 307 125 318 336 l 878 125 l 878 526 z "},"ظ":{"ha":1121,"x_min":28,"x_max":989,"o":"m 28 0 m 775 667 q 903 651 857 667 q 969 600 949 636 q 989 500 989 564 l 989 0 l 28 0 l 28 125 l 194 125 l 194 875 l 306 875 l 306 397 q 475 597 353 526 q 775 667 597 667 m 878 125 l 878 526 q 724 542 829 542 q 420 439 522 542 q 307 125 318 336 l 878 125 m 694 819 q 646 846 674 818 q 618 896 618 874 q 645 944 618 918 q 694 972 672 971 q 744 944 717 971 q 771 896 771 918 q 743 847 771 875 q 694 819 715 818 z "},"ﻆ":{"ha":1128,"x_min":28,"x_max":1156,"o":"m 28 0 m 1156 125 l 1156 0 l 28 0 l 28 125 l 194 125 l 194 875 l 306 875 l 306 397 q 475 597 353 526 q 775 667 597 667 q 903 651 857 667 q 969 600 949 636 q 989 500 989 564 l 989 125 l 1156 125 m 878 125 l 878 526 q 724 542 829 542 q 420 439 522 542 q 307 125 318 336 l 878 125 m 694 819 q 646 846 674 818 q 618 896 618 874 q 645 944 618 918 q 694 972 672 971 q 744 944 717 971 q 771 896 771 918 q 743 847 771 875 q 694 819 715 818 z "},"ﻈ":{"ha":1128,"x_min":-28,"x_max":1156,"o":"m 0 0 m 1156 125 l 1156 0 l -28 0 l -28 125 l 194 125 l 194 875 l 306 875 l 306 397 q 475 597 353 526 q 775 667 597 667 q 903 651 857 667 q 969 600 949 636 q 989 500 989 564 l 989 125 l 1156 125 m 878 125 l 878 526 q 724 542 829 542 q 420 439 522 542 q 307 125 318 336 l 878 125 m 694 819 q 646 846 674 818 q 618 896 618 874 q 645 944 618 918 q 694 972 672 971 q 744 944 717 971 q 771 896 771 918 q 743 847 771 875 q 694 819 715 818 z "},"ﻇ":{"ha":1121,"x_min":-28,"x_max":989,"o":"m 0 0 m 775 667 q 903 651 857 667 q 969 600 949 636 q 989 500 989 564 l 989 0 l -28 0 l -28 125 l 194 125 l 194 875 l 306 875 l 306 397 q 475 597 353 526 q 775 667 597 667 m 878 526 q 724 542 829 542 q 420 439 522 542 q 307 125 318 336 l 878 125 l 878 526 m 694 819 q 646 846 674 818 q 618 896 618 874 q 645 944 618 918 q 694 972 672 971 q 744 944 717 971 q 771 896 771 918 q 743 847 771 875 q 694 819 715 818 z "},"ع":{"ha":794,"x_min":71,"x_max":700,"o":"m 447 543 q 296 528 347 543 l 296 171 q 640 208 418 208 l 640 104 q 382 84 481 104 q 236 19 283 64 q 189 -99 189 -25 l 189 -317 q 385 -329 260 -329 q 488 -322 436 -329 q 619 -299 540 -315 l 636 -415 q 508 -444 585 -433 q 346 -454 432 -454 q 172 -429 229 -454 q 92 -340 114 -404 q 71 -142 71 -275 q 103 22 71 -44 q 204 131 135 89 q 178 340 178 199 q 200 544 178 475 q 279 640 222 613 q 451 668 336 668 q 585 656 517 668 q 700 626 654 644 l 682 510 q 447 543 560 543 z "},"ﻊ":{"ha":869,"x_min":71,"x_max":897,"o":"m 71 -183 q 92 -51 71 -101 q 165 35 114 -1 q 319 115 217 71 q 154 296 214 189 q 94 528 94 403 q 124 613 94 583 q 226 654 154 642 q 435 667 299 667 q 643 654 571 667 q 745 613 715 642 q 775 528 775 583 q 719 300 775 394 q 569 135 664 206 q 703 125 628 125 l 897 125 l 897 0 l 703 0 q 432 50 560 0 q 253 -31 318 6 q 189 -99 189 -67 l 189 -303 q 385 -315 264 -315 q 486 -308 433 -315 q 619 -285 539 -301 l 638 -407 q 346 -440 546 -440 q 176 -418 235 -440 q 94 -341 118 -396 q 71 -183 71 -286 m 206 542 q 269 298 206 390 q 435 160 332 206 q 606 308 547 211 q 664 542 664 406 l 206 542 z "},"ﻌ":{"ha":869,"x_min":-28,"x_max":897,"o":"m 897 125 l 897 0 l 703 0 q 435 51 558 0 q 167 0 311 0 l -28 0 l -28 125 l 167 125 q 293 133 235 125 q 147 309 200 207 q 94 528 94 411 q 124 613 94 583 q 226 654 154 642 q 435 667 299 667 q 643 654 571 667 q 745 613 715 642 q 775 528 775 583 q 722 309 775 411 q 576 133 669 207 q 703 125 635 125 l 897 125 m 206 542 q 264 315 206 408 q 435 174 322 222 q 606 315 547 222 q 664 542 664 408 l 206 542 z "},"ﻋ":{"ha":808,"x_min":-28,"x_max":739,"o":"m 739 125 l 739 0 l -28 0 l -28 125 l 189 125 q 164 340 164 196 q 186 544 164 475 q 265 640 208 613 q 438 668 322 668 q 572 656 503 668 q 686 626 640 644 l 668 510 q 433 543 546 543 q 282 528 333 543 l 282 228 q 313 149 281 172 q 411 125 344 125 l 739 125 z "},"غ":{"ha":794,"x_min":71,"x_max":700,"o":"m 71 0 m 447 543 q 296 528 347 543 l 296 171 q 640 208 418 208 l 640 104 q 382 84 481 104 q 236 19 283 64 q 189 -99 189 -25 l 189 -317 q 385 -329 260 -329 q 488 -322 436 -329 q 619 -299 540 -315 l 636 -415 q 508 -444 585 -433 q 346 -454 432 -454 q 172 -429 229 -454 q 92 -340 114 -404 q 71 -142 71 -275 q 103 22 71 -44 q 204 131 135 89 q 178 340 178 199 q 200 544 178 475 q 279 640 222 613 q 451 668 336 668 q 585 656 517 668 q 700 626 654 644 l 682 510 q 447 543 560 543 m 451 819 q 403 846 431 818 q 375 896 375 874 q 402 944 375 918 q 451 972 429 971 q 501 944 474 971 q 528 896 528 918 q 500 847 528 875 q 451 819 472 818 z "},"ﻎ":{"ha":869,"x_min":71,"x_max":897,"o":"m 71 0 m 71 -183 q 92 -51 71 -101 q 165 35 114 -1 q 319 115 217 71 q 154 296 214 189 q 94 528 94 403 q 124 613 94 583 q 226 654 154 642 q 435 667 299 667 q 643 654 571 667 q 745 613 715 642 q 775 528 775 583 q 719 300 775 394 q 569 135 664 206 q 703 125 628 125 l 897 125 l 897 0 l 703 0 q 432 50 560 0 q 253 -31 318 6 q 189 -99 189 -67 l 189 -303 q 385 -315 264 -315 q 486 -308 433 -315 q 619 -285 539 -301 l 638 -407 q 346 -440 546 -440 q 176 -418 235 -440 q 94 -341 118 -396 q 71 -183 71 -286 m 206 542 q 269 298 206 390 q 435 160 332 206 q 606 308 547 211 q 664 542 664 406 l 206 542 m 435 819 q 386 846 414 818 q 358 896 358 874 q 385 944 358 918 q 435 972 413 971 q 484 944 457 971 q 511 896 511 918 q 483 847 511 875 q 435 819 456 818 z "},"ﻐ":{"ha":869,"x_min":-28,"x_max":897,"o":"m 0 0 m 897 125 l 897 0 l 703 0 q 435 51 558 0 q 167 0 311 0 l -28 0 l -28 125 l 167 125 q 293 133 235 125 q 147 309 200 207 q 94 528 94 411 q 124 613 94 583 q 226 654 154 642 q 435 667 299 667 q 643 654 571 667 q 745 613 715 642 q 775 528 775 583 q 722 309 775 411 q 576 133 669 207 q 703 125 635 125 l 897 125 m 206 542 q 264 315 206 408 q 435 174 322 222 q 606 315 547 222 q 664 542 664 408 l 206 542 m 435 819 q 386 846 414 818 q 358 896 358 874 q 385 944 358 918 q 435 972 413 971 q 484 944 457 971 q 511 896 511 918 q 483 847 511 875 q 435 819 456 818 z "},"ﻏ":{"ha":808,"x_min":-28,"x_max":739,"o":"m 0 0 m 739 125 l 739 0 l -28 0 l -28 125 l 189 125 q 164 340 164 196 q 186 544 164 475 q 265 640 208 613 q 438 668 322 668 q 572 656 503 668 q 686 626 640 644 l 668 510 q 433 543 546 543 q 282 528 333 543 l 282 228 q 313 149 281 172 q 411 125 344 125 l 739 125 m 451 819 q 403 846 431 818 q 375 896 375 874 q 402 944 375 918 q 451 972 429 971 q 501 944 474 971 q 528 896 528 918 q 500 847 528 875 q 451 819 472 818 z "},"ف":{"ha":1367,"x_min":97,"x_max":1228,"o":"m 97 0 m 292 0 q 177 28 219 0 q 116 117 135 56 q 97 286 97 179 q 108 417 97 349 q 136 533 118 486 l 242 515 q 208 308 208 403 q 231 125 208 193 l 660 125 q 646 361 646 199 q 670 549 646 485 q 756 640 694 614 q 938 667 817 667 q 1079 657 1014 667 q 1228 624 1144 647 l 1228 0 l 292 0 m 1053 125 q 1103 140 1089 125 q 1117 194 1117 154 l 1117 539 l 828 539 q 777 524 790 539 q 764 463 764 508 l 764 125 l 1053 125 m 976 819 q 928 846 956 818 q 900 896 900 874 q 927 944 900 918 q 976 972 954 971 q 1026 944 999 971 q 1053 896 1053 918 q 1025 847 1053 875 q 976 819 997 818 z "},"ﻒ":{"ha":1367,"x_min":97,"x_max":1394,"o":"m 97 0 m 1394 125 l 1394 0 l 292 0 q 177 28 219 0 q 116 117 135 56 q 97 286 97 179 q 108 417 97 349 q 136 533 118 486 l 242 515 q 208 308 208 403 q 231 125 208 193 l 660 125 q 646 361 646 199 q 670 549 646 485 q 756 640 694 614 q 938 667 817 667 q 1079 657 1014 667 q 1228 624 1144 647 l 1228 125 l 1394 125 m 1117 539 l 828 539 q 777 524 790 539 q 764 463 764 508 l 764 125 l 1053 125 q 1103 140 1089 125 q 1117 194 1117 154 l 1117 539 m 976 819 q 928 846 956 818 q 900 896 900 874 q 927 944 900 918 q 976 972 954 971 q 1026 944 999 971 q 1053 896 1053 918 q 1025 847 1053 875 q 976 819 997 818 z "},"ﻔ":{"ha":901,"x_min":-28,"x_max":929,"o":"m 0 0 m 929 125 l 929 0 l -28 0 l -28 125 l 194 125 q 181 361 181 199 q 205 549 181 485 q 290 640 229 614 q 472 667 351 667 q 614 657 549 667 q 763 624 679 647 l 763 125 l 929 125 m 651 539 l 363 539 q 312 524 325 539 q 299 463 299 508 l 299 125 l 588 125 q 638 140 624 125 q 651 194 651 154 l 651 539 m 472 819 q 424 846 451 818 q 396 896 396 874 q 423 944 396 918 q 472 972 450 971 q 522 944 494 971 q 549 896 549 918 q 521 847 549 875 q 472 819 493 818 z "},"ﻓ":{"ha":901,"x_min":-28,"x_max":763,"o":"m 0 0 m 194 125 q 181 361 181 199 q 205 549 181 485 q 290 640 229 614 q 472 667 351 667 q 614 657 549 667 q 763 624 679 647 l 763 0 l -28 0 l -28 125 l 194 125 m 588 125 q 638 140 624 125 q 651 194 651 154 l 651 539 l 363 539 q 312 524 325 539 q 299 463 299 508 l 299 125 l 588 125 m 472 819 q 424 846 451 818 q 396 896 396 874 q 423 944 396 918 q 472 972 450 971 q 522 944 494 971 q 549 896 549 918 q 521 847 549 875 q 472 819 493 818 z "},"ڤ":{"ha":1367,"x_min":97,"x_max":1228,"o":"m 97 0 m 292 0 q 177 28 219 0 q 116 117 135 56 q 97 286 97 179 q 108 417 97 349 q 136 533 118 486 l 242 515 q 208 308 208 403 q 231 125 208 193 l 660 125 q 646 361 646 199 q 670 549 646 485 q 756 640 694 614 q 938 667 817 667 q 1079 657 1014 667 q 1228 624 1144 647 l 1228 0 l 292 0 m 1053 125 q 1103 140 1089 125 q 1117 194 1117 154 l 1117 539 l 828 539 q 777 524 790 539 q 764 463 764 508 l 764 125 l 1053 125 m 876 819 q 828 846 856 818 q 800 896 800 874 q 827 944 800 918 q 876 972 854 971 q 926 944 899 971 q 953 896 953 918 q 925 847 953 875 q 876 819 897 818 m 1076 819 q 1028 846 1056 818 q 1000 896 1000 874 q 1027 944 1000 918 q 1076 972 1054 971 q 1126 944 1099 971 q 1153 896 1153 918 q 1125 847 1153 875 q 1076 819 1097 818 m 976 1028 q 928 1054 956 1026 q 900 1104 900 1082 q 927 1153 900 1126 q 976 1181 954 1179 q 1026 1153 999 1179 q 1053 1104 1053 1126 q 1025 1055 1053 1083 q 976 1028 997 1026 z "},"ﭫ":{"ha":1367,"x_min":97,"x_max":1394,"o":"m 97 0 m 1394 125 l 1394 0 l 292 0 q 177 28 219 0 q 116 117 135 56 q 97 286 97 179 q 108 417 97 349 q 136 533 118 486 l 242 515 q 208 308 208 403 q 231 125 208 193 l 660 125 q 646 361 646 199 q 670 549 646 485 q 756 640 694 614 q 938 667 817 667 q 1079 657 1014 667 q 1228 624 1144 647 l 1228 125 l 1394 125 m 1117 539 l 828 539 q 777 524 790 539 q 764 463 764 508 l 764 125 l 1053 125 q 1103 140 1089 125 q 1117 194 1117 154 l 1117 539 m 876 819 q 828 846 856 818 q 800 896 800 874 q 827 944 800 918 q 876 972 854 971 q 926 944 899 971 q 953 896 953 918 q 925 847 953 875 q 876 819 897 818 m 1076 819 q 1028 846 1056 818 q 1000 896 1000 874 q 1027 944 1000 918 q 1076 972 1054 971 q 1126 944 1099 971 q 1153 896 1153 918 q 1125 847 1153 875 q 1076 819 1097 818 m 976 1028 q 928 1054 956 1026 q 900 1104 900 1082 q 927 1153 900 1126 q 976 1181 954 1179 q 1026 1153 999 1179 q 1053 1104 1053 1126 q 1025 1055 1053 1083 q 976 1028 997 1026 z "},"ﭭ":{"ha":901,"x_min":-28,"x_max":929,"o":"m 0 0 m 929 125 l 929 0 l -28 0 l -28 125 l 194 125 q 181 361 181 199 q 205 549 181 485 q 290 640 229 614 q 472 667 351 667 q 614 657 549 667 q 763 624 679 647 l 763 125 l 929 125 m 651 539 l 363 539 q 312 524 325 539 q 299 463 299 508 l 299 125 l 588 125 q 638 140 624 125 q 651 194 651 154 l 651 539 m 372 819 q 324 846 351 818 q 296 896 296 874 q 323 944 296 918 q 372 972 350 971 q 422 944 394 971 q 449 896 449 918 q 421 847 449 875 q 372 819 393 818 m 572 819 q 524 846 551 818 q 496 896 496 874 q 523 944 496 918 q 572 972 550 971 q 622 944 594 971 q 649 896 649 918 q 621 847 649 875 q 572 819 593 818 m 472 1028 q 424 1054 451 1026 q 396 1104 396 1082 q 423 1153 396 1126 q 472 1181 450 1179 q 522 1153 494 1179 q 549 1104 549 1126 q 521 1055 549 1083 q 472 1028 493 1026 z "},"ﭬ":{"ha":901,"x_min":-28,"x_max":763,"o":"m 0 0 m 194 125 q 181 361 181 199 q 205 549 181 485 q 290 640 229 614 q 472 667 351 667 q 614 657 549 667 q 763 624 679 647 l 763 0 l -28 0 l -28 125 l 194 125 m 588 125 q 638 140 624 125 q 651 194 651 154 l 651 539 l 363 539 q 312 524 325 539 q 299 463 299 508 l 299 125 l 588 125 m 372 819 q 324 846 351 818 q 296 896 296 874 q 323 944 296 918 q 372 972 350 971 q 422 944 394 971 q 449 896 449 918 q 421 847 449 875 q 372 819 393 818 m 572 819 q 524 846 551 818 q 496 896 496 874 q 523 944 496 918 q 572 972 550 971 q 622 944 594 971 q 649 896 649 918 q 621 847 649 875 q 572 819 593 818 m 472 1028 q 424 1054 451 1026 q 396 1104 396 1082 q 423 1153 396 1126 q 472 1181 450 1179 q 522 1153 494 1179 q 549 1104 549 1126 q 521 1055 549 1083 q 472 1028 493 1026 z "},"ڡ":{"ha":1367,"x_min":97,"x_max":1228,"o":"m 292 0 q 177 28 219 0 q 116 117 135 56 q 97 286 97 179 q 108 417 97 349 q 136 533 118 486 l 242 515 q 208 308 208 403 q 231 125 208 193 l 660 125 q 646 361 646 199 q 670 549 646 485 q 756 640 694 614 q 938 667 817 667 q 1079 657 1014 667 q 1228 624 1144 647 l 1228 0 l 292 0 m 1053 125 q 1103 140 1089 125 q 1117 194 1117 154 l 1117 539 l 828 539 q 777 524 790 539 q 764 463 764 508 l 764 125 l 1053 125 z "},"ٯ":{"ha":1225,"x_min":83,"x_max":1086,"o":"m 796 667 q 950 657 885 667 q 1086 624 1015 647 l 1086 -139 q 1038 -311 1086 -261 q 871 -361 990 -361 l 278 -361 q 163 -328 206 -361 q 102 -224 121 -296 q 83 -26 83 -151 q 94 131 83 49 q 122 269 104 213 l 228 251 q 194 -4 194 113 q 217 -236 194 -149 l 975 -236 l 975 0 l 706 0 q 581 28 624 0 q 522 128 539 57 q 504 333 504 199 q 528 542 504 472 q 614 639 553 611 q 796 667 675 667 m 911 125 q 961 140 947 125 q 975 194 975 154 l 975 542 l 686 542 q 635 526 649 542 q 622 465 622 511 l 622 125 l 911 125 z "},"ق":{"ha":1225,"x_min":83,"x_max":1086,"o":"m 83 0 m 796 667 q 950 657 885 667 q 1086 624 1015 647 l 1086 -139 q 1038 -311 1086 -261 q 871 -361 990 -361 l 278 -361 q 163 -328 206 -361 q 102 -224 121 -296 q 83 -26 83 -151 q 94 131 83 49 q 122 269 104 213 l 228 251 q 194 -4 194 113 q 217 -236 194 -149 l 975 -236 l 975 0 l 706 0 q 581 28 624 0 q 522 128 539 57 q 504 333 504 199 q 528 542 504 472 q 614 639 553 611 q 796 667 675 667 m 911 125 q 961 140 947 125 q 975 194 975 154 l 975 542 l 686 542 q 635 526 649 542 q 622 465 622 511 l 622 125 l 911 125 m 699 819 q 650 846 678 818 q 622 896 622 874 q 649 944 622 918 q 699 972 676 971 q 748 944 721 971 q 775 896 775 918 q 747 847 775 875 q 699 819 719 818 m 899 819 q 850 846 878 818 q 822 896 822 874 q 849 944 822 918 q 899 972 876 971 q 948 944 921 971 q 975 896 975 918 q 947 847 975 875 q 899 819 919 818 z "},"ﻖ":{"ha":1225,"x_min":83,"x_max":1253,"o":"m 83 0 m 1253 125 l 1253 0 l 1086 0 l 1086 -139 q 1038 -311 1086 -261 q 871 -361 990 -361 l 278 -361 q 163 -328 206 -361 q 102 -224 121 -296 q 83 -26 83 -151 q 94 131 83 49 q 122 269 104 213 l 228 251 q 194 -4 194 113 q 217 -236 194 -149 l 975 -236 l 975 0 l 706 0 q 581 28 624 0 q 522 128 539 57 q 504 333 504 199 q 528 542 504 472 q 614 639 553 611 q 796 667 675 667 q 950 657 885 667 q 1086 624 1015 647 l 1086 125 l 1253 125 m 911 125 q 961 140 947 125 q 975 194 975 154 l 975 542 l 686 542 q 635 526 649 542 q 622 465 622 511 l 622 125 l 911 125 m 699 819 q 650 846 678 818 q 622 896 622 874 q 649 944 622 918 q 699 972 676 971 q 748 944 721 971 q 775 896 775 918 q 747 847 775 875 q 699 819 719 818 m 899 819 q 850 846 878 818 q 822 896 822 874 q 849 944 822 918 q 899 972 876 971 q 948 944 921 971 q 975 896 975 918 q 947 847 975 875 q 899 819 919 818 z "},"ﻘ":{"ha":901,"x_min":-28,"x_max":929,"o":"m 0 0 m 929 125 l 929 0 l -28 0 l -28 125 l 194 125 q 181 361 181 199 q 205 549 181 485 q 290 640 229 614 q 472 667 351 667 q 614 657 549 667 q 763 624 679 647 l 763 125 l 929 125 m 651 539 l 363 539 q 312 524 325 539 q 299 463 299 508 l 299 125 l 588 125 q 638 140 624 125 q 651 194 651 154 l 651 539 m 372 819 q 324 846 351 818 q 296 896 296 874 q 323 944 296 918 q 372 972 350 971 q 422 944 394 971 q 449 896 449 918 q 421 847 449 875 q 372 819 393 818 m 572 819 q 524 846 551 818 q 496 896 496 874 q 523 944 496 918 q 572 972 550 971 q 622 944 594 971 q 649 896 649 918 q 621 847 649 875 q 572 819 593 818 z "},"ﻗ":{"ha":901,"x_min":-28,"x_max":763,"o":"m 0 0 m 194 125 q 181 361 181 199 q 205 549 181 485 q 290 640 229 614 q 472 667 351 667 q 614 657 549 667 q 763 624 679 647 l 763 0 l -28 0 l -28 125 l 194 125 m 588 125 q 638 140 624 125 q 651 194 651 154 l 651 539 l 363 539 q 312 524 325 539 q 299 463 299 508 l 299 125 l 588 125 m 372 819 q 324 846 351 818 q 296 896 296 874 q 323 944 296 918 q 372 972 350 971 q 422 944 394 971 q 449 896 449 918 q 421 847 449 875 q 372 819 393 818 m 572 819 q 524 846 551 818 q 496 896 496 874 q 523 944 496 918 q 572 972 550 971 q 622 944 594 971 q 649 896 649 918 q 621 847 649 875 q 572 819 593 818 z "},"ك":{"ha":1208,"x_min":97,"x_max":1089,"o":"m 757 674 l 757 610 l 440 525 l 440 589 l 501 606 q 485 708 485 642 q 546 860 485 817 q 724 903 607 903 l 724 825 q 643 817 683 825 q 575 792 603 808 l 574 669 q 581 644 574 651 q 603 636 588 636 q 638 642 619 636 l 757 674 m 978 125 l 978 875 l 1089 875 l 1089 0 l 292 0 q 177 28 219 0 q 116 117 135 56 q 97 286 97 179 q 108 417 97 349 q 136 533 118 486 l 242 515 q 208 308 208 403 q 231 125 208 193 l 978 125 z "},"ﻚ":{"ha":1228,"x_min":97,"x_max":1256,"o":"m 757 610 l 440 525 l 440 589 l 501 606 q 485 708 485 642 q 546 860 485 817 q 724 903 607 903 l 724 825 q 643 817 683 825 q 575 792 603 808 l 574 669 q 581 644 574 651 q 603 636 588 636 q 638 642 619 636 l 757 674 l 757 610 m 1256 125 l 1256 0 l 292 0 q 177 28 219 0 q 116 117 135 56 q 97 286 97 179 q 108 417 97 349 q 136 533 118 486 l 242 515 q 208 308 208 403 q 231 125 208 193 l 978 125 l 978 875 l 1089 875 l 1089 125 l 1256 125 z "},"ﻜ":{"ha":975,"x_min":-28,"x_max":1003,"o":"m 1003 125 l 1003 0 l -28 0 l -28 125 l 725 125 l 725 435 l 251 435 q 121 553 121 435 q 149 693 121 613 q 225 852 178 774 q 326 985 272 931 l 421 935 q 290 751 343 851 q 221 560 236 651 l 683 560 q 776 546 743 560 q 822 499 808 532 q 836 407 836 467 l 836 125 l 1003 125 z "},"ﻛ":{"ha":975,"x_min":-28,"x_max":836,"o":"m -28 125 l 725 125 l 725 435 l 251 435 q 121 553 121 435 q 149 693 121 613 q 225 852 178 774 q 326 985 272 931 l 421 935 q 290 751 343 851 q 221 560 236 651 l 683 560 q 776 546 743 560 q 822 499 808 532 q 836 407 836 467 l 836 0 l -28 0 l -28 125 z "},"ک":{"ha":1172,"x_min":97,"x_max":1033,"o":"m 292 0 q 177 28 219 0 q 116 117 135 56 q 97 286 97 179 q 108 417 97 349 q 136 533 118 486 l 242 515 q 208 308 208 403 q 231 125 208 193 l 922 125 l 922 435 l 560 435 q 429 553 429 435 q 458 693 429 613 q 533 852 486 774 q 635 985 581 931 l 729 935 q 598 751 651 851 q 529 560 544 651 l 881 560 q 973 546 940 560 q 1019 499 1006 532 q 1033 407 1033 467 l 1033 0 l 292 0 z "},"ﮏ":{"ha":1172,"x_min":97,"x_max":1200,"o":"m 1200 125 l 1200 0 l 292 0 q 177 28 219 0 q 116 117 135 56 q 97 286 97 179 q 108 417 97 349 q 136 533 118 486 l 242 515 q 208 308 208 403 q 231 125 208 193 l 922 125 l 922 435 l 560 435 q 429 553 429 435 q 458 693 429 613 q 533 852 486 774 q 635 985 581 931 l 729 935 q 598 751 651 851 q 529 560 544 651 l 881 560 q 973 546 940 560 q 1019 499 1006 532 q 1033 407 1033 467 l 1033 125 l 1200 125 z "},"ﮑ":{"ha":975,"x_min":-28,"x_max":1003,"o":"m 0 0 m 1003 125 l 1003 0 l -28 0 l -28 125 l 725 125 l 725 435 l 251 435 q 121 553 121 435 q 149 693 121 613 q 225 852 178 774 q 326 985 272 931 l 421 935 q 290 751 343 851 q 221 560 236 651 l 683 560 q 776 546 743 560 q 822 499 808 532 q 836 407 836 467 l 836 125 l 1003 125 z "},"ﮐ":{"ha":975,"x_min":-28,"x_max":836,"o":"m 0 0 m -28 125 l 725 125 l 725 435 l 251 435 q 121 553 121 435 q 149 693 121 613 q 225 852 178 774 q 326 985 272 931 l 421 935 q 290 751 343 851 q 221 560 236 651 l 683 560 q 776 546 743 560 q 822 499 808 532 q 836 407 836 467 l 836 0 l -28 0 l -28 125 z "},"گ":{"ha":1172,"x_min":97,"x_max":1033,"o":"m 97 0 m 292 0 q 177 28 219 0 q 116 117 135 56 q 97 286 97 179 q 108 417 97 349 q 136 533 118 486 l 242 515 q 208 308 208 403 q 231 125 208 193 l 922 125 l 922 435 l 560 435 q 429 553 429 435 q 458 693 429 613 q 533 852 486 774 q 635 985 581 931 l 729 935 q 598 751 651 851 q 529 560 544 651 l 881 560 q 973 546 940 560 q 1019 499 1006 532 q 1033 407 1033 467 l 1033 0 l 292 0 m 438 1088 q 309 900 364 1017 q 242 682 254 783 l 343 647 q 408 853 357 750 q 532 1038 458 957 l 438 1088 z "},"ﮓ":{"ha":1172,"x_min":97,"x_max":1200,"o":"m 97 0 m 1200 125 l 1200 0 l 292 0 q 177 28 219 0 q 116 117 135 56 q 97 286 97 179 q 108 417 97 349 q 136 533 118 486 l 242 515 q 208 308 208 403 q 231 125 208 193 l 922 125 l 922 435 l 560 435 q 429 553 429 435 q 458 693 429 613 q 533 852 486 774 q 635 985 581 931 l 729 935 q 598 751 651 851 q 529 560 544 651 l 881 560 q 973 546 940 560 q 1019 499 1006 532 q 1033 407 1033 467 l 1033 125 l 1200 125 m 438 1088 q 309 900 364 1017 q 242 682 254 783 l 343 647 q 408 853 357 750 q 532 1038 458 957 l 438 1088 z "},"ﮕ":{"ha":975,"x_min":-81,"x_max":1003,"o":"m 0 0 m 1003 125 l 1003 0 l -28 0 l -28 125 l 725 125 l 725 435 l 251 435 q 121 553 121 435 q 149 693 121 613 q 225 852 178 774 q 326 985 272 931 l 421 935 q 290 751 343 851 q 221 560 236 651 l 683 560 q 776 546 743 560 q 822 499 808 532 q 836 407 836 467 l 836 125 l 1003 125 m 115 1088 q -13 900 42 1017 q -81 682 -68 783 l 21 647 q 85 853 35 750 q 210 1038 136 957 l 115 1088 z "},"ﮔ":{"ha":975,"x_min":-81,"x_max":836,"o":"m 0 0 m -28 125 l 725 125 l 725 435 l 251 435 q 121 553 121 435 q 149 693 121 613 q 225 852 178 774 q 326 985 272 931 l 421 935 q 290 751 343 851 q 221 560 236 651 l 683 560 q 776 546 743 560 q 822 499 808 532 q 836 407 836 467 l 836 0 l -28 0 l -28 125 m 115 1088 q -13 900 42 1017 q -81 682 -68 783 l 21 647 q 85 853 35 750 q 210 1038 136 957 l 115 1088 z "},"ل":{"ha":921,"x_min":97,"x_max":779,"o":"m 479 -208 q 593 -202 553 -208 q 651 -181 633 -196 q 668 -135 668 -165 l 668 875 l 779 875 l 779 -50 q 751 -228 779 -169 q 649 -310 724 -287 q 417 -333 574 -333 q 211 -308 278 -333 q 121 -218 144 -282 q 97 -22 97 -154 q 109 161 97 65 q 139 324 121 257 l 242 306 q 208 1 208 142 q 225 -208 208 -126 l 479 -208 z "},"ﻞ":{"ha":918,"x_min":97,"x_max":946,"o":"m 946 125 l 946 0 l 779 0 l 779 -50 q 751 -228 779 -169 q 649 -310 724 -287 q 417 -333 574 -333 q 211 -308 278 -333 q 121 -218 144 -282 q 97 -22 97 -154 q 109 161 97 65 q 139 324 121 257 l 242 306 q 208 1 208 142 q 225 -208 208 -126 l 479 -208 q 593 -202 553 -208 q 651 -181 633 -196 q 668 -135 668 -165 l 668 875 l 779 875 l 779 125 l 946 125 z "},"ﻠ":{"ha":444,"x_min":-28,"x_max":472,"o":"m 472 125 l 472 0 l -28 0 l -28 125 l 194 125 l 194 875 l 306 875 l 306 125 l 472 125 z "},"ﻟ":{"ha":444,"x_min":-28,"x_max":306,"o":"m -28 0 l -28 125 l 194 125 l 194 875 l 306 875 l 306 0 l -28 0 z "},"م":{"ha":910,"x_min":28,"x_max":771,"o":"m 161 0 q 139 -197 139 -79 q 178 -443 139 -289 l 69 -464 q 40 -329 51 -410 q 28 -174 28 -249 q 61 50 28 -18 q 175 124 94 118 q 153 317 153 197 q 214 611 153 456 q 350 651 268 636 q 515 667 432 667 q 667 649 611 667 q 747 593 722 632 q 771 486 771 554 l 771 0 l 161 0 m 660 526 q 506 542 603 542 q 299 519 403 542 q 264 317 264 401 q 289 125 264 199 l 660 125 l 660 526 z "},"ﻢ":{"ha":910,"x_min":28,"x_max":938,"o":"m 938 125 l 938 0 l 161 0 q 139 -197 139 -79 q 178 -443 139 -289 l 69 -464 q 40 -329 51 -410 q 28 -174 28 -249 q 61 50 28 -18 q 175 124 94 118 q 153 317 153 197 q 214 611 153 456 q 350 651 268 636 q 515 667 432 667 q 667 649 611 667 q 747 593 722 632 q 771 486 771 554 l 771 125 l 938 125 m 660 526 q 506 542 603 542 q 299 519 403 542 q 264 317 264 401 q 289 125 264 199 l 660 125 l 660 526 z "},"ﻤ":{"ha":910,"x_min":-28,"x_max":938,"o":"m 938 125 l 938 0 l -28 0 l -28 125 l 175 125 q 153 317 153 199 q 214 611 153 456 q 352 652 269 638 q 515 667 435 667 q 667 649 611 667 q 747 593 722 632 q 771 486 771 554 l 771 125 l 938 125 m 660 526 q 506 542 599 542 q 299 518 406 542 q 264 317 264 403 q 289 125 264 199 l 660 125 l 660 526 z "},"ﻣ":{"ha":904,"x_min":-28,"x_max":771,"o":"m 515 667 q 667 649 611 667 q 747 593 722 632 q 771 486 771 554 l 771 0 l -28 0 l -28 125 l 175 125 q 153 317 153 199 q 214 611 153 456 q 352 652 269 638 q 515 667 435 667 m 660 526 q 506 542 599 542 q 299 518 406 542 q 264 317 264 403 q 289 125 264 199 l 660 125 l 660 526 z "},"ن":{"ha":921,"x_min":97,"x_max":779,"o":"m 97 0 m 479 -208 q 593 -202 553 -208 q 651 -181 633 -196 q 668 -135 668 -165 l 668 653 l 779 653 l 779 -50 q 751 -228 779 -169 q 649 -310 724 -287 q 417 -333 574 -333 q 211 -308 278 -333 q 121 -218 144 -282 q 97 -22 97 -154 q 109 161 97 65 q 139 324 121 257 l 242 306 q 208 1 208 142 q 225 -208 208 -126 l 479 -208 m 444 819 q 396 846 424 818 q 368 896 368 874 q 395 944 368 918 q 444 972 422 971 q 494 944 467 971 q 521 896 521 918 q 493 847 521 875 q 444 819 465 818 z "},"ﻦ":{"ha":918,"x_min":97,"x_max":946,"o":"m 97 0 m 946 125 l 946 0 l 779 0 l 779 -50 q 751 -228 779 -169 q 649 -310 724 -287 q 417 -333 574 -333 q 211 -308 278 -333 q 121 -218 144 -282 q 97 -22 97 -154 q 109 161 97 65 q 139 324 121 257 l 242 306 q 208 1 208 142 q 225 -208 208 -126 l 479 -208 q 593 -202 553 -208 q 651 -181 633 -196 q 668 -135 668 -165 l 668 653 l 779 653 l 779 125 l 946 125 m 444 819 q 396 846 424 818 q 368 896 368 874 q 395 944 368 918 q 444 972 422 971 q 494 944 467 971 q 521 896 521 918 q 493 847 521 875 q 444 819 465 818 z "},"ﻨ":{"ha":444,"x_min":-28,"x_max":472,"o":"m 0 0 m 472 125 l 472 0 l -28 0 l -28 125 l 194 125 l 194 653 l 306 653 l 306 125 l 472 125 m 250 819 q 201 846 229 818 q 174 896 174 874 q 201 944 174 918 q 250 972 228 971 q 299 944 272 971 q 326 896 326 918 q 299 847 326 875 q 250 819 271 818 z "},"ﻧ":{"ha":444,"x_min":-28,"x_max":326,"o":"m 0 0 m -28 125 l 194 125 l 194 653 l 306 653 l 306 0 l -28 0 l -28 125 m 250 819 q 201 846 229 818 q 174 896 174 874 q 201 944 174 918 q 250 972 228 971 q 299 944 272 971 q 326 896 326 918 q 299 847 326 875 q 250 819 271 818 z "},"ں":{"ha":921,"x_min":97,"x_max":779,"o":"m 479 -208 q 593 -202 553 -208 q 651 -181 633 -196 q 668 -135 668 -165 l 668 653 l 779 653 l 779 -50 q 751 -228 779 -169 q 649 -310 724 -287 q 417 -333 574 -333 q 211 -308 278 -333 q 121 -218 144 -282 q 97 -22 97 -154 q 109 161 97 65 q 139 324 121 257 l 242 306 q 208 1 208 142 q 225 -208 208 -126 l 479 -208 z "},"ﮟ":{"ha":918,"x_min":97,"x_max":946,"o":"m 946 125 l 946 0 l 779 0 l 779 -50 q 751 -228 779 -169 q 649 -310 724 -287 q 417 -333 574 -333 q 211 -308 278 -333 q 121 -218 144 -282 q 97 -22 97 -154 q 109 161 97 65 q 139 324 121 257 l 242 306 q 208 1 208 142 q 225 -208 208 -126 l 479 -208 q 593 -202 553 -208 q 651 -181 633 -196 q 668 -135 668 -165 l 668 653 l 779 653 l 779 125 l 946 125 z "},"ه":{"ha":878,"x_min":118,"x_max":739,"o":"m 739 0 l 400 0 q 217 24 275 0 q 139 115 160 49 q 118 326 118 182 q 139 538 118 471 q 217 628 160 604 q 400 653 275 653 l 739 653 l 739 0 m 332 528 q 258 510 281 528 q 236 450 236 492 l 236 203 q 258 143 236 161 q 332 125 281 125 l 628 125 l 628 528 l 332 528 z "},"ﻪ":{"ha":860,"x_min":118,"x_max":888,"o":"m 888 125 l 888 0 l 400 0 q 217 24 275 0 q 139 115 160 49 q 118 326 118 182 q 139 538 118 471 q 217 628 160 604 q 400 653 275 653 l 739 653 l 739 125 l 888 125 m 628 528 l 332 528 q 258 510 281 528 q 236 450 236 492 l 236 203 q 258 143 236 161 q 332 125 281 125 l 628 125 l 628 528 z "},"ﻬ":{"ha":1014,"x_min":-28,"x_max":1042,"o":"m 1042 124 l 1042 -1 l 889 -1 l 889 0 l -28 0 l -28 125 l 131 125 q 149 324 132 264 q 212 403 165 383 q 368 422 258 422 q 534 403 485 422 q 601 324 583 383 q 619 125 618 265 l 824 125 l 754 394 q 678 542 729 489 q 544 618 626 596 q 335 640 463 640 l 342 761 q 598 733 497 761 q 762 635 699 706 q 857 438 825 565 l 938 124 l 1042 124 m 228 125 l 522 125 l 522 332 l 299 332 q 244 320 260 332 q 228 278 228 308 l 228 125 z "},"ﻫ":{"ha":1014,"x_min":-28,"x_max":944,"o":"m 944 96 l 944 0 l -28 0 l -28 125 l 131 125 q 149 324 132 264 q 212 403 165 383 q 368 422 258 422 q 534 403 485 422 q 601 324 583 383 q 619 125 618 265 l 824 125 l 754 394 q 678 542 729 489 q 544 618 626 596 q 335 640 463 640 l 342 761 q 598 733 497 761 q 762 635 699 706 q 857 438 825 565 l 944 96 m 228 125 l 522 125 l 522 332 l 299 332 q 244 320 260 332 q 228 278 228 308 l 228 125 z "},"ہ":{"ha":878,"x_min":118,"x_max":739,"o":"m 118 0 m 739 0 l 400 0 q 217 24 275 0 q 139 115 160 49 q 118 326 118 182 q 139 538 118 471 q 217 628 160 604 q 400 653 275 653 l 739 653 l 739 0 m 332 528 q 258 510 281 528 q 236 450 236 492 l 236 203 q 258 143 236 161 q 332 125 281 125 l 628 125 l 628 528 l 332 528 z "},"ﮧ":{"ha":906,"x_min":133,"x_max":933,"o":"m 933 125 l 933 0 l 656 0 l 656 528 q 461 542 563 542 q 244 526 325 542 l 244 0 l 133 0 l 133 472 q 161 588 133 546 q 254 648 189 629 q 438 667 319 667 q 621 655 526 667 q 767 625 715 643 l 767 125 l 933 125 z "},"ﮩ":{"ha":907,"x_min":-28,"x_max":938,"o":"m 938 0 l 771 0 l 771 -326 q 749 -442 771 -400 q 676 -502 728 -483 q 529 -521 624 -521 q 376 -507 453 -521 q 239 -465 299 -493 q 194 -316 211 -400 q 178 -150 178 -232 l 178 0 l -28 0 l -28 125 l 289 125 l 289 -150 q 329 -376 289 -260 q 506 -396 426 -396 q 660 -381 604 -396 l 660 125 l 938 125 l 938 0 z "},"ﮨ":{"ha":444,"x_min":-28,"x_max":329,"o":"m 283 -100 q 319 -121 310 -106 q 329 -174 329 -136 q 313 -233 329 -217 q 254 -250 297 -250 q 200 -233 215 -250 q 185 -174 185 -217 q 191 -134 185 -154 q 214 -74 197 -114 l 249 0 l -28 0 l -28 125 l 194 125 l 194 653 l 306 653 l 306 0 l 283 -100 z "},"ۂ":{"ha":878,"x_min":118,"x_max":739,"o":"m 118 0 m 739 0 l 400 0 q 217 24 275 0 q 139 115 160 49 q 118 326 118 182 q 139 538 118 471 q 217 628 160 604 q 400 653 275 653 l 739 653 l 739 0 m 332 528 q 258 510 281 528 q 236 450 236 492 l 236 203 q 258 143 236 161 q 332 125 281 125 l 628 125 l 628 528 l 332 528 m 607 951 l 607 888 l 290 803 l 290 867 l 351 883 q 335 986 335 919 q 396 1138 335 1094 q 574 1181 457 1181 l 574 1103 q 493 1094 533 1103 q 425 1069 453 1086 l 424 947 q 431 922 424 929 q 453 914 438 914 q 488 919 469 914 l 607 951 z "},"ھ":{"ha":1014,"x_min":28,"x_max":944,"o":"m 944 96 l 944 0 l 28 0 l 28 125 l 131 125 q 149 324 132 264 q 212 403 165 383 q 368 422 258 422 q 534 403 485 422 q 601 324 583 383 q 619 125 618 265 l 824 125 l 754 394 q 678 542 729 489 q 544 618 626 596 q 335 640 463 640 l 342 761 q 598 733 497 761 q 762 635 699 706 q 857 438 825 565 l 944 96 m 228 125 l 522 125 l 522 332 l 299 332 q 244 320 260 332 q 228 278 228 308 l 228 125 z "},"ﮫ":{"ha":1014,"x_min":28,"x_max":1042,"o":"m 1042 124 l 1042 -1 l 889 -1 l 889 0 l 28 0 l 28 125 l 131 125 q 149 324 132 264 q 212 403 165 383 q 368 422 258 422 q 534 403 485 422 q 601 324 583 383 q 619 125 618 265 l 824 125 l 754 394 q 678 542 729 489 q 544 618 626 596 q 335 640 463 640 l 342 761 q 598 733 497 761 q 762 635 699 706 q 857 438 825 565 l 938 124 l 1042 124 m 228 125 l 522 125 l 522 332 l 299 332 q 244 320 260 332 q 228 278 228 308 l 228 125 z "},"ﮭ":{"ha":1014,"x_min":-28,"x_max":1042,"o":"m 0 0 m 1042 124 l 1042 -1 l 889 -1 l 889 0 l -28 0 l -28 125 l 131 125 q 149 324 132 264 q 212 403 165 383 q 368 422 258 422 q 534 403 485 422 q 601 324 583 383 q 619 125 618 265 l 824 125 l 754 394 q 678 542 729 489 q 544 618 626 596 q 335 640 463 640 l 342 761 q 598 733 497 761 q 762 635 699 706 q 857 438 825 565 l 938 124 l 1042 124 m 228 125 l 522 125 l 522 332 l 299 332 q 244 320 260 332 q 228 278 228 308 l 228 125 z "},"ﮬ":{"ha":1014,"x_min":-28,"x_max":944,"o":"m 0 0 m 944 96 l 944 0 l -28 0 l -28 125 l 131 125 q 149 324 132 264 q 212 403 165 383 q 368 422 258 422 q 534 403 485 422 q 601 324 583 383 q 619 125 618 265 l 824 125 l 754 394 q 678 542 729 489 q 544 618 626 596 q 335 640 463 640 l 342 761 q 598 733 497 761 q 762 635 699 706 q 857 438 825 565 l 944 96 m 228 125 l 522 125 l 522 332 l 299 332 q 244 320 260 332 q 228 278 228 308 l 228 125 z "},"ة":{"ha":878,"x_min":118,"x_max":739,"o":"m 118 0 m 739 0 l 400 0 q 217 24 275 0 q 139 115 160 49 q 118 326 118 182 q 139 538 118 471 q 217 628 160 604 q 400 653 275 653 l 739 653 l 739 0 m 332 528 q 258 510 281 528 q 236 450 236 492 l 236 203 q 258 143 236 161 q 332 125 281 125 l 628 125 l 628 528 l 332 528 m 349 819 q 300 846 328 818 q 272 896 272 874 q 299 944 272 918 q 349 972 326 971 q 398 944 371 971 q 425 896 425 918 q 397 847 425 875 q 349 819 369 818 m 549 819 q 500 846 528 818 q 472 896 472 874 q 499 944 472 918 q 549 972 526 971 q 598 944 571 971 q 625 896 625 918 q 597 847 625 875 q 549 819 569 818 z "},"ﺔ":{"ha":860,"x_min":118,"x_max":888,"o":"m 118 0 m 888 125 l 888 0 l 400 0 q 217 24 275 0 q 139 115 160 49 q 118 326 118 182 q 139 538 118 471 q 217 628 160 604 q 400 653 275 653 l 739 653 l 739 125 l 888 125 m 628 528 l 332 528 q 258 510 281 528 q 236 450 236 492 l 236 203 q 258 143 236 161 q 332 125 281 125 l 628 125 l 628 528 m 331 819 q 282 846 310 818 q 254 896 254 874 q 281 944 254 918 q 331 972 308 971 q 380 944 353 971 q 407 896 407 918 q 379 847 407 875 q 331 819 351 818 m 531 819 q 482 846 510 818 q 454 896 454 874 q 481 944 454 918 q 531 972 508 971 q 580 944 553 971 q 607 896 607 918 q 579 847 607 875 q 531 819 551 818 z "},"ۃ":{"ha":878,"x_min":118,"x_max":739,"o":"m 118 0 m 739 0 l 400 0 q 217 24 275 0 q 139 115 160 49 q 118 326 118 182 q 139 538 118 471 q 217 628 160 604 q 400 653 275 653 l 739 653 l 739 0 m 332 528 q 258 510 281 528 q 236 450 236 492 l 236 203 q 258 143 236 161 q 332 125 281 125 l 628 125 l 628 528 l 332 528 m 349 819 q 300 846 328 818 q 272 896 272 874 q 299 944 272 918 q 349 972 326 971 q 398 944 371 971 q 425 896 425 918 q 397 847 425 875 q 349 819 369 818 m 549 819 q 500 846 528 818 q 472 896 472 874 q 499 944 472 918 q 549 972 526 971 q 598 944 571 971 q 625 896 625 918 q 597 847 625 875 q 549 819 569 818 z "},"و":{"ha":839,"x_min":118,"x_max":700,"o":"m 410 667 q 564 657 499 667 q 700 624 629 647 l 700 125 q 660 -45 700 49 q 553 -226 621 -139 q 406 -371 485 -314 l 336 -285 q 467 -153 407 -229 q 560 0 526 -76 l 319 0 q 195 28 238 0 q 135 128 153 57 q 118 333 118 199 q 142 542 118 472 q 228 639 167 611 q 410 667 289 667 m 525 125 q 575 140 561 125 q 589 194 589 154 l 589 542 l 300 542 q 249 526 263 542 q 236 465 236 511 l 236 125 l 525 125 z "},"ﻮ":{"ha":853,"x_min":118,"x_max":881,"o":"m 881 0 l 678 0 q 570 -203 644 -101 q 406 -371 496 -306 l 336 -285 q 467 -153 407 -229 q 560 0 526 -76 l 319 0 q 195 28 238 0 q 135 128 153 57 q 118 333 118 199 q 142 542 118 472 q 228 639 167 611 q 410 667 289 667 q 564 657 499 667 q 700 624 629 647 l 700 125 l 881 125 l 881 0 m 525 125 q 575 140 561 125 q 589 194 589 154 l 589 542 l 300 542 q 249 526 263 542 q 236 465 236 511 l 236 125 l 525 125 z "},"ؤ":{"ha":839,"x_min":118,"x_max":700,"o":"m 118 0 m 410 667 q 564 657 499 667 q 700 624 629 647 l 700 125 q 660 -45 700 49 q 553 -226 621 -139 q 406 -371 485 -314 l 336 -285 q 467 -153 407 -229 q 560 0 526 -76 l 319 0 q 195 28 238 0 q 135 128 153 57 q 118 333 118 199 q 142 542 118 472 q 228 639 167 611 q 410 667 289 667 m 525 125 q 575 140 561 125 q 589 194 589 154 l 589 542 l 300 542 q 249 526 263 542 q 236 465 236 511 l 236 125 l 525 125 m 568 951 l 568 888 l 251 803 l 251 867 l 313 883 q 296 986 296 919 q 357 1138 296 1094 q 535 1181 418 1181 l 535 1103 q 454 1094 494 1103 q 386 1069 414 1086 l 385 947 q 392 922 385 929 q 414 914 399 914 q 449 919 431 914 l 568 951 z "},"ﺆ":{"ha":853,"x_min":118,"x_max":881,"o":"m 118 0 m 881 0 l 678 0 q 570 -203 644 -101 q 406 -371 496 -306 l 336 -285 q 467 -153 407 -229 q 560 0 526 -76 l 319 0 q 195 28 238 0 q 135 128 153 57 q 118 333 118 199 q 142 542 118 472 q 228 639 167 611 q 410 667 289 667 q 564 657 499 667 q 700 624 629 647 l 700 125 l 881 125 l 881 0 m 525 125 q 575 140 561 125 q 589 194 589 154 l 589 542 l 300 542 q 249 526 263 542 q 236 465 236 511 l 236 125 l 525 125 m 568 951 l 568 888 l 251 803 l 251 867 l 313 883 q 296 986 296 919 q 357 1138 296 1094 q 535 1181 418 1181 l 535 1103 q 454 1094 494 1103 q 386 1069 414 1086 l 385 947 q 392 922 385 929 q 414 914 399 914 q 449 919 431 914 l 568 951 z "},"ى":{"ha":1182,"x_min":97,"x_max":1057,"o":"m 97 -119 q 109 50 97 -39 q 139 199 121 139 l 247 179 q 208 -89 208 10 q 225 -257 208 -189 l 618 -257 q 819 -251 750 -257 q 917 -229 888 -244 q 946 -183 946 -214 l 946 110 l 751 133 q 610 171 658 144 q 544 249 563 197 q 525 396 525 301 q 547 556 525 499 q 623 640 569 614 q 774 667 676 667 q 1038 640 906 667 l 1017 521 q 785 542 897 542 q 643 535 696 542 l 643 267 l 868 243 q 984 208 943 236 q 1041 128 1025 181 q 1057 -14 1057 75 l 1057 -112 q 1017 -278 1057 -222 q 872 -358 978 -335 q 553 -382 765 -382 q 263 -365 354 -382 q 135 -294 172 -349 q 97 -119 97 -240 z "},"ﻰ":{"ha":1196,"x_min":97,"x_max":1224,"o":"m 1224 125 l 1224 0 l 1057 0 l 1057 -112 q 1017 -278 1057 -222 q 872 -358 978 -335 q 553 -382 765 -382 q 263 -365 354 -382 q 135 -294 172 -349 q 97 -119 97 -240 q 109 50 97 -39 q 139 199 121 139 l 247 179 q 208 -89 208 10 q 225 -257 208 -189 l 618 -257 q 819 -251 750 -257 q 917 -229 888 -244 q 946 -183 946 -214 l 946 0 l 876 0 q 730 12 807 0 q 600 42 653 24 l 618 158 q 853 125 746 125 l 1224 125 z "},"ي":{"ha":1182,"x_min":97,"x_max":1057,"o":"m 97 0 m 97 -119 q 109 50 97 -39 q 139 199 121 139 l 247 179 q 208 -89 208 10 q 225 -257 208 -189 l 618 -257 q 819 -251 750 -257 q 917 -229 888 -244 q 946 -183 946 -214 l 946 110 l 751 133 q 610 171 658 144 q 544 249 563 197 q 525 396 525 301 q 547 556 525 499 q 623 640 569 614 q 774 667 676 667 q 1038 640 906 667 l 1017 521 q 785 542 897 542 q 643 535 696 542 l 643 267 l 868 243 q 984 208 943 236 q 1041 128 1025 181 q 1057 -14 1057 75 l 1057 -112 q 1017 -278 1057 -222 q 872 -358 978 -335 q 553 -382 765 -382 q 263 -365 354 -382 q 135 -294 172 -349 q 97 -119 97 -240 z "},"ﻲ":{"ha":1196,"x_min":97,"x_max":1224,"o":"m 97 0 m 1224 125 l 1224 0 l 1057 0 l 1057 -112 q 1017 -278 1057 -222 q 872 -358 978 -335 q 553 -382 765 -382 q 263 -365 354 -382 q 135 -294 172 -349 q 97 -119 97 -240 q 109 50 97 -39 q 139 199 121 139 l 247 179 q 208 -89 208 10 q 225 -257 208 -189 l 618 -257 q 819 -251 750 -257 q 917 -229 888 -244 q 946 -183 946 -214 l 946 0 l 876 0 q 730 12 807 0 q 600 42 653 24 l 618 158 q 853 125 746 125 l 1224 125 m 499 -611 q 450 -585 478 -612 q 422 -535 422 -557 q 449 -486 422 -512 q 499 -458 476 -460 q 548 -486 521 -460 q 575 -535 575 -512 q 547 -584 575 -556 q 499 -611 519 -612 m 699 -611 q 650 -585 678 -612 q 622 -535 622 -557 q 649 -486 622 -512 q 699 -458 676 -460 q 748 -486 721 -460 q 775 -535 775 -512 q 747 -584 775 -556 q 699 -611 719 -612 z "},"ﻴ":{"ha":444,"x_min":-28,"x_max":472,"o":"m 0 0 m 472 125 l 472 0 l -28 0 l -28 125 l 194 125 l 194 653 l 306 653 l 306 125 l 472 125 m 143 -264 q 94 -237 122 -265 q 67 -187 67 -210 q 94 -139 67 -165 q 143 -111 121 -112 q 192 -139 165 -112 q 219 -187 219 -165 q 192 -237 219 -208 q 143 -264 164 -265 m 343 -264 q 294 -237 322 -265 q 267 -187 267 -210 q 294 -139 267 -165 q 343 -111 321 -112 q 392 -139 365 -112 q 419 -187 419 -165 q 392 -237 419 -208 q 343 -264 364 -265 z "},"ﻳ":{"ha":444,"x_min":-28,"x_max":338,"o":"m 0 0 m -28 125 l 194 125 l 194 653 l 306 653 l 306 0 l -28 0 l -28 125 m 61 -236 q 13 -210 40 -237 q -15 -160 -15 -182 q 12 -111 -15 -137 q 61 -83 39 -85 q 110 -111 83 -85 q 138 -160 138 -137 q 110 -209 138 -181 q 61 -236 82 -237 m 261 -236 q 213 -210 240 -237 q 185 -160 185 -182 q 212 -111 185 -137 q 261 -83 239 -85 q 310 -111 283 -85 q 338 -160 338 -137 q 310 -209 338 -181 q 261 -236 282 -237 z "},"ئ":{"ha":1182,"x_min":78,"x_max":1057,"o":"m 78 0 m 97 -119 q 109 50 97 -39 q 139 199 121 139 l 247 179 q 208 -89 208 10 q 225 -257 208 -189 l 618 -257 q 819 -251 750 -257 q 917 -229 888 -244 q 946 -183 946 -214 l 946 110 l 751 133 q 610 171 658 144 q 544 249 563 197 q 525 396 525 301 q 547 556 525 499 q 623 640 569 614 q 774 667 676 667 q 1038 640 906 667 l 1017 521 q 785 542 897 542 q 643 535 696 542 l 643 267 l 868 243 q 984 208 943 236 q 1041 128 1025 181 q 1057 -14 1057 75 l 1057 -112 q 1017 -278 1057 -222 q 872 -358 978 -335 q 553 -382 765 -382 q 263 -365 354 -382 q 135 -294 172 -349 q 97 -119 97 -240 m 394 521 l 394 457 l 78 372 l 78 436 l 139 453 q 122 556 122 489 q 183 707 122 664 q 361 750 244 750 l 361 672 q 281 664 321 672 q 213 639 240 656 l 211 517 q 218 491 211 499 q 240 483 225 483 q 275 489 257 483 l 394 521 z "}}}
